<svg width="794" height="242" viewBox="0 0 794 242" fill="none" xmlns="http://www.w3.org/2000/svg">
<path d="M51.7111 159.541C51.7111 160.866 51.6606 161.961 51.5341 162.827C51.433 163.718 51.256 164.432 51.0284 164.967C50.8008 165.502 50.5227 165.909 50.194 166.164C49.8652 166.419 49.4859 166.546 49.0813 166.546H5.25962C3.76771 166.546 2.52866 166.113 1.5172 165.221C0.505733 164.33 0 162.903 0 160.916V84.3169C0 82.33 0.505733 80.878 1.5172 80.0119C2.52866 79.1203 3.76771 78.6873 5.25962 78.6873H48.8032C49.2078 78.6873 49.5618 78.7891 49.8905 79.0184C50.1939 79.2477 50.4721 79.6298 50.6997 80.2157C50.9273 80.7761 51.1043 81.5148 51.2054 82.3809C51.3066 83.2725 51.3824 84.3934 51.3824 85.7435C51.3824 87.0171 51.3318 88.087 51.2054 88.9786C51.1043 89.8702 50.9273 90.5835 50.6997 91.1184C50.4721 91.6534 50.1939 92.0612 49.8905 92.3159C49.5871 92.5707 49.2078 92.6978 48.8032 92.6978H17.6754V114.147H44.024C44.4286 114.147 44.8079 114.274 45.1366 114.529C45.4654 114.783 45.7435 115.166 45.9711 115.675C46.1987 116.185 46.3757 116.898 46.4768 117.79C46.578 118.681 46.6538 119.751 46.6538 121.025C46.6538 122.298 46.6032 123.419 46.4768 124.285C46.3757 125.152 46.1987 125.839 45.9711 126.349C45.7435 126.858 45.4654 127.24 45.1366 127.469C44.8079 127.699 44.4286 127.801 44.024 127.801H17.6754V152.587H49.0813C49.4859 152.587 49.8652 152.714 50.194 152.969C50.5227 153.223 50.8008 153.606 51.0284 154.166C51.256 154.701 51.433 155.414 51.5341 156.306C51.6353 157.197 51.7111 158.293 51.7111 159.592V159.541Z" fill="#105388"/>
<path d="M123.777 164.229C123.777 164.687 123.651 165.069 123.373 165.426C123.095 165.757 122.665 166.037 122.033 166.267C121.4 166.496 120.541 166.674 119.428 166.776C118.315 166.878 116.975 166.954 115.357 166.954C113.738 166.954 112.322 166.903 111.21 166.776C110.097 166.674 109.237 166.496 108.605 166.267C107.973 166.037 107.518 165.757 107.265 165.426C106.987 165.095 106.861 164.687 106.861 164.229V129.661C106.861 126.706 106.658 124.413 106.228 122.732C105.798 121.051 105.192 119.624 104.382 118.427C103.573 117.23 102.537 116.287 101.247 115.65C99.9573 114.988 98.4654 114.657 96.7712 114.657C94.6218 114.657 92.4219 115.447 90.2219 117.026C88.022 118.605 85.7209 120.923 83.344 123.955V164.229C83.344 164.687 83.2175 165.069 82.9394 165.426C82.6612 165.757 82.2061 166.037 81.5486 166.267C80.8912 166.496 80.0314 166.674 78.9441 166.776C77.8568 166.878 76.4913 166.954 74.8224 166.954C73.1535 166.954 71.788 166.903 70.7007 166.776C69.6133 166.674 68.7536 166.496 68.0961 166.267C67.4387 166.037 66.9835 165.757 66.7054 165.426C66.4272 165.095 66.3008 164.687 66.3008 164.229V103.652C66.3008 103.194 66.4019 102.812 66.6295 102.455C66.8571 102.124 67.2617 101.844 67.8433 101.614C68.4249 101.385 69.1835 101.207 70.0938 101.105C71.0041 101.003 72.1673 100.927 73.558 100.927C74.9488 100.927 76.1879 100.978 77.1235 101.105C78.0591 101.207 78.7924 101.385 79.3234 101.614C79.8291 101.844 80.2084 102.124 80.436 102.455C80.6636 102.786 80.7647 103.194 80.7647 103.652V110.658C84.0773 107.04 87.4657 104.315 90.9047 102.506C94.3436 100.697 97.9343 99.7803 101.651 99.7803C105.748 99.7803 109.187 100.468 111.994 101.818C114.801 103.168 117.076 105.028 118.796 107.346C120.515 109.69 121.78 112.415 122.538 115.523C123.297 118.656 123.676 122.401 123.676 126.808V164.229H123.777Z" fill="#105388"/>
<path d="M195.972 132.182C195.972 134.271 195.517 135.799 194.581 136.793C193.671 137.786 192.381 138.296 190.763 138.296H154.148C154.148 140.869 154.451 143.212 155.058 145.327C155.665 147.441 156.626 149.224 157.966 150.702C159.281 152.179 161 153.3 163.099 154.064C165.198 154.828 167.701 155.21 170.609 155.21C173.517 155.21 176.172 155.007 178.423 154.574C180.673 154.141 182.62 153.657 184.264 153.147C185.908 152.638 187.273 152.154 188.335 151.721C189.422 151.287 190.282 151.084 190.965 151.084C191.37 151.084 191.698 151.16 191.976 151.313C192.255 151.466 192.482 151.746 192.659 152.154C192.836 152.561 192.963 153.147 193.038 153.886C193.114 154.625 193.14 155.567 193.14 156.713C193.14 157.707 193.14 158.547 193.064 159.261C193.013 159.974 192.963 160.56 192.861 161.069C192.76 161.579 192.634 161.986 192.457 162.318C192.28 162.649 192.052 162.98 191.749 163.311C191.445 163.617 190.661 164.05 189.347 164.61C188.032 165.171 186.388 165.68 184.365 166.215C182.342 166.75 180.016 167.183 177.411 167.565C174.807 167.947 172.025 168.151 169.041 168.151C163.681 168.151 159.003 167.463 154.982 166.113C150.962 164.763 147.598 162.7 144.893 159.923C142.187 157.172 140.189 153.682 138.849 149.453C137.534 145.25 136.852 140.308 136.852 134.653C136.852 128.998 137.56 124.413 138.95 120.082C140.341 115.752 142.364 112.083 145.019 109.078C147.674 106.072 150.886 103.779 154.704 102.174C158.497 100.595 162.77 99.8052 167.55 99.8052C172.582 99.8052 176.88 100.544 180.471 102.047C184.062 103.55 186.97 105.613 189.271 108.262C191.572 110.912 193.241 114.045 194.328 117.662C195.415 121.279 195.946 125.228 195.946 129.482V132.208L195.972 132.182ZM179.535 127.291C179.662 122.502 178.726 118.732 176.678 115.981C174.63 113.23 171.469 111.88 167.196 111.88C165.046 111.88 163.15 112.287 161.557 113.102C159.964 113.918 158.623 115.013 157.587 116.389C156.525 117.764 155.715 119.394 155.159 121.279C154.603 123.165 154.274 125.151 154.173 127.291H179.51H179.535Z" fill="#105388"/>
<path d="M405.168 132.182C405.168 134.271 404.713 135.799 403.777 136.793C402.867 137.786 401.577 138.296 399.959 138.296H363.344C363.344 140.869 363.647 143.212 364.254 145.327C364.861 147.441 365.822 149.224 367.162 150.702C368.477 152.179 370.197 153.3 372.295 154.064C374.394 154.828 376.898 155.21 379.805 155.21C382.713 155.21 385.369 155.007 387.619 154.574C389.87 154.141 391.817 153.657 393.46 153.147C395.104 152.638 396.469 152.154 397.531 151.721C398.619 151.287 399.478 151.084 400.161 151.084C400.566 151.084 400.895 151.16 401.173 151.313C401.451 151.466 401.678 151.746 401.855 152.154C402.032 152.561 402.159 153.147 402.235 153.886C402.311 154.625 402.336 155.567 402.336 156.713C402.336 157.707 402.336 158.547 402.26 159.261C402.209 159.974 402.159 160.56 402.058 161.069C401.957 161.579 401.83 161.986 401.653 162.318C401.476 162.649 401.249 162.98 400.945 163.311C400.642 163.617 399.858 164.05 398.543 164.61C397.228 165.171 395.584 165.68 393.561 166.215C391.538 166.75 389.212 167.183 386.608 167.565C384.003 167.947 381.222 168.151 378.238 168.151C372.877 168.151 368.199 167.463 364.178 166.113C360.158 164.763 356.795 162.7 354.089 159.923C351.383 157.172 349.386 153.682 348.045 149.453C346.731 145.25 346.048 140.308 346.048 134.653C346.048 128.998 346.756 124.413 348.147 120.082C349.537 115.752 351.56 112.083 354.215 109.078C356.871 106.072 360.082 103.779 363.9 102.174C367.693 100.595 371.967 99.8052 376.746 99.8052C381.778 99.8052 386.077 100.544 389.667 102.047C393.258 103.55 396.166 105.613 398.467 108.262C400.768 110.912 402.437 114.045 403.524 117.662C404.612 121.279 405.143 125.228 405.143 129.482V132.208L405.168 132.182ZM388.732 127.291C388.858 122.502 387.922 118.732 385.874 115.981C383.826 113.23 380.665 111.88 376.392 111.88C374.242 111.88 372.346 112.287 370.753 113.102C369.16 113.918 367.82 115.013 366.783 116.389C365.721 117.764 364.912 119.394 364.355 121.279C363.799 123.165 363.47 125.151 363.369 127.291H388.706H388.732Z" fill="#105388"/>
<path d="M248.567 109.282C248.567 110.912 248.516 112.237 248.44 113.281C248.339 114.326 248.213 115.141 248.036 115.727C247.859 116.313 247.631 116.72 247.328 116.95C247.024 117.179 246.67 117.281 246.215 117.281C245.861 117.281 245.456 117.204 245.001 117.051C244.546 116.899 244.04 116.72 243.484 116.542C242.928 116.364 242.295 116.185 241.638 116.032C240.955 115.88 240.222 115.803 239.413 115.803C238.477 115.803 237.516 116.007 236.581 116.389C235.645 116.771 234.659 117.383 233.647 118.198C232.636 119.013 231.574 120.108 230.487 121.458C229.374 122.808 228.211 124.49 226.946 126.477V164.229C226.946 164.687 226.82 165.069 226.542 165.426C226.264 165.757 225.809 166.037 225.151 166.267C224.494 166.496 223.634 166.674 222.547 166.776C221.459 166.878 220.094 166.954 218.425 166.954C216.756 166.954 215.391 166.903 214.303 166.776C213.216 166.674 212.356 166.496 211.699 166.267C211.041 166.037 210.586 165.757 210.308 165.426C210.03 165.095 209.903 164.687 209.903 164.229V103.652C209.903 103.194 210.004 102.812 210.232 102.455C210.46 102.124 210.864 101.844 211.446 101.614C212.027 101.385 212.786 101.207 213.696 101.105C214.607 101.003 215.77 100.927 217.161 100.927C218.551 100.927 219.79 100.978 220.726 101.105C221.662 101.207 222.395 101.385 222.926 101.614C223.432 101.844 223.811 102.124 224.039 102.455C224.266 102.786 224.367 103.194 224.367 103.652V111.192C225.935 108.925 227.427 107.066 228.818 105.588C230.208 104.111 231.549 102.939 232.788 102.098C234.052 101.232 235.316 100.646 236.555 100.29C237.82 99.9586 239.084 99.7803 240.323 99.7803C240.905 99.7803 241.537 99.8057 242.22 99.8822C242.902 99.9586 243.585 100.06 244.318 100.213C245.026 100.366 245.659 100.544 246.215 100.748C246.746 100.952 247.151 101.156 247.403 101.385C247.656 101.614 247.833 101.869 247.934 102.124C248.036 102.404 248.137 102.761 248.238 103.245C248.339 103.729 248.39 104.442 248.44 105.384C248.491 106.327 248.516 107.626 248.516 109.256L248.567 109.282Z" fill="#105388"/>
<path d="M311.582 107.856C311.582 110.021 311.329 111.626 310.848 112.671C310.343 113.715 309.736 114.225 309.028 114.225H301.947C302.934 115.32 303.642 116.543 304.072 117.918C304.501 119.294 304.704 120.746 304.704 122.223C304.704 125.764 304.122 128.897 302.959 131.623C301.796 134.374 300.127 136.667 297.927 138.552C295.752 140.437 293.122 141.864 290.037 142.832C286.952 143.8 283.539 144.284 279.746 144.284C277.824 144.284 275.978 144.054 274.208 143.57C272.463 143.086 271.098 142.551 270.162 141.915C269.631 142.5 269.151 143.214 268.721 144.029C268.291 144.844 268.089 145.761 268.089 146.755C268.089 148.079 268.67 149.149 269.808 149.99C270.946 150.83 272.564 151.289 274.638 151.391L289.279 151.926C292.693 152.053 295.727 152.537 298.407 153.378C301.088 154.218 303.338 155.39 305.159 156.919C306.979 158.447 308.37 160.256 309.331 162.395C310.292 164.535 310.772 166.955 310.772 169.655C310.772 172.636 310.115 175.463 308.825 178.113C307.536 180.762 305.563 183.055 302.959 185.016C300.354 186.952 297.092 188.506 293.148 189.627C289.203 190.748 284.626 191.333 279.366 191.333C274.107 191.333 269.884 190.926 266.243 190.111C262.627 189.296 259.668 188.175 257.342 186.723C255.015 185.271 253.347 183.539 252.283 181.526C251.221 179.514 250.69 177.297 250.69 174.903C250.69 173.4 250.893 171.973 251.272 170.623C251.652 169.273 252.208 167.974 252.967 166.726C253.726 165.478 254.611 164.28 255.698 163.16C256.786 162.039 258.025 160.943 259.415 159.899C257.494 158.855 255.976 157.453 254.94 155.645C253.878 153.862 253.347 151.9 253.347 149.76C253.347 147.086 253.953 144.666 255.167 142.449C256.381 140.259 257.949 138.272 259.896 136.514C258.328 134.935 257.064 133.024 256.128 130.808C255.192 128.592 254.712 125.841 254.712 122.529C254.712 118.988 255.319 115.829 256.558 113.053C257.797 110.276 259.516 107.907 261.716 105.997C263.916 104.061 266.546 102.609 269.606 101.59C272.666 100.571 276.029 100.061 279.72 100.061C281.617 100.061 283.412 100.163 285.157 100.392C286.877 100.622 288.495 100.927 289.987 101.335H309.078C309.837 101.335 310.469 101.844 310.924 102.838C311.405 103.831 311.632 105.513 311.632 107.856H311.582ZM293.78 170.547C293.78 168.509 292.971 166.955 291.352 165.86C289.734 164.764 287.509 164.179 284.677 164.102L272.615 163.771C271.452 164.637 270.516 165.452 269.808 166.242C269.1 167.032 268.544 167.796 268.114 168.509C267.684 169.222 267.406 169.936 267.279 170.623C267.153 171.311 267.077 171.999 267.077 172.738C267.077 175.005 268.215 176.712 270.491 177.909C272.767 179.081 275.953 179.667 280.1 179.667C282.654 179.667 284.828 179.412 286.573 178.877C288.318 178.367 289.734 177.654 290.821 176.813C291.909 175.947 292.667 174.979 293.122 173.935C293.578 172.865 293.805 171.744 293.805 170.572L293.78 170.547ZM289.81 122.198C289.81 118.937 288.9 116.415 287.104 114.581C285.309 112.773 282.755 111.856 279.493 111.856C277.824 111.856 276.357 112.136 275.118 112.696C273.854 113.257 272.817 114.021 271.983 115.014C271.148 115.982 270.541 117.129 270.137 118.402C269.732 119.701 269.53 121.052 269.53 122.453C269.53 125.535 270.44 127.955 272.236 129.764C274.031 131.547 276.534 132.438 279.72 132.438C281.44 132.438 282.907 132.158 284.171 131.623C285.435 131.088 286.472 130.324 287.306 129.381C288.141 128.439 288.773 127.344 289.203 126.095C289.633 124.847 289.835 123.548 289.835 122.198H289.81Z" fill="#105388"/>
<path d="M492.938 159.898C493.469 161.528 493.823 162.827 493.949 163.77C494.076 164.712 493.899 165.425 493.418 165.909C492.912 166.393 492.053 166.674 490.788 166.801C489.524 166.903 487.804 166.979 485.605 166.979C483.405 166.979 481.533 166.954 480.244 166.877C478.954 166.801 477.993 166.674 477.311 166.47C476.628 166.266 476.173 165.986 475.894 165.629C475.616 165.273 475.389 164.789 475.212 164.203L469.345 146.549H436.574L431.036 163.719C430.859 164.355 430.631 164.89 430.328 165.323C430.025 165.757 429.569 166.088 428.912 166.342C428.254 166.597 427.344 166.75 426.156 166.852C424.967 166.954 423.399 166.979 421.478 166.979C419.404 166.979 417.786 166.903 416.623 166.775C415.459 166.648 414.65 166.317 414.195 165.782C413.74 165.273 413.588 164.534 413.715 163.566C413.841 162.623 414.195 161.35 414.726 159.77L441.631 81.7952C441.909 81.031 442.213 80.3942 442.567 79.9357C442.921 79.4517 443.502 79.095 444.286 78.8403C445.07 78.5856 446.157 78.4327 447.548 78.3563C448.939 78.2799 450.785 78.2544 453.086 78.2544C455.741 78.2544 457.84 78.2799 459.433 78.3563C461.001 78.4327 462.24 78.5856 463.099 78.8403C463.984 79.095 464.617 79.4517 464.996 79.9611C465.375 80.4706 465.704 81.1329 465.982 81.999L492.938 159.898ZM452.909 95.4237H452.833L440.493 132.768H465.224L452.884 95.4237H452.909Z" fill="#105388"/>
<path d="M561.161 164.23C561.161 164.688 561.059 165.071 560.832 165.427C560.604 165.758 560.225 166.038 559.643 166.268C559.087 166.497 558.328 166.675 557.418 166.777C556.508 166.879 555.345 166.956 553.954 166.956C552.462 166.956 551.273 166.905 550.338 166.777C549.428 166.675 548.694 166.497 548.138 166.268C547.607 166.038 547.228 165.758 547 165.427C546.772 165.096 546.671 164.688 546.671 164.23V157.225C543.333 160.842 539.97 163.568 536.531 165.376C533.092 167.185 529.527 168.102 525.835 168.102C521.688 168.102 518.224 167.414 515.417 166.064C512.61 164.714 510.334 162.854 508.615 160.485C506.895 158.142 505.656 155.416 504.898 152.308C504.164 149.2 503.785 145.354 503.785 140.718V103.628C503.785 103.17 503.912 102.787 504.164 102.431C504.417 102.1 504.873 101.819 505.505 101.59C506.162 101.361 507.022 101.183 508.134 101.081C509.247 100.979 510.587 100.902 512.206 100.902C513.824 100.902 515.24 100.953 516.327 101.081C517.415 101.183 518.274 101.361 518.932 101.59C519.589 101.819 520.044 102.1 520.323 102.431C520.601 102.762 520.727 103.17 520.727 103.628V137.864C520.727 141.023 520.929 143.469 521.334 145.125C521.739 146.78 522.346 148.232 523.18 149.43C524.014 150.627 525.076 151.569 526.341 152.206C527.63 152.869 529.122 153.2 530.817 153.2C532.966 153.2 535.141 152.41 537.315 150.831C539.49 149.251 541.816 146.933 544.294 143.902V103.628C544.294 103.17 544.421 102.787 544.674 102.431C544.926 102.1 545.382 101.819 546.014 101.59C546.671 101.361 547.531 101.183 548.618 101.081C549.706 100.979 551.071 100.902 552.74 100.902C554.409 100.902 555.774 100.953 556.862 101.081C557.949 101.183 558.784 101.361 559.416 101.59C560.048 101.819 560.503 102.1 560.756 102.431C561.009 102.762 561.161 103.17 561.161 103.628V164.204V164.23Z" fill="#105388"/>
<path d="M635.25 164.229C635.25 164.739 635.149 165.146 634.921 165.477C634.694 165.808 634.315 166.089 633.784 166.318C633.253 166.547 632.519 166.7 631.584 166.802C630.673 166.904 629.535 166.929 628.17 166.929C626.729 166.929 625.565 166.878 624.655 166.802C623.745 166.7 623.037 166.547 622.455 166.318C621.874 166.089 621.494 165.808 621.241 165.477C620.988 165.146 620.862 164.713 620.862 164.229V157.504C617.752 160.867 614.515 163.465 611.127 165.325C607.738 167.184 603.971 168.101 599.824 168.101C595.247 168.101 591.353 167.21 588.192 165.426C585.031 163.643 582.426 161.223 580.429 158.192C578.431 155.161 576.99 151.62 576.079 147.569C575.169 143.519 574.739 139.239 574.739 134.756C574.739 129.381 575.321 124.516 576.459 120.211C577.597 115.906 579.266 112.237 581.491 109.206C583.691 106.175 586.422 103.831 589.709 102.201C592.996 100.57 596.764 99.7552 601.037 99.7552C604.4 99.7552 607.46 100.443 610.216 101.819C612.947 103.194 615.678 105.232 618.384 107.907V75.0967C618.384 74.6382 618.51 74.2306 618.763 73.874C619.016 73.5173 619.471 73.2117 620.103 72.9569C620.761 72.7022 621.621 72.5239 622.708 72.371C623.795 72.2437 625.161 72.1672 626.83 72.1672C628.499 72.1672 629.864 72.2437 630.951 72.371C632.039 72.4984 632.873 72.7022 633.505 72.9569C634.138 73.2117 634.593 73.5173 634.846 73.874C635.124 74.2306 635.25 74.6382 635.25 75.0967V164.204V164.229ZM618.409 123.751C615.982 120.669 613.655 118.326 611.43 116.695C609.205 115.065 606.879 114.25 604.451 114.25C602.251 114.25 600.355 114.81 598.762 115.906C597.168 117.026 595.879 118.504 594.918 120.363C593.957 122.223 593.224 124.286 592.769 126.579C592.288 128.872 592.061 131.215 592.061 133.61C592.061 136.157 592.263 138.603 592.668 141.023C593.072 143.417 593.73 145.557 594.665 147.442C595.575 149.327 596.814 150.83 598.332 151.951C599.849 153.072 601.796 153.658 604.122 153.658C605.286 153.658 606.423 153.479 607.536 153.148C608.649 152.817 609.761 152.257 610.899 151.492C612.037 150.728 613.226 149.709 614.439 148.461C615.653 147.213 616.968 145.684 618.409 143.876V123.777V123.751Z" fill="#105388"/>
<path d="M670.576 83.1458C670.576 86.5847 669.868 88.9538 668.477 90.2784C667.086 91.603 664.507 92.2399 660.714 92.2399C656.921 92.2399 654.316 91.603 653.001 90.3293C651.687 89.0557 651.004 86.7885 651.004 83.4769C651.004 80.1653 651.687 77.6434 653.052 76.3188C654.418 74.9942 657.022 74.3064 660.84 74.3064C664.659 74.3064 667.187 74.9432 668.528 76.2424C669.868 77.5416 670.55 79.8342 670.55 83.1458H670.576ZM669.311 164.229C669.311 164.687 669.185 165.069 668.907 165.426C668.629 165.757 668.174 166.037 667.516 166.266C666.859 166.496 665.999 166.674 664.912 166.776C663.824 166.878 662.459 166.954 660.79 166.954C659.121 166.954 657.755 166.903 656.668 166.776C655.581 166.674 654.721 166.496 654.064 166.266C653.406 166.037 652.951 165.757 652.673 165.426C652.395 165.095 652.268 164.687 652.268 164.229V103.779C652.268 103.321 652.395 102.939 652.673 102.582C652.951 102.251 653.406 101.945 654.064 101.691C654.721 101.436 655.581 101.258 656.668 101.105C657.755 100.952 659.121 100.901 660.79 100.901C662.459 100.901 663.824 100.977 664.912 101.105C665.999 101.232 666.859 101.436 667.516 101.691C668.174 101.945 668.629 102.226 668.907 102.582C669.185 102.913 669.311 103.321 669.311 103.779V164.229Z" fill="#105388"/>
<path d="M340.333 83.1458C340.333 86.5847 339.625 88.9538 338.234 90.2784C336.843 91.603 334.264 92.2399 330.471 92.2399C326.678 92.2399 324.073 91.603 322.758 90.3293C321.443 89.0557 320.761 86.7885 320.761 83.4769C320.761 80.1653 321.443 77.6434 322.809 76.3188C324.174 74.9942 326.779 74.3064 330.597 74.3064C334.416 74.3064 336.944 74.9432 338.284 76.2424C339.625 77.5416 340.307 79.8342 340.307 83.1458H340.333ZM339.043 164.229C339.043 164.687 338.917 165.069 338.638 165.426C338.36 165.757 337.905 166.037 337.248 166.266C336.59 166.496 335.73 166.674 334.643 166.776C333.556 166.878 332.19 166.954 330.521 166.954C328.852 166.954 327.487 166.903 326.4 166.776C325.312 166.674 324.453 166.496 323.795 166.266C323.138 166.037 322.683 165.757 322.404 165.426C322.126 165.095 322 164.687 322 164.229V103.779C322 103.321 322.126 102.939 322.404 102.582C322.683 102.251 323.138 101.945 323.795 101.691C324.453 101.436 325.312 101.258 326.4 101.105C327.487 100.952 328.852 100.901 330.521 100.901C332.19 100.901 333.556 100.977 334.643 101.105C335.73 101.232 336.59 101.436 337.248 101.691C337.905 101.945 338.36 102.226 338.638 102.582C338.917 102.913 339.043 103.321 339.043 103.779V164.229Z" fill="#105388"/>
<path d="M721.806 158.269C721.806 160.256 721.68 161.784 721.427 162.854C721.174 163.924 720.846 164.663 720.441 165.096C720.036 165.529 719.43 165.911 718.646 166.242C717.862 166.573 716.926 166.879 715.889 167.134C714.827 167.389 713.689 167.567 712.45 167.719C711.211 167.847 709.972 167.923 708.708 167.923C705.345 167.923 702.412 167.49 699.933 166.624C697.455 165.758 695.407 164.434 693.789 162.65C692.17 160.867 690.982 158.6 690.223 155.9C689.465 153.2 689.086 149.964 689.086 146.245V115.218H681.879C681.019 115.218 680.362 114.683 679.932 113.613C679.477 112.543 679.249 110.76 679.249 108.289C679.249 106.965 679.3 105.87 679.426 104.953C679.527 104.036 679.704 103.322 679.932 102.813C680.159 102.303 680.438 101.921 680.766 101.692C681.095 101.462 681.5 101.361 681.955 101.361H689.111V87.8343C689.111 87.3757 689.237 86.9681 689.49 86.6115C689.743 86.2549 690.198 85.9492 690.83 85.6945C691.488 85.4397 692.347 85.2614 693.46 85.1595C694.573 85.0576 695.913 84.9812 697.531 84.9812C699.15 84.9812 700.566 85.0321 701.678 85.1595C702.791 85.2614 703.651 85.4652 704.283 85.6945C704.915 85.9492 705.37 86.2549 705.623 86.6115C705.901 86.9681 706.028 87.3757 706.028 87.8343V101.361H719.101C719.556 101.361 719.935 101.462 720.289 101.692C720.618 101.921 720.896 102.303 721.124 102.813C721.351 103.322 721.528 104.036 721.629 104.953C721.731 105.87 721.806 106.965 721.806 108.289C721.806 110.786 721.579 112.569 721.124 113.613C720.669 114.683 720.011 115.218 719.177 115.218H706.028V143.673C706.028 146.984 706.533 149.455 707.57 151.111C708.607 152.767 710.453 153.582 713.108 153.582C714.018 153.582 714.827 153.505 715.535 153.353C716.243 153.2 716.901 153.021 717.457 152.818C718.013 152.614 718.494 152.435 718.873 152.282C719.252 152.13 719.607 152.053 719.91 152.053C720.188 152.053 720.441 152.13 720.694 152.282C720.947 152.435 721.124 152.767 721.275 153.225C721.402 153.709 721.528 154.346 721.655 155.161C721.756 155.976 721.832 157.021 721.832 158.294L721.806 158.269Z" fill="#105388"/>
<path d="M767.401 38.1609V64.0421H792.005V77.2885H767.401V103.424H753.645V77.2885H729.041V64.0421H753.645V38.1609H767.401Z" fill="#8DC63F"/>
<path d="M738.572 21.296C719.253 7.87137 695.863 0 670.652 0C617.929 0 573.071 34.4404 557.014 82.1526H575.321C590.569 44.1714 627.563 17.2966 670.652 17.2966C696.672 17.2966 720.441 27.104 738.572 43.2034V21.296Z" fill="#8DC63F"/>
<path d="M773.113 112.415C773.341 115.217 773.492 118.019 773.492 120.872C773.492 177.984 727.37 224.448 670.677 224.448C637.021 224.448 607.081 208.069 588.318 182.799H567.685C588.672 218.08 626.982 241.745 670.677 241.745C736.852 241.745 790.662 187.511 790.662 120.872C790.662 118.019 790.536 115.217 790.333 112.415H773.113Z" fill="#105388"/>
<path d="M14.5748 217.408C14.5748 217.721 14.5588 217.985 14.5267 218.201C14.5053 218.405 14.4678 218.572 14.4144 218.702C14.3608 218.831 14.2913 218.928 14.2057 218.993C14.1308 219.047 14.0452 219.074 13.9488 219.074H3.51566C3.16254 219.074 2.86291 218.971 2.6168 218.767C2.38138 218.551 2.26367 218.206 2.26367 217.732V199.492C2.26367 199.018 2.38138 198.678 2.6168 198.473C2.86291 198.258 3.16254 198.15 3.51566 198.15H13.8846C13.981 198.15 14.0666 198.177 14.1415 198.231C14.2164 198.285 14.2806 198.382 14.3341 198.522C14.3876 198.651 14.425 198.824 14.4464 199.039C14.4786 199.244 14.4946 199.508 14.4946 199.832C14.4946 200.134 14.4786 200.392 14.4464 200.608C14.425 200.813 14.3876 200.98 14.3341 201.109C14.2806 201.238 14.2164 201.335 14.1415 201.4C14.0666 201.454 13.981 201.481 13.8846 201.481H6.46907V206.591H12.745C12.8413 206.591 12.9269 206.623 13.0018 206.688C13.0875 206.742 13.157 206.833 13.2105 206.963C13.264 207.081 13.3015 207.248 13.3229 207.464C13.355 207.669 13.371 207.922 13.371 208.224C13.371 208.536 13.355 208.795 13.3229 209C13.3015 209.205 13.264 209.372 13.2105 209.501C13.157 209.62 13.0875 209.706 13.0018 209.76C12.9269 209.814 12.8413 209.841 12.745 209.841H6.46907V215.743H13.9488C14.0452 215.743 14.1308 215.775 14.2057 215.84C14.2913 215.894 14.3608 215.985 14.4144 216.115C14.4678 216.244 14.5053 216.417 14.5267 216.632C14.5588 216.837 14.5748 217.096 14.5748 217.408ZM31.7496 218.524C31.7496 218.632 31.7175 218.729 31.6533 218.815C31.589 218.891 31.4821 218.955 31.3321 219.009C31.1824 219.063 30.9738 219.101 30.7063 219.122C30.4494 219.154 30.1285 219.171 29.7431 219.171C29.3471 219.171 29.0154 219.154 28.7481 219.122C28.4912 219.101 28.2879 219.063 28.1379 219.009C27.9882 218.955 27.8812 218.891 27.817 218.815C27.7528 218.729 27.7207 218.632 27.7207 218.524V210.293C27.7207 209.593 27.6671 209.043 27.5601 208.644C27.4638 208.245 27.3194 207.906 27.1267 207.626C26.9343 207.334 26.6827 207.114 26.3724 206.963C26.0727 206.801 25.7197 206.72 25.3131 206.72C24.7994 206.72 24.2804 206.909 23.7561 207.286C23.2317 207.663 22.686 208.213 22.1189 208.935V218.524C22.1189 218.632 22.0868 218.729 22.0225 218.815C21.9583 218.891 21.846 218.955 21.6855 219.009C21.5357 219.063 21.3324 219.101 21.0755 219.122C20.8187 219.154 20.4923 219.171 20.0964 219.171C19.7005 219.171 19.3741 219.154 19.1173 219.122C18.8605 219.101 18.6518 219.063 18.4913 219.009C18.3415 218.955 18.2345 218.891 18.1703 218.815C18.1061 218.729 18.074 218.632 18.074 218.524V204.101C18.074 203.993 18.1007 203.901 18.1542 203.826C18.2077 203.739 18.304 203.669 18.4432 203.615C18.5823 203.562 18.7588 203.524 18.9728 203.502C19.1976 203.47 19.4758 203.454 19.8075 203.454C20.1499 203.454 20.4335 203.47 20.6582 203.502C20.8829 203.524 21.0541 203.562 21.1718 203.615C21.3003 203.669 21.3912 203.739 21.4447 203.826C21.4982 203.901 21.525 203.993 21.525 204.101V205.766C22.3168 204.904 23.1194 204.257 23.9326 203.826C24.7566 203.394 25.6125 203.179 26.5009 203.179C27.4746 203.179 28.2932 203.34 28.9567 203.664C29.6308 203.987 30.1712 204.429 30.5778 204.99C30.995 205.54 31.2947 206.186 31.4768 206.93C31.6586 207.674 31.7496 208.569 31.7496 209.614V218.524ZM48.9564 210.892C48.9564 211.388 48.8439 211.754 48.6193 211.991C48.4051 212.228 48.1055 212.347 47.7204 212.347H39.0046C39.0046 212.962 39.0741 213.522 39.2132 214.029C39.3631 214.525 39.5933 214.95 39.9035 215.306C40.2244 215.651 40.631 215.915 41.1233 216.098C41.6263 216.282 42.2256 216.373 42.921 216.373C43.6272 216.373 44.248 216.325 44.7831 216.228C45.3179 216.12 45.7781 216.007 46.1635 215.888C46.5592 215.759 46.8857 215.646 47.1426 215.549C47.3992 215.441 47.6078 215.387 47.7684 215.387C47.8648 215.387 47.9449 215.409 48.0091 215.452C48.0734 215.484 48.127 215.549 48.1697 215.646C48.2125 215.743 48.2393 215.883 48.2501 216.066C48.2714 216.239 48.2822 216.46 48.2822 216.729C48.2822 216.966 48.2767 217.171 48.2661 217.344C48.2554 217.505 48.2393 217.645 48.218 217.764C48.1965 217.883 48.1644 217.985 48.1217 218.071C48.0787 218.147 48.02 218.222 47.9449 218.298C47.8809 218.373 47.6936 218.475 47.3833 218.605C47.073 218.734 46.6771 218.864 46.1956 218.993C45.7139 219.111 45.1629 219.214 44.5421 219.3C43.9216 219.397 43.258 219.446 42.5518 219.446C41.2786 219.446 40.1602 219.284 39.1973 218.961C38.2447 218.637 37.4477 218.147 36.8057 217.489C36.1636 216.832 35.6819 216.001 35.361 214.999C35.0508 213.996 34.8955 212.821 34.8955 211.474C34.8955 210.191 35.0614 209.038 35.3931 208.014C35.7249 206.979 36.2064 206.106 36.8378 205.394C37.4689 204.672 38.2341 204.122 39.133 203.745C40.0426 203.367 41.0644 203.179 42.1988 203.179C43.3971 203.179 44.4192 203.357 45.2645 203.712C46.1205 204.068 46.8214 204.564 47.3671 205.2C47.9131 205.825 48.3141 206.569 48.571 207.432C48.8279 208.294 48.9564 209.232 48.9564 210.245V210.892ZM45.0397 209.728C45.0719 208.585 44.8417 207.69 44.3497 207.043C43.868 206.386 43.119 206.057 42.1024 206.057C41.5889 206.057 41.1393 206.154 40.7542 206.348C40.3797 206.542 40.0641 206.806 39.8072 207.14C39.5611 207.464 39.3685 207.852 39.2294 208.305C39.1009 208.747 39.0261 209.221 39.0046 209.728H45.0397ZM61.4922 205.443C61.4922 205.831 61.4814 206.149 61.4601 206.397C61.4386 206.645 61.4065 206.838 61.3638 206.979C61.321 207.119 61.2621 207.216 61.1873 207.27C61.123 207.324 61.0373 207.351 60.9304 207.351C60.8446 207.351 60.7486 207.334 60.6413 207.302C60.5344 207.259 60.4115 207.216 60.2721 207.173C60.1439 207.13 59.9993 207.092 59.839 207.06C59.6784 207.017 59.5019 206.995 59.3092 206.995C59.0844 206.995 58.8599 207.043 58.6351 207.14C58.4103 207.227 58.1749 207.367 57.9288 207.561C57.6934 207.755 57.4418 208.014 57.1745 208.337C56.9176 208.66 56.6395 209.059 56.3398 209.534V218.524C56.3398 218.632 56.3077 218.729 56.2435 218.815C56.1793 218.891 56.067 218.955 55.9064 219.009C55.7565 219.063 55.5532 219.101 55.2965 219.122C55.0396 219.154 54.7131 219.171 54.3174 219.171C53.9214 219.171 53.595 219.154 53.3383 219.122C53.0814 219.101 52.8728 219.063 52.7122 219.009C52.5625 218.955 52.4553 218.891 52.3913 218.815C52.3271 218.729 52.295 218.632 52.295 218.524V204.101C52.295 203.993 52.3215 203.901 52.3751 203.826C52.4287 203.739 52.5248 203.669 52.6642 203.615C52.8032 203.562 52.9797 203.524 53.1937 203.502C53.4185 203.47 53.6966 203.454 54.0284 203.454C54.3708 203.454 54.6545 203.47 54.879 203.502C55.1038 203.524 55.275 203.562 55.3928 203.615C55.521 203.669 55.6121 203.739 55.6657 203.826C55.719 203.901 55.7458 203.993 55.7458 204.101V205.895C56.1203 205.356 56.4736 204.914 56.8054 204.57C57.1369 204.214 57.4527 203.933 57.7523 203.729C58.052 203.524 58.3514 203.384 58.651 203.308C58.9507 203.222 59.2503 203.179 59.55 203.179C59.689 203.179 59.839 203.19 59.9993 203.211C60.1599 203.222 60.3258 203.249 60.4969 203.292C60.6681 203.324 60.8181 203.367 60.9465 203.421C61.0747 203.464 61.1658 203.513 61.2194 203.567C61.2836 203.621 61.3264 203.68 61.3476 203.745C61.3797 203.809 61.4065 203.901 61.428 204.02C61.4492 204.127 61.4654 204.294 61.476 204.521C61.4869 204.747 61.4922 205.055 61.4922 205.443ZM76.4998 205.103C76.4998 205.621 76.4412 206.003 76.3233 206.251C76.2058 206.499 76.0611 206.623 75.8899 206.623H74.2046C74.44 206.882 74.6059 207.178 74.7022 207.512C74.8092 207.836 74.8628 208.175 74.8628 208.531C74.8628 209.372 74.7237 210.121 74.4453 210.779C74.1671 211.426 73.7659 211.975 73.2417 212.428C72.7278 212.87 72.102 213.209 71.3636 213.447C70.6359 213.673 69.8227 213.786 68.9237 213.786C68.4638 213.786 68.025 213.732 67.6075 213.624C67.1903 213.506 66.8692 213.371 66.6446 213.22C66.5162 213.361 66.3983 213.528 66.2914 213.721C66.195 213.916 66.147 214.131 66.147 214.368C66.147 214.681 66.2808 214.94 66.5483 215.144C66.8264 215.339 67.2118 215.446 67.7039 215.468L71.1871 215.597C72.0003 215.629 72.7225 215.748 73.3539 215.953C73.996 216.147 74.531 216.427 74.9591 216.794C75.3979 217.149 75.7294 217.581 75.9542 218.087C76.1896 218.594 76.3074 219.171 76.3074 219.818C76.3074 220.529 76.1522 221.197 75.8419 221.823C75.5316 222.459 75.0661 223.008 74.4453 223.472C73.8248 223.935 73.0437 224.302 72.102 224.571C71.1709 224.841 70.0796 224.976 68.8276 224.976C67.6075 224.976 66.5642 224.879 65.6977 224.685C64.8414 224.491 64.1352 224.221 63.5789 223.876C63.0329 223.531 62.6319 223.116 62.375 222.631C62.1289 222.157 62.0058 221.634 62.0058 221.063C62.0058 220.707 62.0485 220.367 62.1343 220.044C62.2306 219.721 62.3644 219.408 62.5356 219.106C62.7174 218.815 62.9369 218.535 63.1935 218.265C63.4504 217.996 63.7448 217.737 64.0763 217.489C63.6163 217.241 63.2577 216.907 63.0011 216.487C62.7548 216.055 62.6319 215.586 62.6319 215.08C62.6319 214.444 62.7763 213.867 63.0651 213.35C63.3541 212.821 63.7286 212.347 64.1888 211.927C63.8143 211.549 63.5147 211.097 63.2899 210.568C63.0651 210.04 62.9528 209.383 62.9528 208.596C62.9528 207.755 63.0972 207.006 63.3862 206.348C63.6858 205.68 64.0978 205.119 64.6222 204.666C65.1464 204.203 65.7725 203.852 66.5 203.615C67.2277 203.367 68.0303 203.243 68.9078 203.243C69.3571 203.243 69.7852 203.27 70.1918 203.324C70.6091 203.378 70.9944 203.454 71.3474 203.551H75.8899C76.072 203.551 76.2164 203.669 76.3233 203.906C76.4412 204.144 76.4998 204.543 76.4998 205.103ZM71.3153 208.515C71.3153 207.739 71.1014 207.135 70.6733 206.704C70.2454 206.273 69.6408 206.057 68.8595 206.057C68.4638 206.057 68.1158 206.127 67.8162 206.267C67.5168 206.397 67.2652 206.58 67.0619 206.817C66.8692 207.043 66.7248 207.313 66.6284 207.626C66.5321 207.927 66.4841 208.245 66.4841 208.58C66.4841 209.312 66.698 209.895 67.1261 210.326C67.5542 210.746 68.1479 210.957 68.9078 210.957C69.3144 210.957 69.6674 210.892 69.967 210.762C70.2667 210.633 70.513 210.455 70.7054 210.229C70.9087 210.003 71.0587 209.744 71.155 209.453C71.262 209.151 71.3153 208.838 71.3153 208.515ZM72.2623 220.028C72.2623 219.543 72.0699 219.171 71.6845 218.912C71.2994 218.653 70.7696 218.513 70.0955 218.492L67.2224 218.411C66.9443 218.615 66.7195 218.815 66.5483 219.009C66.3877 219.192 66.254 219.37 66.147 219.543C66.0507 219.715 65.9864 219.882 65.9543 220.044C65.9222 220.206 65.9063 220.373 65.9063 220.545C65.9063 221.084 66.1738 221.494 66.7089 221.774C67.2545 222.054 68.0197 222.195 69.0041 222.195C69.614 222.195 70.1276 222.13 70.5448 222C70.9623 221.882 71.2994 221.72 71.5563 221.515C71.813 221.311 71.995 221.079 72.102 220.82C72.209 220.572 72.2623 220.308 72.2623 220.028ZM83.2413 218.524C83.2413 218.632 83.2091 218.729 83.1452 218.815C83.0809 218.891 82.9684 218.955 82.8081 219.009C82.6581 219.063 82.4548 219.101 82.1979 219.122C81.9413 219.154 81.6148 219.171 81.2188 219.171C80.8231 219.171 80.4966 219.154 80.2397 219.122C79.9831 219.101 79.7745 219.063 79.6139 219.009C79.4639 218.955 79.357 218.891 79.2928 218.815C79.2285 218.729 79.1964 218.632 79.1964 218.524V204.133C79.1964 204.025 79.2285 203.933 79.2928 203.858C79.357 203.772 79.4639 203.702 79.6139 203.648C79.7745 203.583 79.9831 203.535 80.2397 203.502C80.4966 203.47 80.8231 203.454 81.2188 203.454C81.6148 203.454 81.9413 203.47 82.1979 203.502C82.4548 203.535 82.6581 203.583 82.8081 203.648C82.9684 203.702 83.0809 203.772 83.1452 203.858C83.2091 203.933 83.2413 204.025 83.2413 204.133V218.524ZM83.5465 199.217C83.5465 200.036 83.3806 200.603 83.0488 200.915C82.7171 201.228 82.1018 201.384 81.2029 201.384C80.2933 201.384 79.6781 201.233 79.357 200.931C79.0467 200.629 78.8914 200.085 78.8914 199.298C78.8914 198.479 79.052 197.913 79.3732 197.6C79.7047 197.277 80.3255 197.115 81.235 197.115C82.134 197.115 82.7439 197.271 83.0648 197.584C83.3859 197.886 83.5465 198.43 83.5465 199.217ZM100.512 210.892C100.512 211.388 100.4 211.754 100.175 211.991C99.9613 212.228 99.6616 212.347 99.2765 212.347H90.5607C90.5607 212.962 90.6303 213.522 90.7693 214.029C90.919 214.525 91.1491 214.95 91.4594 215.306C91.7805 215.651 92.1872 215.915 92.6795 216.098C93.1824 216.282 93.7815 216.373 94.4771 216.373C95.1834 216.373 95.8039 216.325 96.339 216.228C96.874 216.12 97.3343 216.007 97.7194 215.888C98.1154 215.759 98.4418 215.646 98.6985 215.549C98.9554 215.441 99.164 215.387 99.3246 215.387C99.4209 215.387 99.5011 215.409 99.5653 215.452C99.6295 215.484 99.6831 215.549 99.7259 215.646C99.7686 215.743 99.7954 215.883 99.806 216.066C99.8275 216.239 99.8381 216.46 99.8381 216.729C99.8381 216.966 99.8328 217.171 99.8222 217.344C99.8113 217.505 99.7954 217.645 99.7739 217.764C99.7527 217.883 99.7206 217.985 99.6776 218.071C99.6348 218.147 99.5759 218.222 99.5011 218.298C99.4368 218.373 99.2497 218.475 98.9394 218.605C98.6289 218.734 98.2332 218.864 97.7515 218.993C97.27 219.111 96.719 219.214 96.0982 219.3C95.4777 219.397 94.8142 219.446 94.1079 219.446C92.8345 219.446 91.7163 219.284 90.7532 218.961C89.8009 218.637 89.0038 218.147 88.3615 217.489C87.7195 216.832 87.2381 216.001 86.9172 214.999C86.6067 213.996 86.4516 212.821 86.4516 211.474C86.4516 210.191 86.6175 209.038 86.9493 208.014C87.2808 206.979 87.7625 206.106 88.3937 205.394C89.0251 204.672 89.7902 204.122 90.6892 203.745C91.5987 203.367 92.6206 203.179 93.7549 203.179C94.9533 203.179 95.9753 203.357 96.8207 203.712C97.6766 204.068 98.3776 204.564 98.9233 205.2C99.4689 205.825 99.8702 206.569 100.127 207.432C100.384 208.294 100.512 209.232 100.512 210.245V210.892ZM96.5959 209.728C96.628 208.585 96.3979 207.69 95.9056 207.043C95.4241 206.386 94.6751 206.057 93.6586 206.057C93.1448 206.057 92.6954 206.154 92.3103 206.348C91.9358 206.542 91.62 206.806 91.3633 207.14C91.117 207.464 90.9246 207.852 90.7853 208.305C90.6571 208.747 90.582 209.221 90.5607 209.728H96.5959ZM118.265 211.118C118.265 212.401 118.126 213.554 117.848 214.579C117.569 215.603 117.168 216.476 116.644 217.198C116.119 217.92 115.472 218.475 114.702 218.864C113.942 219.252 113.075 219.446 112.101 219.446C111.62 219.446 111.17 219.397 110.753 219.3C110.336 219.214 109.934 219.068 109.549 218.864C109.174 218.659 108.8 218.4 108.425 218.087C108.062 217.775 107.687 217.398 107.302 216.956V218.524C107.302 218.642 107.27 218.745 107.206 218.831C107.152 218.907 107.056 218.971 106.917 219.025C106.788 219.079 106.612 219.117 106.387 219.138C106.162 219.16 105.889 219.171 105.568 219.171C105.237 219.171 104.958 219.16 104.734 219.138C104.52 219.117 104.343 219.079 104.204 219.025C104.076 218.971 103.985 218.907 103.931 218.831C103.878 218.745 103.851 218.642 103.851 218.524V197.261C103.851 197.153 103.883 197.056 103.947 196.97C104.011 196.883 104.118 196.813 104.268 196.759C104.429 196.695 104.638 196.646 104.894 196.614C105.151 196.581 105.478 196.565 105.873 196.565C106.269 196.565 106.596 196.581 106.852 196.614C107.109 196.646 107.313 196.695 107.463 196.759C107.623 196.813 107.735 196.883 107.8 196.97C107.864 197.056 107.896 197.153 107.896 197.261V205.232C108.26 204.866 108.623 204.553 108.987 204.294C109.351 204.036 109.715 203.826 110.079 203.664C110.443 203.491 110.817 203.367 111.202 203.292C111.588 203.217 111.994 203.179 112.422 203.179C113.482 203.179 114.38 203.394 115.119 203.826C115.857 204.246 116.457 204.817 116.916 205.54C117.387 206.262 117.73 207.108 117.944 208.078C118.158 209.038 118.265 210.051 118.265 211.118ZM114.076 211.409C114.076 210.795 114.027 210.202 113.931 209.631C113.845 209.059 113.69 208.553 113.466 208.111C113.241 207.669 112.946 207.318 112.583 207.06C112.23 206.79 111.78 206.655 111.235 206.655C110.967 206.655 110.705 206.693 110.448 206.768C110.191 206.844 109.924 206.973 109.645 207.157C109.378 207.34 109.1 207.577 108.811 207.868C108.522 208.159 108.217 208.52 107.896 208.952V213.738C108.463 214.471 109.003 215.031 109.517 215.419C110.041 215.797 110.587 215.985 111.154 215.985C111.679 215.985 112.123 215.851 112.487 215.581C112.85 215.312 113.15 214.961 113.385 214.53C113.631 214.099 113.808 213.608 113.915 213.059C114.022 212.509 114.076 211.959 114.076 211.409ZM134.733 210.892C134.733 211.388 134.621 211.754 134.396 211.991C134.182 212.228 133.883 212.347 133.497 212.347H124.782C124.782 212.962 124.851 213.522 124.99 214.029C125.14 214.525 125.37 214.95 125.68 215.306C126.001 215.651 126.408 215.915 126.9 216.098C127.403 216.282 128.002 216.373 128.698 216.373C129.404 216.373 130.025 216.325 130.56 216.228C131.095 216.12 131.555 216.007 131.94 215.888C132.336 215.759 132.663 215.646 132.919 215.549C133.176 215.441 133.385 215.387 133.545 215.387C133.642 215.387 133.722 215.409 133.786 215.452C133.85 215.484 133.904 215.549 133.947 215.646C133.989 215.743 134.016 215.883 134.027 216.066C134.048 216.239 134.059 216.46 134.059 216.729C134.059 216.966 134.054 217.171 134.043 217.344C134.032 217.505 134.016 217.645 133.995 217.764C133.974 217.883 133.941 217.985 133.898 218.071C133.856 218.147 133.797 218.222 133.722 218.298C133.658 218.373 133.471 218.475 133.16 218.605C132.85 218.734 132.454 218.864 131.972 218.993C131.491 219.111 130.94 219.214 130.319 219.3C129.699 219.397 129.035 219.446 128.329 219.446C127.055 219.446 125.937 219.284 124.974 218.961C124.022 218.637 123.225 218.147 122.583 217.489C121.94 216.832 121.459 216.001 121.138 214.999C120.828 213.996 120.673 212.821 120.673 211.474C120.673 210.191 120.838 209.038 121.17 208.014C121.502 206.979 121.983 206.106 122.615 205.394C123.246 204.672 124.011 204.122 124.91 203.745C125.82 203.367 126.841 203.179 127.976 203.179C129.174 203.179 130.196 203.357 131.042 203.712C131.898 204.068 132.598 204.564 133.144 205.2C133.69 205.825 134.091 206.569 134.348 207.432C134.605 208.294 134.733 209.232 134.733 210.245V210.892ZM130.817 209.728C130.849 208.585 130.619 207.69 130.126 207.043C129.645 206.386 128.896 206.057 127.879 206.057C127.366 206.057 126.916 206.154 126.531 206.348C126.157 206.542 125.841 206.806 125.584 207.14C125.338 207.464 125.145 207.852 125.006 208.305C124.878 208.747 124.803 209.221 124.782 209.728H130.817ZM147.269 205.443C147.269 205.831 147.258 206.149 147.237 206.397C147.216 206.645 147.184 206.838 147.141 206.979C147.098 207.119 147.039 207.216 146.964 207.27C146.9 207.324 146.814 207.351 146.707 207.351C146.622 207.351 146.525 207.334 146.418 207.302C146.311 207.259 146.188 207.216 146.049 207.173C145.921 207.13 145.776 207.092 145.616 207.06C145.455 207.017 145.279 206.995 145.086 206.995C144.861 206.995 144.637 207.043 144.412 207.14C144.187 207.227 143.952 207.367 143.706 207.561C143.47 207.755 143.219 208.014 142.951 208.337C142.695 208.66 142.416 209.059 142.117 209.534V218.524C142.117 218.632 142.085 218.729 142.021 218.815C141.956 218.891 141.844 218.955 141.683 219.009C141.533 219.063 141.33 219.101 141.074 219.122C140.817 219.154 140.49 219.171 140.094 219.171C139.698 219.171 139.372 219.154 139.115 219.122C138.858 219.101 138.65 219.063 138.489 219.009C138.339 218.955 138.232 218.891 138.168 218.815C138.104 218.729 138.072 218.632 138.072 218.524V204.101C138.072 203.993 138.099 203.901 138.152 203.826C138.206 203.739 138.302 203.669 138.441 203.615C138.58 203.562 138.757 203.524 138.971 203.502C139.195 203.47 139.474 203.454 139.805 203.454C140.148 203.454 140.431 203.47 140.656 203.502C140.881 203.524 141.052 203.562 141.17 203.615C141.298 203.669 141.389 203.739 141.442 203.826C141.496 203.901 141.523 203.993 141.523 204.101V205.895C141.897 205.356 142.25 204.914 142.582 204.57C142.914 204.214 143.23 203.933 143.529 203.729C143.829 203.524 144.128 203.384 144.428 203.308C144.728 203.222 145.027 203.179 145.327 203.179C145.466 203.179 145.616 203.19 145.776 203.211C145.937 203.222 146.103 203.249 146.274 203.292C146.445 203.324 146.595 203.367 146.723 203.421C146.852 203.464 146.943 203.513 146.996 203.567C147.06 203.621 147.103 203.68 147.125 203.745C147.157 203.809 147.184 203.901 147.205 204.02C147.226 204.127 147.242 204.294 147.253 204.521C147.264 204.747 147.269 205.055 147.269 205.443ZM161.218 218.572C161.218 218.723 161.164 218.842 161.057 218.928C160.95 219.014 160.779 219.074 160.543 219.106C160.319 219.149 159.982 219.171 159.532 219.171C159.051 219.171 158.698 219.149 158.473 219.106C158.259 219.074 158.104 219.014 158.007 218.928C157.922 218.842 157.879 218.723 157.879 218.572V217.424C157.29 218.06 156.616 218.556 155.856 218.912C155.107 219.268 154.273 219.446 153.352 219.446C152.593 219.446 151.892 219.343 151.25 219.138C150.618 218.944 150.067 218.653 149.597 218.265C149.136 217.866 148.778 217.376 148.521 216.794C148.264 216.212 148.136 215.533 148.136 214.756C148.136 213.916 148.296 213.188 148.617 212.573C148.949 211.948 149.436 211.436 150.078 211.037C150.731 210.628 151.539 210.326 152.502 210.132C153.465 209.938 154.583 209.841 155.856 209.841H157.253V208.968C157.253 208.515 157.205 208.121 157.109 207.787C157.023 207.442 156.873 207.157 156.659 206.93C156.456 206.704 156.177 206.537 155.824 206.429C155.482 206.321 155.054 206.267 154.54 206.267C153.866 206.267 153.261 206.343 152.726 206.494C152.202 206.645 151.737 206.812 151.33 206.995C150.923 207.178 150.581 207.345 150.303 207.496C150.035 207.647 149.816 207.722 149.645 207.722C149.527 207.722 149.42 207.685 149.324 207.609C149.238 207.534 149.163 207.426 149.099 207.286C149.045 207.146 149.003 206.973 148.971 206.768C148.938 206.564 148.923 206.337 148.923 206.089C148.923 205.755 148.949 205.491 149.003 205.297C149.056 205.103 149.158 204.931 149.308 204.78C149.457 204.618 149.72 204.445 150.094 204.262C150.469 204.068 150.907 203.89 151.41 203.729C151.913 203.567 152.459 203.437 153.048 203.34C153.647 203.233 154.262 203.179 154.893 203.179C156.017 203.179 156.975 203.292 157.767 203.518C158.569 203.734 159.227 204.074 159.741 204.537C160.254 204.99 160.629 205.577 160.864 206.3C161.1 207.022 161.218 207.879 161.218 208.871V218.572ZM157.253 212.396H155.712C155.059 212.396 154.503 212.444 154.043 212.541C153.583 212.638 153.208 212.784 152.919 212.978C152.63 213.172 152.416 213.409 152.277 213.689C152.149 213.959 152.084 214.271 152.084 214.627C152.084 215.231 152.272 215.705 152.646 216.05C153.032 216.395 153.561 216.567 154.235 216.567C154.802 216.567 155.322 216.422 155.792 216.131C156.274 215.84 156.761 215.414 157.253 214.854V212.396ZM173.416 217.101C173.416 217.575 173.384 217.942 173.32 218.201C173.266 218.449 173.192 218.626 173.095 218.734C172.999 218.831 172.855 218.923 172.662 219.009C172.48 219.084 172.261 219.149 172.004 219.203C171.758 219.268 171.485 219.316 171.185 219.349C170.896 219.381 170.602 219.397 170.302 219.397C169.5 219.397 168.804 219.295 168.216 219.09C167.627 218.885 167.14 218.572 166.755 218.152C166.37 217.721 166.086 217.182 165.904 216.535C165.722 215.888 165.632 215.123 165.632 214.239V206.849H163.914C163.711 206.849 163.556 206.725 163.449 206.478C163.342 206.219 163.288 205.793 163.288 205.2C163.288 204.887 163.299 204.623 163.32 204.408C163.352 204.192 163.395 204.025 163.449 203.906C163.502 203.777 163.566 203.685 163.641 203.632C163.727 203.578 163.823 203.551 163.93 203.551H165.632V200.333C165.632 200.225 165.658 200.128 165.712 200.042C165.776 199.956 165.883 199.885 166.033 199.832C166.193 199.767 166.402 199.724 166.659 199.702C166.926 199.67 167.253 199.654 167.638 199.654C168.034 199.654 168.36 199.67 168.617 199.702C168.885 199.724 169.093 199.767 169.243 199.832C169.393 199.885 169.5 199.956 169.564 200.042C169.628 200.128 169.66 200.225 169.66 200.333V203.551H172.774C172.881 203.551 172.972 203.578 173.047 203.632C173.133 203.685 173.202 203.777 173.256 203.906C173.309 204.025 173.347 204.192 173.368 204.408C173.4 204.623 173.416 204.887 173.416 205.2C173.416 205.793 173.363 206.219 173.256 206.478C173.149 206.725 172.994 206.849 172.79 206.849H169.66V213.624C169.66 214.412 169.783 215.004 170.029 215.403C170.276 215.791 170.715 215.985 171.346 215.985C171.56 215.985 171.752 215.969 171.923 215.937C172.095 215.894 172.245 215.851 172.373 215.807C172.512 215.753 172.624 215.71 172.71 215.678C172.806 215.635 172.892 215.613 172.967 215.613C173.031 215.613 173.09 215.635 173.144 215.678C173.208 215.71 173.256 215.786 173.288 215.905C173.32 216.012 173.347 216.163 173.368 216.357C173.4 216.551 173.416 216.799 173.416 217.101ZM189.917 218.524C189.917 218.632 189.89 218.729 189.837 218.815C189.783 218.891 189.687 218.955 189.548 219.009C189.419 219.063 189.243 219.101 189.018 219.122C188.804 219.154 188.531 219.171 188.199 219.171C187.846 219.171 187.557 219.154 187.333 219.122C187.119 219.101 186.948 219.063 186.819 219.009C186.691 218.955 186.6 218.891 186.546 218.815C186.493 218.729 186.466 218.632 186.466 218.524V216.859C185.674 217.721 184.866 218.368 184.042 218.799C183.229 219.23 182.384 219.446 181.506 219.446C180.522 219.446 179.692 219.284 179.018 218.961C178.355 218.637 177.814 218.195 177.397 217.635C176.99 217.074 176.696 216.427 176.514 215.694C176.343 214.95 176.257 214.029 176.257 212.929V204.101C176.257 203.993 176.284 203.901 176.338 203.826C176.402 203.739 176.509 203.669 176.659 203.615C176.819 203.562 177.028 203.524 177.285 203.502C177.552 203.47 177.878 203.454 178.264 203.454C178.66 203.454 178.986 203.47 179.243 203.502C179.5 203.524 179.703 203.562 179.853 203.615C180.013 203.669 180.126 203.739 180.19 203.826C180.254 203.901 180.286 203.993 180.286 204.101V212.25C180.286 213.005 180.334 213.581 180.431 213.98C180.527 214.379 180.671 214.724 180.864 215.015C181.067 215.295 181.319 215.516 181.618 215.678C181.929 215.829 182.287 215.905 182.694 215.905C183.207 215.905 183.721 215.716 184.235 215.339C184.759 214.961 185.316 214.412 185.904 213.689V204.101C185.904 203.993 185.931 203.901 185.984 203.826C186.049 203.739 186.156 203.669 186.305 203.615C186.466 203.562 186.674 203.524 186.931 203.502C187.188 203.47 187.514 203.454 187.91 203.454C188.306 203.454 188.633 203.47 188.89 203.502C189.146 203.524 189.35 203.562 189.499 203.615C189.649 203.669 189.756 203.739 189.821 203.826C189.885 203.901 189.917 203.993 189.917 204.101V218.524ZM207.669 218.524C207.669 218.632 207.637 218.729 207.573 218.815C207.509 218.891 207.402 218.955 207.252 219.009C207.102 219.063 206.894 219.101 206.626 219.122C206.369 219.154 206.048 219.171 205.663 219.171C205.267 219.171 204.935 219.154 204.668 219.122C204.411 219.101 204.208 219.063 204.058 219.009C203.908 218.955 203.801 218.891 203.737 218.815C203.673 218.729 203.64 218.632 203.64 218.524V210.293C203.64 209.593 203.587 209.043 203.48 208.644C203.384 208.245 203.239 207.906 203.047 207.626C202.854 207.334 202.602 207.114 202.292 206.963C201.993 206.801 201.64 206.72 201.233 206.72C200.719 206.72 200.2 206.909 199.676 207.286C199.152 207.663 198.606 208.213 198.039 208.935V218.524C198.039 218.632 198.007 218.729 197.942 218.815C197.878 218.891 197.766 218.955 197.605 219.009C197.456 219.063 197.252 219.101 196.995 219.122C196.738 219.154 196.412 219.171 196.016 219.171C195.62 219.171 195.294 219.154 195.037 219.122C194.78 219.101 194.572 219.063 194.411 219.009C194.261 218.955 194.154 218.891 194.09 218.815C194.026 218.729 193.994 218.632 193.994 218.524V204.101C193.994 203.993 194.021 203.901 194.074 203.826C194.128 203.739 194.224 203.669 194.363 203.615C194.502 203.562 194.679 203.524 194.893 203.502C195.117 203.47 195.396 203.454 195.727 203.454C196.07 203.454 196.353 203.47 196.578 203.502C196.803 203.524 196.974 203.562 197.092 203.615C197.22 203.669 197.311 203.739 197.365 203.826C197.418 203.901 197.445 203.993 197.445 204.101V205.766C198.237 204.904 199.039 204.257 199.853 203.826C200.676 203.394 201.533 203.179 202.421 203.179C203.394 203.179 204.213 203.34 204.876 203.664C205.551 203.987 206.091 204.429 206.498 204.99C206.915 205.54 207.214 206.186 207.397 206.93C207.578 207.674 207.669 208.569 207.669 209.614V218.524ZM224.555 205.103C224.555 205.621 224.496 206.003 224.379 206.251C224.261 206.499 224.116 206.623 223.945 206.623H222.26C222.495 206.882 222.661 207.178 222.757 207.512C222.864 207.836 222.918 208.175 222.918 208.531C222.918 209.372 222.779 210.121 222.501 210.779C222.222 211.426 221.821 211.975 221.297 212.428C220.783 212.87 220.157 213.209 219.419 213.447C218.691 213.673 217.878 213.786 216.979 213.786C216.519 213.786 216.08 213.732 215.663 213.624C215.246 213.506 214.924 213.371 214.7 213.22C214.571 213.361 214.454 213.528 214.347 213.721C214.25 213.916 214.202 214.131 214.202 214.368C214.202 214.681 214.336 214.94 214.604 215.144C214.882 215.339 215.267 215.446 215.759 215.468L219.242 215.597C220.056 215.629 220.778 215.748 221.409 215.953C222.051 216.147 222.586 216.427 223.014 216.794C223.453 217.149 223.785 217.581 224.009 218.087C224.245 218.594 224.362 219.171 224.362 219.818C224.362 220.529 224.207 221.197 223.897 221.823C223.587 222.459 223.121 223.008 222.501 223.472C221.88 223.935 221.099 224.302 220.157 224.571C219.226 224.841 218.135 224.976 216.883 224.976C215.663 224.976 214.619 224.879 213.753 224.685C212.897 224.491 212.19 224.221 211.634 223.876C211.088 223.531 210.687 223.116 210.43 222.631C210.184 222.157 210.061 221.634 210.061 221.063C210.061 220.707 210.104 220.367 210.189 220.044C210.286 219.721 210.419 219.408 210.59 219.106C210.773 218.815 210.992 218.535 211.249 218.265C211.506 217.996 211.8 217.737 212.131 217.489C211.672 217.241 211.313 216.907 211.056 216.487C210.81 216.055 210.687 215.586 210.687 215.08C210.687 214.444 210.831 213.867 211.12 213.35C211.409 212.821 211.784 212.347 212.244 211.927C211.869 211.549 211.57 211.097 211.345 210.568C211.12 210.04 211.008 209.383 211.008 208.596C211.008 207.755 211.152 207.006 211.441 206.348C211.741 205.68 212.153 205.119 212.677 204.666C213.202 204.203 213.828 203.852 214.555 203.615C215.283 203.367 216.086 203.243 216.963 203.243C217.412 203.243 217.84 203.27 218.247 203.324C218.664 203.378 219.05 203.454 219.403 203.551H223.945C224.127 203.551 224.272 203.669 224.379 203.906C224.496 204.144 224.555 204.543 224.555 205.103ZM219.371 208.515C219.371 207.739 219.157 207.135 218.729 206.704C218.3 206.273 217.696 206.057 216.915 206.057C216.519 206.057 216.171 206.127 215.871 206.267C215.572 206.397 215.32 206.58 215.117 206.817C214.924 207.043 214.78 207.313 214.684 207.626C214.587 207.927 214.539 208.245 214.539 208.58C214.539 209.312 214.753 209.895 215.181 210.326C215.609 210.746 216.203 210.957 216.963 210.957C217.37 210.957 217.723 210.892 218.022 210.762C218.322 210.633 218.568 210.455 218.761 210.229C218.964 210.003 219.114 209.744 219.21 209.453C219.317 209.151 219.371 208.838 219.371 208.515ZM220.318 220.028C220.318 219.543 220.125 219.171 219.74 218.912C219.355 218.653 218.825 218.513 218.151 218.492L215.278 218.411C214.999 218.615 214.775 218.815 214.604 219.009C214.443 219.192 214.309 219.37 214.202 219.543C214.106 219.715 214.042 219.882 214.01 220.044C213.977 220.206 213.961 220.373 213.961 220.545C213.961 221.084 214.229 221.494 214.764 221.774C215.31 222.054 216.075 222.195 217.059 222.195C217.669 222.195 218.183 222.13 218.6 222C219.018 221.882 219.355 221.72 219.611 221.515C219.868 221.311 220.05 221.079 220.157 220.82C220.264 220.572 220.318 220.308 220.318 220.028ZM233.993 213.236C233.993 212.633 234.079 212.067 234.25 211.539C234.432 211 234.699 210.493 235.053 210.019C235.406 209.544 235.839 209.092 236.353 208.66C236.877 208.229 237.482 207.809 238.166 207.399C237.781 206.903 237.444 206.44 237.155 206.009C236.877 205.567 236.642 205.146 236.449 204.747C236.267 204.348 236.128 203.971 236.032 203.615C235.946 203.249 235.903 202.888 235.903 202.532C235.903 201.777 236.037 201.071 236.304 200.414C236.572 199.745 236.989 199.169 237.556 198.684C238.124 198.199 238.846 197.816 239.723 197.535C240.601 197.245 241.655 197.099 242.885 197.099C244.009 197.099 244.977 197.207 245.791 197.422C246.604 197.638 247.273 197.945 247.797 198.344C248.321 198.732 248.712 199.217 248.969 199.799C249.226 200.371 249.354 201.017 249.354 201.74C249.354 202.386 249.242 202.985 249.017 203.535C248.803 204.084 248.471 204.607 248.022 205.103C247.583 205.599 247.032 206.079 246.369 206.542C245.705 206.995 244.929 207.453 244.041 207.917C244.33 208.251 244.651 208.607 245.004 208.984C245.368 209.35 245.737 209.722 246.112 210.1C246.497 210.466 246.882 210.832 247.267 211.199C247.653 211.566 248.027 211.905 248.391 212.218C248.53 212.002 248.653 211.754 248.76 211.474C248.878 211.194 248.974 210.897 249.049 210.585C249.135 210.272 249.199 209.954 249.242 209.631C249.295 209.307 249.322 208.989 249.322 208.677V208.175C249.322 208.057 249.343 207.954 249.386 207.868C249.429 207.782 249.514 207.712 249.643 207.658C249.782 207.604 249.975 207.566 250.221 207.545C250.478 207.512 250.804 207.496 251.2 207.496C251.574 207.496 251.885 207.507 252.131 207.529C252.377 207.539 252.57 207.572 252.709 207.626C252.858 207.679 252.96 207.755 253.013 207.852C253.077 207.938 253.109 208.051 253.109 208.191V208.709C253.109 209.226 253.072 209.749 252.998 210.277C252.922 210.805 252.81 211.323 252.661 211.83C252.521 212.325 252.345 212.805 252.131 213.269C251.917 213.721 251.681 214.147 251.425 214.546C251.799 214.837 252.12 215.08 252.388 215.274C252.666 215.468 252.902 215.624 253.094 215.743C253.286 215.851 253.446 215.926 253.575 215.969C253.704 216.012 253.81 216.034 253.896 216.034C254.015 216.034 254.121 216.034 254.217 216.034C254.323 216.034 254.409 216.072 254.475 216.147C254.538 216.222 254.586 216.357 254.619 216.551C254.652 216.745 254.667 217.031 254.667 217.408C254.667 217.807 254.657 218.12 254.634 218.346C254.624 218.572 254.596 218.74 254.553 218.847C254.523 218.955 254.457 219.041 254.361 219.106C254.275 219.182 254.126 219.246 253.914 219.3C253.699 219.365 253.441 219.397 253.142 219.397C252.907 219.397 252.661 219.365 252.404 219.3C252.158 219.246 251.869 219.138 251.537 218.977C251.205 218.804 250.82 218.583 250.381 218.314C249.943 218.033 249.434 217.678 248.857 217.247C248.354 217.591 247.834 217.904 247.299 218.184C246.765 218.454 246.203 218.68 245.614 218.864C245.036 219.047 244.437 219.187 243.816 219.284C243.196 219.381 242.532 219.429 241.826 219.429C241.13 219.429 240.451 219.376 239.787 219.268C239.124 219.16 238.498 218.998 237.91 218.783C237.332 218.556 236.802 218.276 236.32 217.942C235.839 217.608 235.427 217.214 235.085 216.761C234.742 216.298 234.475 215.775 234.282 215.193C234.089 214.6 233.993 213.948 233.993 213.236ZM240.157 202.322C240.157 202.548 240.194 202.785 240.269 203.033C240.344 203.27 240.446 203.524 240.574 203.793C240.713 204.052 240.884 204.332 241.088 204.634C241.291 204.925 241.521 205.243 241.778 205.588C242.409 205.243 242.934 204.925 243.351 204.634C243.779 204.343 244.121 204.063 244.378 203.793C244.635 203.513 244.817 203.238 244.924 202.969C245.031 202.688 245.085 202.403 245.085 202.112C245.085 201.853 245.036 201.61 244.94 201.384C244.844 201.158 244.694 200.963 244.491 200.802C244.287 200.629 244.036 200.495 243.736 200.398C243.437 200.301 243.083 200.252 242.677 200.252C242.227 200.252 241.842 200.306 241.521 200.414C241.211 200.511 240.954 200.656 240.751 200.85C240.547 201.034 240.397 201.255 240.301 201.513C240.205 201.761 240.157 202.031 240.157 202.322ZM238.359 213.01C238.359 213.474 238.445 213.9 238.616 214.287C238.787 214.675 239.033 215.01 239.354 215.29C239.675 215.57 240.071 215.791 240.542 215.953C241.023 216.104 241.574 216.179 242.195 216.179C242.516 216.179 242.832 216.152 243.142 216.098C243.463 216.034 243.774 215.953 244.073 215.856C244.384 215.748 244.672 215.624 244.94 215.484C245.218 215.333 245.475 215.171 245.71 214.999C245.229 214.611 244.742 214.201 244.25 213.77C243.768 213.328 243.298 212.886 242.837 212.444C242.377 212.002 241.933 211.566 241.505 211.134C241.088 210.692 240.713 210.277 240.381 209.889C240.007 210.126 239.691 210.374 239.434 210.633C239.188 210.881 238.985 211.134 238.825 211.393C238.664 211.652 238.546 211.916 238.471 212.185C238.396 212.455 238.359 212.73 238.359 213.01ZM282.578 217.489C282.707 217.877 282.788 218.184 282.821 218.411C282.852 218.637 282.809 218.81 282.692 218.928C282.573 219.036 282.366 219.101 282.065 219.122C281.767 219.154 281.355 219.171 280.831 219.171C280.285 219.171 279.858 219.16 279.547 219.138C279.246 219.128 279.016 219.101 278.856 219.058C278.694 219.004 278.583 218.934 278.52 218.847C278.454 218.761 278.401 218.648 278.358 218.508L276.962 214.304H269.161L267.844 218.395C267.801 218.545 267.743 218.675 267.669 218.783C267.604 218.88 267.492 218.961 267.331 219.025C267.181 219.079 266.961 219.117 266.673 219.138C266.395 219.16 266.026 219.171 265.566 219.171C265.073 219.171 264.688 219.154 264.41 219.122C264.132 219.09 263.94 219.014 263.831 218.896C263.725 218.767 263.687 218.589 263.72 218.362C263.753 218.136 263.831 217.834 263.96 217.457L270.365 198.894C270.428 198.711 270.504 198.565 270.59 198.457C270.676 198.339 270.81 198.252 270.99 198.199C271.184 198.134 271.445 198.096 271.779 198.085C272.11 198.064 272.547 198.053 273.093 198.053C273.726 198.053 274.229 198.064 274.603 198.085C274.977 198.096 275.266 198.134 275.468 198.199C275.683 198.252 275.832 198.339 275.918 198.457C276.014 198.576 276.095 198.738 276.158 198.942L282.578 217.489ZM273.045 202.144H273.03L270.092 211.037H275.984L273.045 202.144ZM298.84 218.524C298.84 218.632 298.813 218.729 298.759 218.815C298.706 218.891 298.61 218.955 298.471 219.009C298.342 219.063 298.165 219.101 297.94 219.122C297.728 219.154 297.455 219.171 297.121 219.171C296.769 219.171 296.481 219.154 296.256 219.122C296.041 219.101 295.869 219.063 295.743 219.009C295.614 218.955 295.523 218.891 295.47 218.815C295.414 218.729 295.389 218.632 295.389 218.524V216.859C294.597 217.721 293.788 218.368 292.964 218.799C292.152 219.23 291.305 219.446 290.427 219.446C289.444 219.446 288.614 219.284 287.942 218.961C287.277 218.637 286.738 218.195 286.318 217.635C285.914 217.074 285.618 216.427 285.436 215.694C285.266 214.95 285.18 214.029 285.18 212.929V204.101C285.18 203.993 285.206 203.901 285.261 203.826C285.325 203.739 285.431 203.669 285.583 203.615C285.742 203.562 285.949 203.524 286.207 203.502C286.475 203.47 286.801 203.454 287.186 203.454C287.583 203.454 287.909 203.47 288.164 203.502C288.422 203.524 288.625 203.562 288.776 203.615C288.936 203.669 289.049 203.739 289.113 203.826C289.176 203.901 289.209 203.993 289.209 204.101V212.25C289.209 213.005 289.257 213.581 289.353 213.98C289.449 214.379 289.593 214.724 289.788 215.015C289.99 215.295 290.24 215.516 290.541 215.678C290.852 215.829 291.209 215.905 291.616 215.905C292.129 215.905 292.643 215.716 293.158 215.339C293.682 214.961 294.238 214.412 294.827 213.689V204.101C294.827 203.993 294.853 203.901 294.906 203.826C294.971 203.739 295.078 203.669 295.227 203.615C295.389 203.562 295.596 203.524 295.854 203.502C296.112 203.47 296.438 203.454 296.833 203.454C297.23 203.454 297.556 203.47 297.811 203.502C298.069 203.524 298.271 203.562 298.423 203.615C298.572 203.669 298.678 203.739 298.744 203.826C298.807 203.901 298.84 203.993 298.84 204.101V218.524ZM316.495 218.524C316.495 218.642 316.47 218.745 316.415 218.831C316.361 218.907 316.27 218.971 316.141 219.025C316.015 219.079 315.838 219.117 315.613 219.138C315.398 219.16 315.133 219.171 314.811 219.171C314.467 219.171 314.189 219.16 313.977 219.138C313.762 219.117 313.585 219.079 313.446 219.025C313.317 218.971 313.221 218.907 313.158 218.831C313.105 218.745 313.077 218.642 313.077 218.524V216.923C312.338 217.721 311.562 218.341 310.75 218.783C309.946 219.225 309.054 219.446 308.07 219.446C306.978 219.446 306.052 219.235 305.291 218.815C304.542 218.384 303.928 217.807 303.445 217.085C302.975 216.363 302.633 215.522 302.418 214.562C302.206 213.592 302.097 212.573 302.097 211.506C302.097 210.223 302.231 209.07 302.499 208.046C302.777 207.022 303.18 206.149 303.703 205.426C304.226 204.704 304.879 204.149 305.66 203.761C306.441 203.373 307.342 203.179 308.358 203.179C309.16 203.179 309.888 203.346 310.54 203.68C311.193 204.004 311.84 204.483 312.482 205.119V197.309C312.482 197.201 312.51 197.104 312.563 197.018C312.627 196.932 312.735 196.862 312.885 196.808C313.044 196.743 313.254 196.695 313.509 196.662C313.767 196.63 314.093 196.614 314.49 196.614C314.885 196.614 315.211 196.63 315.469 196.662C315.724 196.695 315.929 196.743 316.078 196.808C316.227 196.862 316.336 196.932 316.399 197.018C316.463 197.104 316.495 197.201 316.495 197.309V218.524ZM312.482 208.887C311.906 208.154 311.35 207.593 310.814 207.205C310.29 206.817 309.739 206.623 309.16 206.623C308.636 206.623 308.181 206.758 307.797 207.027C307.423 207.286 307.117 207.636 306.881 208.078C306.656 208.52 306.484 209.016 306.368 209.566C306.259 210.105 306.206 210.66 306.206 211.231C306.206 211.835 306.254 212.423 306.35 212.994C306.447 213.565 306.603 214.077 306.816 214.53C307.041 214.972 307.337 215.328 307.701 215.597C308.062 215.867 308.523 216.001 309.079 216.001C309.357 216.001 309.625 215.964 309.883 215.888C310.151 215.802 310.417 215.667 310.685 215.484C310.963 215.301 311.246 215.064 311.537 214.773C311.825 214.471 312.141 214.104 312.482 213.673V208.887ZM324.618 218.524C324.618 218.632 324.585 218.729 324.521 218.815C324.458 218.891 324.344 218.955 324.185 219.009C324.033 219.063 323.831 219.101 323.573 219.122C323.318 219.154 322.992 219.171 322.595 219.171C322.2 219.171 321.874 219.154 321.616 219.122C321.358 219.101 321.151 219.063 320.989 219.009C320.84 218.955 320.733 218.891 320.668 218.815C320.605 218.729 320.572 218.632 320.572 218.524V204.133C320.572 204.025 320.605 203.933 320.668 203.858C320.733 203.772 320.84 203.702 320.989 203.648C321.151 203.583 321.358 203.535 321.616 203.502C321.874 203.47 322.2 203.454 322.595 203.454C322.992 203.454 323.318 203.47 323.573 203.502C323.831 203.535 324.033 203.583 324.185 203.648C324.344 203.702 324.458 203.772 324.521 203.858C324.585 203.933 324.618 204.025 324.618 204.133V218.524ZM324.923 199.217C324.923 200.036 324.757 200.603 324.425 200.915C324.094 201.228 323.477 201.384 322.579 201.384C321.669 201.384 321.055 201.233 320.733 200.931C320.422 200.629 320.268 200.085 320.268 199.298C320.268 198.479 320.428 197.913 320.749 197.6C321.08 197.277 321.702 197.115 322.612 197.115C323.51 197.115 324.119 197.271 324.44 197.584C324.762 197.886 324.923 198.43 324.923 199.217ZM337.137 217.101C337.137 217.575 337.104 217.942 337.041 218.201C336.988 218.449 336.912 218.626 336.816 218.734C336.72 218.831 336.576 218.923 336.383 219.009C336.201 219.084 335.981 219.149 335.726 219.203C335.478 219.268 335.205 219.316 334.907 219.349C334.618 219.381 334.323 219.397 334.024 219.397C333.22 219.397 332.525 219.295 331.938 219.09C331.349 218.885 330.861 218.572 330.476 218.152C330.092 217.721 329.806 217.182 329.624 216.535C329.445 215.888 329.354 215.123 329.354 214.239V206.849H327.634C327.432 206.849 327.278 206.725 327.169 206.478C327.063 206.219 327.01 205.793 327.01 205.2C327.01 204.887 327.02 204.623 327.04 204.408C327.073 204.192 327.116 204.025 327.169 203.906C327.222 203.777 327.288 203.685 327.361 203.632C327.447 203.578 327.543 203.551 327.652 203.551H329.354V200.333C329.354 200.225 329.379 200.128 329.432 200.042C329.498 199.956 329.604 199.885 329.753 199.832C329.915 199.767 330.122 199.724 330.38 199.702C330.648 199.67 330.975 199.654 331.359 199.654C331.756 199.654 332.082 199.67 332.337 199.702C332.606 199.724 332.815 199.767 332.965 199.832C333.114 199.885 333.22 199.956 333.286 200.042C333.349 200.128 333.382 200.225 333.382 200.333V203.551H336.495C336.603 203.551 336.694 203.578 336.768 203.632C336.854 203.685 336.924 203.777 336.978 203.906C337.031 204.025 337.069 204.192 337.089 204.408C337.122 204.623 337.137 204.887 337.137 205.2C337.137 205.793 337.084 206.219 336.978 206.478C336.869 206.725 336.715 206.849 336.512 206.849H333.382V213.624C333.382 214.412 333.503 215.004 333.751 215.403C333.996 215.791 334.436 215.985 335.066 215.985C335.281 215.985 335.473 215.969 335.645 215.937C335.817 215.894 335.966 215.851 336.095 215.807C336.234 215.753 336.345 215.71 336.431 215.678C336.527 215.635 336.613 215.613 336.687 215.613C336.753 215.613 336.811 215.635 336.864 215.678C336.93 215.71 336.978 215.786 337.008 215.905C337.041 216.012 337.069 216.163 337.089 216.357C337.122 216.551 337.137 216.799 337.137 217.101ZM350.139 214.449C350.139 215.268 349.983 215.991 349.674 216.616C349.373 217.241 348.946 217.764 348.389 218.184C347.833 218.605 347.176 218.917 346.415 219.122C345.656 219.338 344.832 219.446 343.944 219.446C343.408 219.446 342.895 219.403 342.402 219.316C341.921 219.241 341.486 219.144 341.102 219.025C340.717 218.896 340.396 218.767 340.138 218.637C339.883 218.508 339.696 218.389 339.577 218.282C339.458 218.163 339.367 217.985 339.304 217.748C339.241 217.5 339.208 217.139 339.208 216.664C339.208 216.352 339.218 216.104 339.241 215.921C339.261 215.726 339.294 215.576 339.337 215.468C339.38 215.349 339.433 215.274 339.496 215.241C339.562 215.198 339.64 215.177 339.736 215.177C339.855 215.177 340.027 215.247 340.252 215.387C340.487 215.516 340.776 215.662 341.117 215.824C341.461 215.985 341.855 216.136 342.305 216.276C342.766 216.417 343.284 216.487 343.863 216.487C344.227 216.487 344.548 216.449 344.827 216.373C345.115 216.298 345.36 216.19 345.565 216.05C345.777 215.91 345.939 215.732 346.045 215.516C346.152 215.301 346.207 215.053 346.207 214.773C346.207 214.449 346.104 214.174 345.901 213.948C345.709 213.711 345.446 213.506 345.115 213.333C344.794 213.161 344.425 212.999 344.007 212.848C343.6 212.697 343.178 212.53 342.74 212.347C342.311 212.164 341.888 211.954 341.471 211.716C341.064 211.479 340.695 211.188 340.363 210.843C340.042 210.498 339.779 210.083 339.577 209.598C339.385 209.113 339.289 208.531 339.289 207.852C339.289 207.162 339.423 206.531 339.688 205.96C339.956 205.378 340.343 204.882 340.844 204.472C341.347 204.063 341.959 203.745 342.675 203.518C343.403 203.292 344.215 203.179 345.115 203.179C345.565 203.179 345.997 203.211 346.415 203.276C346.842 203.34 347.229 203.421 347.57 203.518C347.914 203.615 348.202 203.723 348.438 203.842C348.673 203.95 348.84 204.047 348.936 204.133C349.042 204.208 349.118 204.289 349.161 204.375C349.201 204.451 349.234 204.548 349.257 204.666C349.277 204.774 349.292 204.914 349.305 205.087C349.325 205.249 349.335 205.453 349.335 205.701C349.335 205.992 349.325 206.229 349.305 206.413C349.292 206.596 349.267 206.742 349.224 206.849C349.191 206.957 349.143 207.033 349.08 207.076C349.014 207.108 348.941 207.124 348.855 207.124C348.759 207.124 348.609 207.07 348.405 206.963C348.202 206.844 347.944 206.72 347.636 206.591C347.335 206.461 346.981 206.343 346.576 206.235C346.179 206.116 345.724 206.057 345.211 206.057C344.847 206.057 344.531 206.095 344.265 206.17C343.997 206.246 343.777 206.353 343.605 206.494C343.436 206.634 343.307 206.801 343.221 206.995C343.135 207.178 343.092 207.378 343.092 207.593C343.092 207.927 343.193 208.208 343.398 208.434C343.6 208.66 343.868 208.86 344.199 209.032C344.531 209.205 344.905 209.366 345.322 209.517C345.752 209.668 346.179 209.835 346.607 210.019C347.047 210.191 347.474 210.396 347.891 210.633C348.319 210.87 348.701 211.161 349.032 211.506C349.363 211.851 349.631 212.266 349.833 212.751C350.038 213.226 350.139 213.792 350.139 214.449ZM383.411 218.524C383.411 218.632 383.381 218.729 383.315 218.815C383.252 218.891 383.146 218.955 382.994 219.009C382.845 219.063 382.643 219.101 382.385 219.122C382.129 219.154 381.803 219.171 381.406 219.171C380.999 219.171 380.668 219.154 380.41 219.122C380.155 219.101 379.945 219.063 379.785 219.009C379.636 218.955 379.527 218.891 379.464 218.815C379.411 218.729 379.383 218.632 379.383 218.524V209.97C379.383 209.485 379.335 209.043 379.239 208.644C379.153 208.245 379.014 207.906 378.822 207.626C378.64 207.334 378.405 207.114 378.116 206.963C377.838 206.801 377.499 206.72 377.105 206.72C376.622 206.72 376.136 206.909 375.643 207.286C375.153 207.663 374.617 208.213 374.038 208.935V218.524C374.038 218.632 374.007 218.729 373.942 218.815C373.878 218.891 373.767 218.955 373.605 219.009C373.456 219.063 373.251 219.101 372.996 219.122C372.738 219.154 372.417 219.171 372.032 219.171C371.635 219.171 371.309 219.154 371.054 219.122C370.796 219.101 370.589 219.063 370.427 219.009C370.278 218.955 370.171 218.891 370.106 218.815C370.042 218.729 370.01 218.632 370.01 218.524V209.97C370.01 209.485 369.961 209.043 369.865 208.644C369.779 208.245 369.645 207.906 369.463 207.626C369.281 207.334 369.046 207.114 368.758 206.963C368.47 206.801 368.131 206.72 367.746 206.72C367.253 206.72 366.763 206.909 366.27 207.286C365.779 207.663 365.248 208.213 364.682 208.935V218.524C364.682 218.632 364.649 218.729 364.586 218.815C364.52 218.891 364.409 218.955 364.247 219.009C364.098 219.063 363.895 219.101 363.637 219.122C363.382 219.154 363.056 219.171 362.659 219.171C362.262 219.171 361.936 219.154 361.68 219.122C361.422 219.101 361.215 219.063 361.053 219.009C360.904 218.955 360.798 218.891 360.732 218.815C360.669 218.729 360.636 218.632 360.636 218.524V204.101C360.636 203.993 360.664 203.901 360.717 203.826C360.77 203.739 360.866 203.669 361.005 203.615C361.144 203.562 361.321 203.524 361.536 203.502C361.759 203.47 362.039 203.454 362.37 203.454C362.712 203.454 362.995 203.47 363.22 203.502C363.445 203.524 363.617 203.562 363.733 203.615C363.862 203.669 363.953 203.739 364.006 203.826C364.06 203.901 364.087 203.993 364.087 204.101V205.766C364.879 204.904 365.665 204.257 366.447 203.826C367.238 203.394 368.062 203.179 368.92 203.179C369.506 203.179 370.037 203.243 370.508 203.373C370.978 203.491 371.395 203.669 371.759 203.906C372.134 204.133 372.455 204.408 372.723 204.731C372.991 205.055 373.216 205.416 373.398 205.814C373.825 205.351 374.242 204.952 374.65 204.618C375.067 204.284 375.471 204.014 375.868 203.809C376.276 203.594 376.678 203.437 377.072 203.34C377.479 203.233 377.891 203.179 378.309 203.179C379.262 203.179 380.063 203.34 380.716 203.664C381.368 203.987 381.894 204.429 382.289 204.99C382.696 205.54 382.984 206.186 383.156 206.93C383.328 207.674 383.411 208.461 383.411 209.291V218.524ZM391.422 218.524C391.422 218.632 391.389 218.729 391.326 218.815C391.26 218.891 391.149 218.955 390.99 219.009C390.838 219.063 390.636 219.101 390.378 219.122C390.122 219.154 389.796 219.171 389.399 219.171C389.005 219.171 388.676 219.154 388.421 219.122C388.163 219.101 387.955 219.063 387.794 219.009C387.644 218.955 387.538 218.891 387.472 218.815C387.409 218.729 387.376 218.632 387.376 218.524V204.133C387.376 204.025 387.409 203.933 387.472 203.858C387.538 203.772 387.644 203.702 387.794 203.648C387.955 203.583 388.163 203.535 388.421 203.502C388.676 203.47 389.005 203.454 389.399 203.454C389.796 203.454 390.122 203.47 390.378 203.502C390.636 203.535 390.838 203.583 390.99 203.648C391.149 203.702 391.26 203.772 391.326 203.858C391.389 203.933 391.422 204.025 391.422 204.133V218.524ZM391.728 199.217C391.728 200.036 391.561 200.603 391.23 200.915C390.899 201.228 390.282 201.384 389.384 201.384C388.474 201.384 387.859 201.233 387.538 200.931C387.227 200.629 387.073 200.085 387.073 199.298C387.073 198.479 387.232 197.913 387.553 197.6C387.885 197.277 388.507 197.115 389.414 197.115C390.315 197.115 390.924 197.271 391.245 197.584C391.566 197.886 391.728 198.43 391.728 199.217ZM403.942 217.101C403.942 217.575 403.909 217.942 403.846 218.201C403.792 218.449 403.717 218.626 403.621 218.734C403.524 218.831 403.38 218.923 403.188 219.009C403.006 219.084 402.786 219.149 402.531 219.203C402.283 219.268 402.01 219.316 401.711 219.349C401.423 219.381 401.127 219.397 400.829 219.397C400.025 219.397 399.329 219.295 398.74 219.09C398.154 218.885 397.665 218.572 397.281 218.152C396.894 217.721 396.611 217.182 396.429 216.535C396.247 215.888 396.158 215.123 396.158 214.239V206.849H394.439C394.237 206.849 394.082 206.725 393.974 206.478C393.867 206.219 393.814 205.793 393.814 205.2C393.814 204.887 393.824 204.623 393.845 204.408C393.878 204.192 393.921 204.025 393.974 203.906C394.027 203.777 394.092 203.685 394.166 203.632C394.252 203.578 394.348 203.551 394.457 203.551H396.158V200.333C396.158 200.225 396.184 200.128 396.237 200.042C396.303 199.956 396.409 199.885 396.558 199.832C396.72 199.767 396.927 199.724 397.185 199.702C397.453 199.67 397.779 199.654 398.164 199.654C398.561 199.654 398.887 199.67 399.142 199.702C399.41 199.724 399.618 199.767 399.769 199.832C399.919 199.885 400.025 199.956 400.09 200.042C400.154 200.128 400.187 200.225 400.187 200.333V203.551H403.299C403.408 203.551 403.497 203.578 403.572 203.632C403.658 203.685 403.727 203.777 403.782 203.906C403.835 204.025 403.873 204.192 403.894 204.408C403.926 204.623 403.942 204.887 403.942 205.2C403.942 205.793 403.889 206.219 403.782 206.478C403.674 206.725 403.519 206.849 403.317 206.849H400.187V213.624C400.187 214.412 400.308 215.004 400.556 215.403C400.801 215.791 401.241 215.985 401.871 215.985C402.086 215.985 402.278 215.969 402.45 215.937C402.619 215.894 402.771 215.851 402.9 215.807C403.039 215.753 403.15 215.71 403.236 215.678C403.332 215.635 403.418 215.613 403.492 215.613C403.557 215.613 403.615 215.635 403.669 215.678C403.734 215.71 403.782 215.786 403.813 215.905C403.846 216.012 403.873 216.163 403.894 216.357C403.926 216.551 403.942 216.799 403.942 217.101ZM435.193 221.063C435.193 221.451 435.173 221.763 435.13 222C435.097 222.238 435.049 222.421 434.983 222.55C434.92 222.68 434.852 222.761 434.776 222.793C434.7 222.836 434.622 222.858 434.536 222.858C434.182 222.858 433.717 222.761 433.14 222.566C432.571 222.372 431.957 222.092 431.294 221.726C430.629 221.37 429.949 220.928 429.254 220.4C428.571 219.882 427.934 219.284 427.344 218.605C426.851 218.831 426.252 219.025 425.547 219.187C424.851 219.359 424.075 219.446 423.22 219.446C421.604 219.446 420.191 219.241 418.982 218.831C417.784 218.411 416.782 217.764 415.981 216.891C415.176 216.018 414.572 214.907 414.168 213.56C413.771 212.201 413.573 210.59 413.573 208.725C413.573 207.033 413.786 205.513 414.216 204.165C414.643 202.807 415.28 201.659 416.125 200.721C416.969 199.772 418.014 199.045 419.255 198.538C420.507 198.031 421.956 197.778 423.605 197.778C425.157 197.778 426.525 197.988 427.714 198.409C428.912 198.829 429.919 199.476 430.73 200.349C431.555 201.212 432.177 202.306 432.594 203.632C433.021 204.958 433.236 206.526 433.236 208.337C433.236 209.275 433.17 210.159 433.042 210.989C432.925 211.808 432.748 212.568 432.513 213.269C432.278 213.97 431.99 214.611 431.646 215.193C431.304 215.775 430.912 216.287 430.475 216.729C431.137 217.311 431.727 217.753 432.24 218.055C432.753 218.357 433.181 218.583 433.524 218.734C433.876 218.885 434.157 218.998 434.359 219.074C434.574 219.138 434.738 219.225 434.857 219.333C434.973 219.451 435.059 219.645 435.112 219.915C435.166 220.195 435.193 220.577 435.193 221.063ZM428.806 208.563C428.806 207.475 428.72 206.483 428.548 205.588C428.376 204.693 428.083 203.928 427.666 203.292C427.258 202.645 426.712 202.149 426.027 201.804C425.344 201.449 424.487 201.271 423.46 201.271C422.421 201.271 421.556 201.465 420.861 201.853C420.163 202.241 419.602 202.764 419.174 203.421C418.747 204.079 418.441 204.85 418.259 205.734C418.09 206.607 418.004 207.529 418.004 208.499C418.004 209.652 418.09 210.687 418.259 211.603C418.431 212.52 418.719 213.301 419.126 213.948C419.533 214.595 420.08 215.091 420.762 215.436C421.448 215.77 422.31 215.937 423.347 215.937C424.386 215.937 425.253 215.743 425.949 215.355C426.644 214.967 427.205 214.438 427.633 213.77C428.063 213.102 428.361 212.32 428.533 211.426C428.715 210.531 428.806 209.577 428.806 208.563ZM454.247 217.586C454.247 217.834 454.204 218.055 454.118 218.249C454.032 218.443 453.913 218.605 453.764 218.734C453.625 218.864 453.455 218.961 453.251 219.025C453.058 219.079 452.861 219.106 452.656 219.106H450.858C450.484 219.106 450.158 219.068 449.88 218.993C449.612 218.917 449.361 218.783 449.126 218.589C448.901 218.384 448.681 218.114 448.469 217.78C448.254 217.435 448.014 216.993 447.746 216.454L442.577 206.671C442.276 206.089 441.973 205.464 441.662 204.796C441.351 204.117 441.073 203.459 440.827 202.823H440.794C440.837 203.599 440.87 204.375 440.89 205.152C440.913 205.917 440.923 206.709 440.923 207.529V218.475C440.923 218.583 440.89 218.68 440.827 218.767C440.774 218.853 440.673 218.928 440.521 218.993C440.382 219.047 440.19 219.09 439.945 219.122C439.699 219.154 439.383 219.171 438.996 219.171C438.622 219.171 438.314 219.154 438.066 219.122C437.821 219.09 437.628 219.047 437.489 218.993C437.35 218.928 437.254 218.853 437.199 218.767C437.146 218.68 437.12 218.583 437.12 218.475V199.67C437.12 199.163 437.264 198.786 437.553 198.538C437.854 198.279 438.215 198.15 438.645 198.15H440.908C441.315 198.15 441.657 198.188 441.935 198.263C442.213 198.328 442.458 198.441 442.673 198.603C442.898 198.764 443.106 198.991 443.3 199.282C443.492 199.562 443.69 199.912 443.892 200.333L447.938 207.981C448.173 208.445 448.403 208.903 448.628 209.356C448.863 209.798 449.088 210.245 449.303 210.698C449.516 211.14 449.726 211.576 449.928 212.008C450.133 212.439 450.33 212.87 450.522 213.301H450.537C450.507 212.547 450.479 211.759 450.459 210.94C450.446 210.121 450.441 209.339 450.441 208.596V198.781C450.441 198.673 450.474 198.576 450.537 198.489C450.603 198.403 450.709 198.328 450.858 198.263C451.01 198.199 451.207 198.155 451.453 198.134C451.701 198.102 452.014 198.085 452.401 198.085C452.765 198.085 453.068 198.102 453.316 198.134C453.562 198.155 453.749 198.199 453.878 198.263C454.017 198.328 454.113 198.403 454.166 198.489C454.219 198.576 454.247 198.673 454.247 198.781V217.586ZM475.45 201.4C475.45 201.713 475.435 201.982 475.402 202.209C475.379 202.435 475.344 202.618 475.288 202.758C475.247 202.888 475.187 202.979 475.113 203.033C475.048 203.087 474.967 203.114 474.871 203.114C474.732 203.114 474.509 203.017 474.198 202.823C473.887 202.629 473.475 202.419 472.961 202.192C472.448 201.966 471.834 201.756 471.116 201.562C470.41 201.368 469.586 201.271 468.645 201.271C467.639 201.271 466.728 201.449 465.914 201.804C465.102 202.149 464.407 202.645 463.828 203.292C463.251 203.928 462.806 204.699 462.495 205.604C462.187 206.499 462.03 207.491 462.03 208.58C462.03 209.776 462.187 210.832 462.495 211.749C462.816 212.654 463.262 213.414 463.828 214.029C464.397 214.643 465.075 215.107 465.866 215.419C466.67 215.732 467.553 215.888 468.516 215.888C468.986 215.888 469.452 215.835 469.912 215.726C470.372 215.619 470.799 215.457 471.196 215.241V210.391H467.264C467.07 210.391 466.921 210.272 466.814 210.035C466.708 209.787 466.652 209.372 466.652 208.79C466.652 208.488 466.665 208.235 466.685 208.03C466.718 207.825 466.761 207.663 466.814 207.545C466.867 207.415 466.931 207.324 467.007 207.27C467.082 207.205 467.168 207.173 467.264 207.173H474.279C474.448 207.173 474.6 207.205 474.727 207.27C474.866 207.324 474.984 207.41 475.081 207.529C475.187 207.647 475.268 207.793 475.321 207.965C475.374 208.127 475.402 208.315 475.402 208.531V216.859C475.402 217.182 475.343 217.468 475.225 217.715C475.118 217.953 474.888 218.141 474.534 218.282C474.193 218.422 473.763 218.567 473.25 218.718C472.736 218.869 472.203 218.998 471.647 219.106C471.1 219.214 470.544 219.295 469.975 219.349C469.419 219.403 468.857 219.429 468.291 219.429C466.632 219.429 465.145 219.192 463.828 218.718C462.523 218.233 461.416 217.538 460.505 216.632C459.598 215.716 458.9 214.605 458.419 213.301C457.939 211.986 457.696 210.498 457.696 208.838C457.696 207.124 457.954 205.588 458.467 204.23C458.981 202.861 459.709 201.702 460.649 200.753C461.593 199.794 462.725 199.061 464.053 198.554C465.391 198.048 466.878 197.794 468.516 197.794C469.414 197.794 470.233 197.859 470.971 197.988C471.71 198.107 472.352 198.258 472.898 198.441C473.455 198.614 473.915 198.802 474.279 199.007C474.641 199.212 474.893 199.39 475.032 199.541C475.182 199.692 475.288 199.907 475.354 200.187C475.417 200.457 475.45 200.861 475.45 201.4ZM486.606 210.94C486.606 211.566 486.545 212.002 486.429 212.25C486.31 212.498 486.123 212.622 485.868 212.622H479.19C478.922 212.622 478.729 212.498 478.611 212.25C478.494 211.991 478.436 211.555 478.436 210.94C478.436 210.337 478.494 209.911 478.611 209.663C478.729 209.415 478.922 209.291 479.19 209.291H485.868C485.994 209.291 486.103 209.318 486.189 209.372C486.285 209.426 486.363 209.517 486.429 209.647C486.492 209.776 486.535 209.949 486.558 210.164C486.588 210.38 486.606 210.638 486.606 210.94ZM503.49 218.524C503.49 218.632 503.46 218.729 503.394 218.815C503.331 218.891 503.222 218.955 503.073 219.009C502.924 219.063 502.714 219.101 502.448 219.122C502.19 219.154 501.869 219.171 501.485 219.171C501.088 219.171 500.757 219.154 500.488 219.122C500.233 219.101 500.028 219.063 499.879 219.009C499.73 218.955 499.621 218.891 499.558 218.815C499.495 218.729 499.462 218.632 499.462 218.524V199.799C499.429 199.864 499.381 199.912 499.318 199.945C499.265 199.977 499.194 199.993 499.108 199.993C498.992 199.993 498.835 199.972 498.643 199.929C498.45 199.885 498.235 199.848 498 199.815C497.765 199.772 497.53 199.745 497.295 199.735C497.07 199.713 496.845 199.702 496.62 199.702C496.139 199.702 495.737 199.751 495.416 199.848C495.095 199.945 494.839 200.096 494.647 200.301C494.465 200.495 494.336 200.753 494.26 201.077C494.187 201.4 494.149 201.783 494.149 202.225V203.551H496.524C496.632 203.551 496.723 203.578 496.797 203.632C496.883 203.685 496.953 203.777 497.007 203.906C497.06 204.025 497.098 204.192 497.118 204.408C497.151 204.623 497.166 204.887 497.166 205.2C497.166 205.793 497.113 206.219 497.007 206.478C496.9 206.725 496.744 206.849 496.541 206.849H494.149V218.524C494.149 218.632 494.116 218.729 494.053 218.815C493.987 218.891 493.881 218.955 493.732 219.009C493.583 219.063 493.373 219.101 493.105 219.122C492.849 219.154 492.523 219.171 492.126 219.171C491.742 219.171 491.416 219.154 491.148 219.122C490.89 219.101 490.682 219.063 490.521 219.009C490.371 218.955 490.265 218.891 490.199 218.815C490.146 218.729 490.121 218.632 490.121 218.524V206.849H488.323C488.118 206.849 487.964 206.725 487.858 206.478C487.762 206.219 487.714 205.793 487.714 205.2C487.714 204.887 487.724 204.623 487.744 204.408C487.777 204.192 487.815 204.025 487.858 203.906C487.911 203.777 487.974 203.685 488.05 203.632C488.136 203.578 488.232 203.551 488.338 203.551H490.121V202.306C490.121 201.335 490.227 200.484 490.442 199.751C490.655 199.007 490.993 198.392 491.454 197.907C491.924 197.412 492.511 197.045 493.219 196.808C493.934 196.56 494.796 196.436 495.803 196.436C496.091 196.436 496.397 196.447 496.718 196.468C497.05 196.49 497.371 196.522 497.679 196.565C497.99 196.598 498.258 196.641 498.483 196.695C498.708 196.738 498.885 196.786 499.012 196.84C499.141 196.883 499.242 196.937 499.318 197.002C499.394 197.067 499.447 197.148 499.477 197.245C499.49 197.148 499.515 197.061 499.558 196.986C499.611 196.91 499.702 196.84 499.831 196.776C499.97 196.711 500.167 196.662 500.425 196.63C500.693 196.587 501.045 196.565 501.485 196.565C501.869 196.565 502.19 196.581 502.448 196.614C502.714 196.646 502.924 196.695 503.073 196.759C503.222 196.813 503.331 196.883 503.394 196.97C503.46 197.056 503.49 197.153 503.49 197.261V218.524ZM522.045 211.167C522.045 212.396 521.886 213.517 521.565 214.53C521.244 215.543 520.756 216.417 520.103 217.149C519.451 217.883 518.632 218.449 517.648 218.847C516.664 219.246 515.514 219.446 514.196 219.446C512.924 219.446 511.817 219.268 510.874 218.912C509.933 218.556 509.152 218.039 508.53 217.36C507.91 216.68 507.45 215.845 507.152 214.854C506.851 213.862 506.701 212.73 506.701 211.458C506.701 210.229 506.861 209.108 507.182 208.094C507.513 207.07 508.006 206.197 508.659 205.475C509.311 204.742 510.125 204.176 511.099 203.777C512.082 203.378 513.233 203.179 514.55 203.179C515.835 203.179 516.948 203.357 517.888 203.712C518.831 204.057 519.605 204.57 520.217 205.249C520.837 205.928 521.297 206.763 521.595 207.755C521.896 208.747 522.045 209.884 522.045 211.167ZM517.888 211.328C517.888 210.617 517.83 209.965 517.711 209.372C517.605 208.768 517.418 208.245 517.15 207.803C516.882 207.361 516.525 207.017 516.075 206.768C515.635 206.521 515.079 206.397 514.406 206.397C513.807 206.397 513.281 206.51 512.833 206.736C512.383 206.952 512.014 207.275 511.726 207.706C511.435 208.127 511.218 208.639 511.066 209.242C510.927 209.835 510.859 210.515 510.859 211.28C510.859 211.991 510.917 212.649 511.036 213.252C511.152 213.846 511.339 214.363 511.597 214.805C511.865 215.247 512.222 215.592 512.672 215.84C513.122 216.077 513.678 216.195 514.341 216.195C514.952 216.195 515.481 216.088 515.931 215.872C516.379 215.646 516.748 215.322 517.039 214.902C517.327 214.482 517.542 213.975 517.681 213.382C517.82 212.778 517.888 212.094 517.888 211.328ZM547.102 204.068C547.102 204.187 547.087 204.332 547.054 204.505C547.021 204.677 546.963 204.925 546.877 205.249L543.056 218.298C543.003 218.481 542.935 218.632 542.849 218.75C542.763 218.858 542.629 218.944 542.447 219.009C542.275 219.074 542.024 219.117 541.693 219.138C541.372 219.16 540.95 219.171 540.424 219.171C539.9 219.171 539.473 219.154 539.139 219.122C538.808 219.101 538.547 219.058 538.353 218.993C538.171 218.928 538.039 218.842 537.953 218.734C537.867 218.615 537.801 218.47 537.761 218.298L535.351 209.534L535.321 209.388L535.288 209.534L533.073 218.298C533.03 218.481 532.967 218.632 532.881 218.75C532.805 218.858 532.671 218.944 532.479 219.009C532.286 219.074 532.023 219.117 531.692 219.138C531.361 219.16 530.934 219.171 530.408 219.171C529.874 219.171 529.439 219.154 529.108 219.122C528.787 219.101 528.531 219.058 528.337 218.993C528.157 218.928 528.023 218.842 527.937 218.734C527.851 218.615 527.788 218.47 527.745 218.298L523.957 205.249C523.858 204.936 523.795 204.693 523.762 204.521C523.742 204.338 523.732 204.187 523.732 204.068C523.732 203.96 523.757 203.869 523.81 203.793C523.876 203.707 523.982 203.642 524.132 203.599C524.293 203.545 524.501 203.508 524.759 203.486C525.027 203.464 525.358 203.454 525.752 203.454C526.182 203.454 526.529 203.464 526.797 203.486C527.065 203.508 527.272 203.545 527.424 203.599C527.573 203.653 527.674 203.729 527.727 203.826C527.793 203.912 527.841 204.02 527.871 204.149L530.714 214.74L530.746 214.934L530.777 214.74L533.442 204.149C533.475 204.02 533.523 203.912 533.586 203.826C533.662 203.729 533.768 203.653 533.907 203.599C534.046 203.545 534.239 203.508 534.486 203.486C534.742 203.464 535.068 203.454 535.465 203.454C535.859 203.454 536.181 203.47 536.428 203.502C536.674 203.524 536.866 203.562 537.005 203.615C537.154 203.659 537.258 203.723 537.311 203.809C537.374 203.885 537.422 203.977 537.455 204.084L540.312 214.756L540.36 214.934L540.393 214.74L543.122 204.149C543.142 204.02 543.185 203.912 543.248 203.826C543.314 203.729 543.42 203.653 543.569 203.599C543.721 203.545 543.923 203.508 544.181 203.486C544.437 203.464 544.763 203.454 545.16 203.454C545.554 203.454 545.875 203.464 546.123 203.486C546.379 203.508 546.578 203.545 546.718 203.599C546.867 203.642 546.968 203.707 547.021 203.793C547.074 203.869 547.102 203.96 547.102 204.068Z" fill="#8DC63F"/>
</svg>
