<svg width="892" height="453" viewBox="0 0 892 453" fill="none" xmlns="http://www.w3.org/2000/svg">
<path d="M344.101 108.5V135.07H369.5V157.669H344.101V184.5H320.899V157.669H295.5V135.07H320.899V108.5H344.101Z" fill="#8DC63F" stroke="#105388" stroke-width="9"/>
<path d="M433 255H888V346H394.5L433 255Z" fill="#105388" stroke="#8DC63F" stroke-width="7"/>
<path d="M732.485 143.942C732.485 146.614 731.975 148.969 730.956 151.009C729.971 153.048 728.565 154.753 726.737 156.124C724.909 157.495 722.747 158.514 720.25 159.182C717.754 159.885 715.047 160.237 712.129 160.237C710.372 160.237 708.684 160.096 707.067 159.815C705.485 159.569 704.061 159.253 702.795 158.866C701.53 158.444 700.475 158.022 699.631 157.6C698.788 157.178 698.172 156.792 697.786 156.44C697.399 156.053 697.1 155.473 696.889 154.7C696.678 153.891 696.573 152.714 696.573 151.167C696.573 150.147 696.608 149.339 696.678 148.741C696.749 148.108 696.854 147.616 696.995 147.264C697.135 146.878 697.311 146.632 697.522 146.526C697.733 146.385 697.997 146.315 698.313 146.315C698.7 146.315 699.262 146.544 700 147.001C700.774 147.423 701.723 147.897 702.848 148.425C703.973 148.952 705.274 149.444 706.75 149.901C708.262 150.358 709.967 150.587 711.866 150.587C713.061 150.587 714.116 150.464 715.03 150.218C715.979 149.971 716.788 149.62 717.456 149.163C718.159 148.706 718.686 148.126 719.038 147.423C719.389 146.719 719.565 145.911 719.565 144.997C719.565 143.942 719.231 143.046 718.563 142.307C717.93 141.534 717.069 140.866 715.979 140.303C714.924 139.741 713.711 139.214 712.34 138.721C711.004 138.229 709.616 137.684 708.174 137.087C706.768 136.489 705.379 135.803 704.008 135.03C702.672 134.257 701.459 133.307 700.37 132.182C699.315 131.057 698.454 129.704 697.786 128.122C697.153 126.54 696.836 124.641 696.836 122.427C696.836 120.177 697.276 118.12 698.155 116.257C699.034 114.358 700.299 112.741 701.952 111.405C703.604 110.069 705.608 109.032 707.963 108.294C710.354 107.555 713.026 107.186 715.979 107.186C717.456 107.186 718.879 107.292 720.25 107.503C721.657 107.714 722.922 107.977 724.047 108.294C725.172 108.61 726.122 108.962 726.895 109.348C727.668 109.7 728.213 110.016 728.53 110.298C728.881 110.544 729.127 110.807 729.268 111.089C729.409 111.335 729.514 111.651 729.584 112.038C729.655 112.389 729.708 112.846 729.743 113.409C729.813 113.936 729.848 114.604 729.848 115.413C729.848 116.362 729.813 117.135 729.743 117.733C729.708 118.331 729.62 118.805 729.479 119.157C729.374 119.509 729.215 119.755 729.004 119.895C728.793 120.001 728.547 120.053 728.266 120.053C727.95 120.053 727.458 119.878 726.79 119.526C726.122 119.139 725.278 118.735 724.258 118.313C723.274 117.891 722.114 117.505 720.778 117.153C719.477 116.766 717.983 116.573 716.295 116.573C715.1 116.573 714.063 116.696 713.184 116.942C712.305 117.188 711.584 117.54 711.022 117.997C710.459 118.454 710.038 118.999 709.756 119.632C709.475 120.229 709.334 120.88 709.334 121.583C709.334 122.673 709.668 123.587 710.336 124.325C711.004 125.063 711.883 125.714 712.973 126.276C714.063 126.839 715.293 127.366 716.665 127.858C718.071 128.35 719.477 128.895 720.883 129.493C722.325 130.055 723.731 130.723 725.102 131.497C726.508 132.27 727.756 133.219 728.846 134.344C729.936 135.469 730.815 136.823 731.483 138.405C732.151 139.952 732.485 141.798 732.485 143.942Z" fill="#105388"/>
<path d="M688.399 132.341C688.399 133.958 688.03 135.153 687.292 135.927C686.588 136.7 685.604 137.087 684.338 137.087H655.704C655.704 139.091 655.932 140.919 656.389 142.571C656.881 144.188 657.637 145.577 658.657 146.737C659.711 147.862 661.047 148.723 662.665 149.321C664.317 149.919 666.286 150.218 668.571 150.218C670.891 150.218 672.93 150.059 674.688 149.743C676.446 149.391 677.958 149.022 679.223 148.635C680.524 148.214 681.596 147.844 682.44 147.528C683.284 147.177 683.969 147.001 684.497 147.001C684.813 147.001 685.077 147.071 685.288 147.212C685.499 147.317 685.674 147.528 685.815 147.844C685.956 148.161 686.043 148.618 686.079 149.216C686.149 149.778 686.184 150.499 686.184 151.378C686.184 152.151 686.167 152.819 686.131 153.382C686.096 153.909 686.043 154.366 685.973 154.753C685.903 155.139 685.797 155.473 685.657 155.755C685.516 156.001 685.323 156.247 685.077 156.493C684.866 156.739 684.25 157.073 683.231 157.495C682.211 157.917 680.911 158.339 679.329 158.76C677.747 159.147 675.936 159.481 673.897 159.762C671.858 160.079 669.678 160.237 667.358 160.237C663.174 160.237 659.5 159.71 656.336 158.655C653.208 157.6 650.588 156.001 648.479 153.856C646.37 151.712 644.788 149.005 643.733 145.735C642.713 142.466 642.204 138.634 642.204 134.239C642.204 130.055 642.749 126.294 643.838 122.954C644.928 119.579 646.51 116.731 648.584 114.411C650.659 112.055 653.172 110.262 656.125 109.032C659.114 107.802 662.471 107.186 666.198 107.186C670.135 107.186 673.493 107.766 676.27 108.927C679.083 110.087 681.385 111.704 683.178 113.778C684.971 115.817 686.29 118.243 687.133 121.055C687.977 123.868 688.399 126.927 688.399 130.231V132.341ZM675.532 128.544C675.637 124.817 674.881 121.899 673.264 119.79C671.682 117.645 669.221 116.573 665.881 116.573C664.194 116.573 662.717 116.889 661.452 117.522C660.221 118.155 659.184 119.016 658.34 120.106C657.532 121.161 656.899 122.427 656.442 123.903C656.02 125.344 655.774 126.891 655.704 128.544H675.532Z" fill="#105388"/>
<path d="M631.657 157.231C631.657 157.583 631.551 157.899 631.34 158.18C631.129 158.427 630.76 158.637 630.233 158.813C629.741 158.989 629.073 159.112 628.229 159.182C627.385 159.288 626.313 159.341 625.012 159.341C623.711 159.341 622.639 159.288 621.795 159.182C620.952 159.112 620.266 158.989 619.739 158.813C619.247 158.637 618.895 158.427 618.684 158.18C618.473 157.899 618.368 157.583 618.368 157.231V110.298C618.368 109.946 618.473 109.647 618.684 109.401C618.895 109.12 619.247 108.891 619.739 108.716C620.266 108.505 620.952 108.346 621.795 108.241C622.639 108.135 623.711 108.083 625.012 108.083C626.313 108.083 627.385 108.135 628.229 108.241C629.073 108.346 629.741 108.505 630.233 108.716C630.76 108.891 631.129 109.12 631.34 109.401C631.551 109.647 631.657 109.946 631.657 110.298V157.231ZM632.659 94.2664C632.659 96.9382 632.114 98.7839 631.024 99.8035C629.934 100.823 627.913 101.333 624.959 101.333C621.971 101.333 619.95 100.841 618.895 99.8562C617.875 98.8718 617.366 97.0964 617.366 94.53C617.366 91.8582 617.893 90.0125 618.948 88.9929C620.038 87.9382 622.077 87.4109 625.065 87.4109C628.018 87.4109 630.022 87.9207 631.077 88.9402C632.131 89.9246 632.659 91.7 632.659 94.2664Z" fill="#105388"/>
<path d="M607.399 132.341C607.399 133.958 607.03 135.153 606.292 135.927C605.588 136.7 604.604 137.087 603.338 137.087H574.704C574.704 139.091 574.932 140.919 575.389 142.571C575.881 144.188 576.637 145.577 577.657 146.737C578.711 147.862 580.047 148.723 581.665 149.321C583.317 149.919 585.286 150.218 587.571 150.218C589.891 150.218 591.93 150.059 593.688 149.743C595.446 149.391 596.958 149.022 598.223 148.635C599.524 148.214 600.596 147.844 601.44 147.528C602.284 147.177 602.969 147.001 603.497 147.001C603.813 147.001 604.077 147.071 604.288 147.212C604.499 147.317 604.674 147.528 604.815 147.844C604.956 148.161 605.043 148.618 605.079 149.216C605.149 149.778 605.184 150.499 605.184 151.378C605.184 152.151 605.167 152.819 605.131 153.382C605.096 153.909 605.043 154.366 604.973 154.753C604.903 155.139 604.797 155.473 604.657 155.755C604.516 156.001 604.323 156.247 604.077 156.493C603.866 156.739 603.25 157.073 602.231 157.495C601.211 157.917 599.911 158.339 598.329 158.76C596.747 159.147 594.936 159.481 592.897 159.762C590.858 160.079 588.678 160.237 586.358 160.237C582.174 160.237 578.5 159.71 575.336 158.655C572.208 157.6 569.588 156.001 567.479 153.856C565.37 151.712 563.788 149.005 562.733 145.735C561.713 142.466 561.204 138.634 561.204 134.239C561.204 130.055 561.749 126.294 562.838 122.954C563.928 119.579 565.51 116.731 567.584 114.411C569.659 112.055 572.172 110.262 575.125 109.032C578.114 107.802 581.471 107.186 585.198 107.186C589.135 107.186 592.493 107.766 595.27 108.927C598.083 110.087 600.385 111.704 602.178 113.778C603.971 115.817 605.29 118.243 606.133 121.055C606.977 123.868 607.399 126.927 607.399 130.231V132.341ZM594.532 128.544C594.637 124.817 593.881 121.899 592.264 119.79C590.682 117.645 588.221 116.573 584.881 116.573C583.194 116.573 581.717 116.889 580.452 117.522C579.221 118.155 578.184 119.016 577.34 120.106C576.532 121.161 575.899 122.427 575.442 123.903C575.02 125.344 574.774 126.891 574.704 128.544H594.532Z" fill="#105388"/>
<path d="M557.038 114.569C557.038 115.835 557.002 116.872 556.932 117.68C556.862 118.489 556.756 119.122 556.616 119.579C556.475 120.036 556.282 120.352 556.036 120.528C555.825 120.704 555.543 120.792 555.192 120.792C554.911 120.792 554.594 120.739 554.243 120.634C553.891 120.493 553.487 120.352 553.03 120.212C552.608 120.071 552.133 119.948 551.606 119.843C551.079 119.702 550.499 119.632 549.866 119.632C549.127 119.632 548.389 119.79 547.651 120.106C546.913 120.387 546.139 120.844 545.331 121.477C544.557 122.11 543.731 122.954 542.852 124.009C542.008 125.063 541.094 126.364 540.11 127.911V157.231C540.11 157.583 540.004 157.899 539.793 158.18C539.583 158.427 539.213 158.637 538.686 158.813C538.194 158.989 537.526 159.112 536.682 159.182C535.838 159.288 534.766 159.341 533.465 159.341C532.165 159.341 531.092 159.288 530.249 159.182C529.405 159.112 528.719 158.989 528.192 158.813C527.7 158.637 527.348 158.427 527.137 158.18C526.926 157.899 526.821 157.583 526.821 157.231V110.192C526.821 109.841 526.909 109.542 527.084 109.296C527.26 109.014 527.577 108.786 528.034 108.61C528.491 108.434 529.071 108.311 529.774 108.241C530.512 108.135 531.426 108.083 532.516 108.083C533.641 108.083 534.573 108.135 535.311 108.241C536.049 108.311 536.612 108.434 536.999 108.61C537.42 108.786 537.719 109.014 537.895 109.296C538.071 109.542 538.159 109.841 538.159 110.192V116.046C539.389 114.288 540.549 112.846 541.639 111.721C542.729 110.561 543.766 109.647 544.75 108.979C545.735 108.311 546.719 107.854 547.704 107.608C548.688 107.327 549.672 107.186 550.657 107.186C551.114 107.186 551.606 107.221 552.133 107.292C552.661 107.327 553.206 107.415 553.768 107.555C554.331 107.661 554.823 107.802 555.245 107.977C555.667 108.118 555.965 108.276 556.141 108.452C556.352 108.628 556.493 108.821 556.563 109.032C556.668 109.243 556.756 109.542 556.827 109.928C556.897 110.28 556.95 110.825 556.985 111.563C557.02 112.302 557.038 113.303 557.038 114.569Z" fill="#105388"/>
<path d="M516.327 96.4812C516.327 97.5359 516.274 98.4324 516.168 99.1707C516.098 99.8738 515.958 100.436 515.747 100.858C515.571 101.28 515.36 101.596 515.114 101.807C514.868 102.018 514.586 102.124 514.27 102.124H491.963V120.475H512.899C513.215 120.475 513.497 120.563 513.743 120.739C513.989 120.915 514.2 121.214 514.375 121.635C514.586 122.057 514.727 122.62 514.797 123.323C514.903 124.026 514.956 124.905 514.956 125.96C514.956 127.014 514.903 127.893 514.797 128.596C514.727 129.3 514.586 129.88 514.375 130.337C514.2 130.794 513.989 131.128 513.743 131.339C513.497 131.514 513.215 131.602 512.899 131.602H491.963V157.02C491.963 157.407 491.858 157.741 491.647 158.022C491.436 158.303 491.049 158.55 490.487 158.76C489.959 158.936 489.256 159.077 488.377 159.182C487.499 159.288 486.374 159.341 485.002 159.341C483.667 159.341 482.542 159.288 481.627 159.182C480.749 159.077 480.045 158.936 479.518 158.76C478.991 158.55 478.604 158.303 478.358 158.022C478.147 157.741 478.042 157.407 478.042 157.02V95.1628C478.042 93.616 478.428 92.5085 479.202 91.8406C480.01 91.1375 480.995 90.7859 482.155 90.7859H514.27C514.586 90.7859 514.868 90.8914 515.114 91.1023C515.36 91.2781 515.571 91.5945 515.747 92.0515C515.958 92.4734 516.098 93.0535 516.168 93.7917C516.274 94.53 516.327 95.4265 516.327 96.4812Z" fill="#105388"/>
<path d="M888.051 236.655C888.051 237.674 887.999 238.553 887.893 239.292C887.788 239.995 887.647 240.557 887.471 240.979C887.295 241.401 887.067 241.7 886.786 241.875C886.504 242.016 886.188 242.086 885.836 242.086H855.092C854.143 242.086 853.405 241.77 852.877 241.137C852.385 240.504 852.139 239.467 852.139 238.026V235.6C852.139 234.967 852.157 234.405 852.192 233.913C852.262 233.385 852.368 232.893 852.508 232.436C852.684 231.944 852.895 231.452 853.141 230.959C853.422 230.467 853.774 229.922 854.196 229.325L871.809 202.114H855.145C854.477 202.114 853.932 201.692 853.51 200.848C853.124 200.004 852.93 198.651 852.93 196.788C852.93 195.768 852.965 194.924 853.036 194.256C853.141 193.553 853.282 193.008 853.458 192.622C853.633 192.2 853.862 191.901 854.143 191.725C854.424 191.549 854.758 191.461 855.145 191.461H883.885C884.377 191.461 884.799 191.514 885.151 191.62C885.502 191.725 885.784 191.918 885.995 192.2C886.241 192.481 886.417 192.868 886.522 193.36C886.663 193.852 886.733 194.467 886.733 195.206V197.79C886.733 198.493 886.698 199.125 886.627 199.688C886.557 200.215 886.452 200.725 886.311 201.217C886.17 201.709 885.959 202.202 885.678 202.694C885.432 203.186 885.133 203.713 884.782 204.276L867.274 231.434H885.836C886.153 231.434 886.452 231.504 886.733 231.645C887.014 231.786 887.243 232.049 887.418 232.436C887.629 232.823 887.788 233.368 887.893 234.071C887.999 234.739 888.051 235.6 888.051 236.655Z" fill="#105388"/>
<path d="M845.547 235.653C845.547 237.2 845.442 238.395 845.231 239.239C845.055 240.047 844.809 240.627 844.493 240.979C844.176 241.295 843.702 241.594 843.069 241.875C842.471 242.122 841.75 242.333 840.907 242.508C840.098 242.719 839.202 242.877 838.217 242.983C837.268 243.088 836.301 243.141 835.317 243.141C832.68 243.141 830.395 242.807 828.461 242.139C826.528 241.471 824.928 240.452 823.663 239.081C822.397 237.674 821.465 235.917 820.868 233.807C820.27 231.698 819.971 229.202 819.971 226.319V202.219H814.329C813.661 202.219 813.151 201.815 812.799 201.006C812.448 200.163 812.272 198.774 812.272 196.84C812.272 195.821 812.307 194.959 812.377 194.256C812.483 193.553 812.624 193.008 812.799 192.622C812.975 192.2 813.186 191.901 813.432 191.725C813.713 191.549 814.03 191.461 814.381 191.461H819.971V180.967C819.971 180.616 820.059 180.299 820.235 180.018C820.446 179.737 820.797 179.508 821.29 179.333C821.817 179.122 822.502 178.981 823.346 178.911C824.225 178.805 825.297 178.752 826.563 178.752C827.864 178.752 828.936 178.805 829.78 178.911C830.659 178.981 831.344 179.122 831.836 179.333C832.329 179.508 832.68 179.737 832.891 180.018C833.102 180.299 833.208 180.616 833.208 180.967V191.461H843.438C843.79 191.461 844.088 191.549 844.334 191.725C844.616 191.901 844.844 192.2 845.02 192.622C845.196 193.008 845.319 193.553 845.389 194.256C845.495 194.959 845.547 195.821 845.547 196.84C845.547 198.774 845.372 200.163 845.02 201.006C844.668 201.815 844.159 202.219 843.491 202.219H833.208V224.315C833.208 226.881 833.612 228.815 834.42 230.116C835.229 231.381 836.67 232.014 838.745 232.014C839.448 232.014 840.081 231.961 840.643 231.856C841.206 231.715 841.698 231.575 842.12 231.434C842.577 231.258 842.946 231.118 843.227 231.012C843.543 230.872 843.825 230.801 844.071 230.801C844.282 230.801 844.475 230.872 844.651 231.012C844.862 231.118 845.02 231.364 845.125 231.75C845.231 232.102 845.319 232.594 845.389 233.227C845.495 233.86 845.547 234.668 845.547 235.653Z" fill="#105388"/>
<path d="M804.415 240.293C804.415 240.645 804.309 240.961 804.098 241.243C803.887 241.489 803.518 241.7 802.991 241.875C802.499 242.051 801.831 242.174 800.987 242.245C800.143 242.35 799.071 242.403 797.77 242.403C796.469 242.403 795.397 242.35 794.553 242.245C793.709 242.174 793.024 242.051 792.497 241.875C792.004 241.7 791.653 241.489 791.442 241.243C791.231 240.961 791.125 240.645 791.125 240.293V193.36C791.125 193.008 791.231 192.709 791.442 192.463C791.653 192.182 792.004 191.954 792.497 191.778C793.024 191.567 793.709 191.409 794.553 191.303C795.397 191.198 796.469 191.145 797.77 191.145C799.071 191.145 800.143 191.198 800.987 191.303C801.831 191.409 802.499 191.567 802.991 191.778C803.518 191.954 803.887 192.182 804.098 192.463C804.309 192.709 804.415 193.008 804.415 193.36V240.293ZM805.417 177.329C805.417 180 804.872 181.846 803.782 182.866C802.692 183.885 800.67 184.395 797.717 184.395C794.729 184.395 792.708 183.903 791.653 182.918C790.633 181.934 790.124 180.159 790.124 177.592C790.124 174.92 790.651 173.075 791.706 172.055C792.795 171 794.834 170.473 797.823 170.473C800.776 170.473 802.78 170.983 803.834 172.002C804.889 172.987 805.417 174.762 805.417 177.329Z" fill="#105388"/>
<path d="M782.635 193.149C782.635 193.536 782.583 194.01 782.477 194.573C782.372 195.135 782.178 195.944 781.897 196.999L769.346 239.555C769.17 240.153 768.942 240.645 768.661 241.032C768.379 241.383 767.94 241.665 767.342 241.875C766.78 242.086 765.954 242.227 764.864 242.297C763.809 242.368 762.42 242.403 760.698 242.403C758.975 242.403 757.569 242.35 756.479 242.245C755.389 242.174 754.528 242.034 753.895 241.823C753.297 241.612 752.858 241.331 752.577 240.979C752.295 240.592 752.084 240.118 751.944 239.555L744.034 210.973L743.928 210.499L743.823 210.973L736.545 239.555C736.405 240.153 736.194 240.645 735.913 241.032C735.667 241.383 735.227 241.665 734.594 241.875C733.961 242.086 733.1 242.227 732.01 242.297C730.92 242.368 729.514 242.403 727.792 242.403C726.034 242.403 724.61 242.35 723.52 242.245C722.465 242.174 721.622 242.034 720.989 241.823C720.391 241.612 719.952 241.331 719.67 240.979C719.389 240.592 719.178 240.118 719.038 239.555L706.592 196.999C706.276 195.979 706.065 195.188 705.959 194.625C705.889 194.028 705.854 193.536 705.854 193.149C705.854 192.797 705.942 192.499 706.118 192.252C706.329 191.971 706.68 191.76 707.172 191.62C707.7 191.444 708.385 191.321 709.229 191.25C710.108 191.18 711.198 191.145 712.499 191.145C713.905 191.145 715.047 191.18 715.926 191.25C716.805 191.321 717.491 191.444 717.983 191.62C718.475 191.795 718.809 192.042 718.985 192.358C719.196 192.639 719.354 192.991 719.459 193.413L728.793 227.954L728.899 228.586L729.004 227.954L737.758 193.413C737.864 192.991 738.022 192.639 738.233 192.358C738.479 192.042 738.831 191.795 739.288 191.62C739.745 191.444 740.377 191.321 741.186 191.25C742.03 191.18 743.102 191.145 744.403 191.145C745.704 191.145 746.758 191.198 747.567 191.303C748.375 191.374 749.008 191.497 749.465 191.672C749.958 191.813 750.292 192.024 750.467 192.305C750.678 192.551 750.836 192.85 750.942 193.202L760.329 228.006L760.487 228.586L760.592 227.954L769.557 193.413C769.627 192.991 769.768 192.639 769.979 192.358C770.19 192.042 770.542 191.795 771.034 191.62C771.526 191.444 772.194 191.321 773.038 191.25C773.881 191.18 774.954 191.145 776.254 191.145C777.555 191.145 778.61 191.18 779.418 191.25C780.262 191.321 780.913 191.444 781.37 191.62C781.862 191.76 782.196 191.971 782.372 192.252C782.547 192.499 782.635 192.797 782.635 193.149Z" fill="#105388"/>
<path d="M700.317 216.299C700.317 220.307 699.79 223.963 698.735 227.268C697.68 230.573 696.081 233.42 693.936 235.811C691.792 238.202 689.102 240.047 685.868 241.348C682.633 242.649 678.854 243.299 674.53 243.299C670.346 243.299 666.708 242.719 663.614 241.559C660.52 240.399 657.954 238.711 655.915 236.497C653.875 234.282 652.364 231.557 651.379 228.323C650.395 225.088 649.903 221.397 649.903 217.249C649.903 213.241 650.43 209.584 651.485 206.28C652.575 202.94 654.192 200.092 656.336 197.737C658.481 195.346 661.153 193.5 664.352 192.2C667.586 190.899 671.366 190.249 675.69 190.249C679.909 190.249 683.565 190.829 686.659 191.989C689.752 193.114 692.301 194.784 694.305 196.999C696.344 199.213 697.856 201.938 698.84 205.172C699.825 208.407 700.317 212.116 700.317 216.299ZM686.659 216.827C686.659 214.506 686.465 212.379 686.079 210.446C685.727 208.477 685.112 206.772 684.233 205.331C683.354 203.889 682.176 202.764 680.7 201.956C679.258 201.147 677.43 200.743 675.215 200.743C673.247 200.743 671.524 201.112 670.047 201.85C668.571 202.553 667.358 203.608 666.409 205.014C665.459 206.385 664.739 208.055 664.247 210.024C663.79 211.958 663.561 214.172 663.561 216.668C663.561 218.989 663.754 221.133 664.141 223.102C664.528 225.036 665.143 226.723 665.987 228.165C666.866 229.606 668.043 230.731 669.52 231.54C670.997 232.313 672.825 232.7 675.004 232.7C677.008 232.7 678.749 232.348 680.225 231.645C681.702 230.907 682.915 229.852 683.864 228.481C684.813 227.11 685.516 225.458 685.973 223.524C686.43 221.555 686.659 219.323 686.659 216.827Z" fill="#105388"/>
<path d="M639.461 240.293C639.461 240.645 639.356 240.961 639.145 241.243C638.934 241.489 638.565 241.7 638.038 241.875C637.545 242.051 636.877 242.174 636.034 242.245C635.19 242.35 634.118 242.403 632.817 242.403C631.516 242.403 630.444 242.35 629.6 242.245C628.756 242.174 628.071 242.051 627.543 241.875C627.051 241.7 626.7 241.489 626.489 241.243C626.278 240.961 626.172 240.645 626.172 240.293V170.948C626.172 170.596 626.278 170.28 626.489 169.999C626.7 169.717 627.051 169.489 627.543 169.313C628.071 169.102 628.756 168.944 629.6 168.838C630.444 168.733 631.516 168.68 632.817 168.68C634.118 168.68 635.19 168.733 636.034 168.838C636.877 168.944 637.545 169.102 638.038 169.313C638.565 169.489 638.934 169.717 639.145 169.999C639.356 170.28 639.461 170.596 639.461 170.948V240.293Z" fill="#105388"/>
<path d="M617.999 197.631C617.999 198.897 617.963 199.934 617.893 200.743C617.823 201.551 617.717 202.184 617.577 202.641C617.436 203.098 617.243 203.415 616.997 203.59C616.786 203.766 616.504 203.854 616.153 203.854C615.872 203.854 615.555 203.801 615.204 203.696C614.852 203.555 614.448 203.415 613.991 203.274C613.569 203.133 613.094 203.01 612.567 202.905C612.04 202.764 611.459 202.694 610.827 202.694C610.088 202.694 609.35 202.852 608.612 203.168C607.874 203.45 607.1 203.907 606.292 204.54C605.518 205.172 604.692 206.016 603.813 207.071C602.969 208.125 602.055 209.426 601.071 210.973V240.293C601.071 240.645 600.965 240.961 600.754 241.243C600.543 241.489 600.174 241.7 599.647 241.875C599.155 242.051 598.487 242.174 597.643 242.245C596.799 242.35 595.727 242.403 594.426 242.403C593.125 242.403 592.053 242.35 591.209 242.245C590.366 242.174 589.68 242.051 589.153 241.875C588.661 241.7 588.309 241.489 588.098 241.243C587.887 240.961 587.782 240.645 587.782 240.293V193.254C587.782 192.903 587.87 192.604 588.045 192.358C588.221 192.077 588.538 191.848 588.995 191.672C589.452 191.497 590.032 191.374 590.735 191.303C591.473 191.198 592.387 191.145 593.477 191.145C594.602 191.145 595.534 191.198 596.272 191.303C597.01 191.374 597.573 191.497 597.959 191.672C598.381 191.848 598.68 192.077 598.856 192.358C599.032 192.604 599.12 192.903 599.12 193.254V199.108C600.35 197.35 601.51 195.909 602.6 194.784C603.69 193.624 604.727 192.709 605.711 192.042C606.696 191.374 607.68 190.917 608.665 190.67C609.649 190.389 610.633 190.249 611.618 190.249C612.075 190.249 612.567 190.284 613.094 190.354C613.622 190.389 614.167 190.477 614.729 190.618C615.292 190.723 615.784 190.864 616.206 191.04C616.627 191.18 616.926 191.338 617.102 191.514C617.313 191.69 617.454 191.883 617.524 192.094C617.629 192.305 617.717 192.604 617.788 192.991C617.858 193.342 617.911 193.887 617.946 194.625C617.981 195.364 617.999 196.366 617.999 197.631Z" fill="#105388"/>
<path d="M574.493 240.452C574.493 240.944 574.317 241.331 573.965 241.612C573.614 241.893 573.051 242.086 572.278 242.192C571.54 242.333 570.432 242.403 568.956 242.403C567.374 242.403 566.213 242.333 565.475 242.192C564.772 242.086 564.262 241.893 563.946 241.612C563.665 241.331 563.524 240.944 563.524 240.452V236.708C561.59 238.782 559.375 240.399 556.879 241.559C554.418 242.719 551.676 243.299 548.653 243.299C546.157 243.299 543.854 242.965 541.745 242.297C539.67 241.665 537.86 240.715 536.313 239.45C534.801 238.149 533.624 236.549 532.78 234.651C531.936 232.752 531.514 230.538 531.514 228.006C531.514 225.264 532.042 222.891 533.096 220.887C534.186 218.848 535.786 217.178 537.895 215.877C540.04 214.542 542.694 213.557 545.858 212.924C549.022 212.292 552.696 211.975 556.879 211.975H561.467V209.127C561.467 207.651 561.309 206.368 560.993 205.278C560.711 204.153 560.219 203.221 559.516 202.483C558.848 201.745 557.934 201.2 556.774 200.848C555.649 200.497 554.243 200.321 552.555 200.321C550.34 200.321 548.354 200.567 546.596 201.059C544.874 201.551 543.344 202.096 542.008 202.694C540.672 203.292 539.547 203.836 538.633 204.329C537.754 204.821 537.034 205.067 536.471 205.067C536.084 205.067 535.733 204.944 535.417 204.698C535.135 204.452 534.889 204.1 534.678 203.643C534.502 203.186 534.362 202.624 534.256 201.956C534.151 201.288 534.098 200.549 534.098 199.741C534.098 198.651 534.186 197.79 534.362 197.157C534.538 196.524 534.872 195.961 535.364 195.469C535.856 194.942 536.717 194.379 537.948 193.782C539.178 193.149 540.62 192.569 542.272 192.042C543.924 191.514 545.717 191.092 547.651 190.776C549.62 190.424 551.641 190.249 553.715 190.249C557.407 190.249 560.553 190.618 563.155 191.356C565.792 192.059 567.954 193.167 569.641 194.678C571.329 196.155 572.559 198.071 573.333 200.426C574.106 202.782 574.493 205.577 574.493 208.811V240.452ZM561.467 220.307H556.405C554.26 220.307 552.432 220.465 550.92 220.782C549.409 221.098 548.178 221.573 547.229 222.206C546.28 222.838 545.577 223.612 545.12 224.526C544.698 225.405 544.487 226.424 544.487 227.584C544.487 229.553 545.102 231.1 546.333 232.225C547.598 233.35 549.338 233.913 551.553 233.913C553.417 233.913 555.122 233.438 556.668 232.489C558.25 231.54 559.85 230.151 561.467 228.323V220.307Z" fill="#105388"/>
<path d="M525.239 231.75C525.239 232.629 525.204 233.385 525.133 234.018C525.098 234.616 525.028 235.143 524.922 235.6C524.817 236.022 524.676 236.391 524.5 236.708C524.325 237.024 524.043 237.393 523.657 237.815C523.27 238.202 522.514 238.711 521.389 239.344C520.299 239.977 518.946 240.592 517.329 241.19C515.747 241.752 513.918 242.227 511.844 242.614C509.805 243 507.59 243.194 505.2 243.194C500.524 243.194 496.305 242.473 492.543 241.032C488.782 239.59 485.583 237.446 482.946 234.598C480.309 231.715 478.288 228.129 476.881 223.84C475.475 219.551 474.772 214.559 474.772 208.864C474.772 203.063 475.545 197.913 477.092 193.413C478.639 188.913 480.801 185.133 483.579 182.075C486.356 179.016 489.678 176.696 493.545 175.114C497.448 173.532 501.737 172.741 506.413 172.741C508.311 172.741 510.139 172.899 511.897 173.215C513.655 173.532 515.272 173.954 516.749 174.481C518.26 174.973 519.614 175.553 520.809 176.221C522.004 176.889 522.831 177.469 523.288 177.961C523.78 178.418 524.114 178.805 524.29 179.122C524.465 179.438 524.606 179.842 524.711 180.334C524.817 180.827 524.887 181.407 524.922 182.075C524.993 182.743 525.028 183.569 525.028 184.553C525.028 185.608 524.993 186.504 524.922 187.243C524.852 187.981 524.729 188.579 524.553 189.036C524.377 189.493 524.167 189.827 523.92 190.038C523.674 190.249 523.393 190.354 523.077 190.354C522.549 190.354 521.881 190.055 521.073 189.458C520.264 188.825 519.209 188.139 517.909 187.401C516.643 186.627 515.114 185.942 513.321 185.344C511.563 184.711 509.454 184.395 506.993 184.395C504.286 184.395 501.86 184.958 499.715 186.083C497.606 187.172 495.795 188.754 494.284 190.829C492.807 192.868 491.682 195.346 490.909 198.264C490.135 201.182 489.749 204.469 489.749 208.125C489.749 212.133 490.153 215.614 490.961 218.567C491.805 221.485 492.983 223.893 494.495 225.792C496.042 227.69 497.887 229.114 500.032 230.063C502.211 230.977 504.655 231.434 507.362 231.434C509.823 231.434 511.95 231.153 513.743 230.59C515.536 229.993 517.065 229.342 518.331 228.639C519.631 227.936 520.686 227.303 521.495 226.741C522.338 226.178 522.989 225.897 523.446 225.897C523.797 225.897 524.079 225.967 524.29 226.108C524.5 226.249 524.676 226.53 524.817 226.952C524.958 227.374 525.063 227.971 525.133 228.745C525.204 229.483 525.239 230.485 525.239 231.75Z" fill="#105388"/>
<path d="M792.497 326.591C792.497 328.137 792.391 329.333 792.18 330.177C792.004 330.985 791.758 331.565 791.442 331.917C791.125 332.233 790.651 332.532 790.018 332.813C789.42 333.059 788.7 333.27 787.856 333.446C787.047 333.657 786.151 333.815 785.167 333.921C784.217 334.026 783.25 334.079 782.266 334.079C779.629 334.079 777.344 333.745 775.411 333.077C773.477 332.409 771.877 331.389 770.612 330.018C769.346 328.612 768.415 326.854 767.817 324.745C767.219 322.635 766.92 320.139 766.92 317.257V293.157H761.278C760.61 293.157 760.1 292.753 759.749 291.944C759.397 291.1 759.221 289.712 759.221 287.778C759.221 286.759 759.256 285.897 759.327 285.194C759.432 284.491 759.573 283.946 759.749 283.559C759.924 283.137 760.135 282.839 760.381 282.663C760.663 282.487 760.979 282.399 761.331 282.399H766.92V271.905C766.92 271.553 767.008 271.237 767.184 270.956C767.395 270.675 767.747 270.446 768.239 270.27C768.766 270.059 769.452 269.919 770.295 269.848C771.174 269.743 772.247 269.69 773.512 269.69C774.813 269.69 775.885 269.743 776.729 269.848C777.608 269.919 778.293 270.059 778.786 270.27C779.278 270.446 779.629 270.675 779.84 270.956C780.051 271.237 780.157 271.553 780.157 271.905V282.399H790.387C790.739 282.399 791.038 282.487 791.284 282.663C791.565 282.839 791.793 283.137 791.969 283.559C792.145 283.946 792.268 284.491 792.338 285.194C792.444 285.897 792.497 286.759 792.497 287.778C792.497 289.712 792.321 291.1 791.969 291.944C791.618 292.753 791.108 293.157 790.44 293.157H780.157V315.253C780.157 317.819 780.561 319.753 781.37 321.053C782.178 322.319 783.62 322.952 785.694 322.952C786.397 322.952 787.03 322.899 787.592 322.794C788.155 322.653 788.647 322.512 789.069 322.372C789.526 322.196 789.895 322.055 790.176 321.95C790.493 321.809 790.774 321.739 791.02 321.739C791.231 321.739 791.424 321.809 791.6 321.95C791.811 322.055 791.969 322.302 792.075 322.688C792.18 323.04 792.268 323.532 792.338 324.165C792.444 324.798 792.497 325.606 792.497 326.591Z" fill="#8DC63F"/>
<path d="M751.258 331.231C751.258 331.583 751.17 331.899 750.995 332.18C750.819 332.427 750.502 332.637 750.045 332.813C749.624 332.989 749.043 333.112 748.305 333.182C747.602 333.288 746.706 333.341 745.616 333.341C744.456 333.341 743.506 333.288 742.768 333.182C742.065 333.112 741.502 332.989 741.081 332.813C740.659 332.637 740.36 332.427 740.184 332.18C740.008 331.899 739.92 331.583 739.92 331.231V325.8C737.319 328.612 734.665 330.721 731.958 332.128C729.286 333.534 726.508 334.237 723.625 334.237C720.391 334.237 717.667 333.71 715.452 332.655C713.272 331.6 711.497 330.159 710.125 328.331C708.79 326.503 707.823 324.393 707.225 322.003C706.663 319.577 706.381 316.571 706.381 312.985V284.192C706.381 283.841 706.469 283.542 706.645 283.296C706.856 283.014 707.208 282.786 707.7 282.61C708.227 282.434 708.913 282.311 709.756 282.241C710.635 282.135 711.708 282.083 712.973 282.083C714.274 282.083 715.346 282.135 716.19 282.241C717.034 282.311 717.702 282.434 718.194 282.61C718.721 282.786 719.09 283.014 719.301 283.296C719.512 283.542 719.618 283.841 719.618 284.192V310.77C719.618 313.231 719.776 315.112 720.092 316.413C720.409 317.714 720.883 318.839 721.516 319.788C722.184 320.702 723.01 321.423 723.995 321.95C725.014 322.442 726.192 322.688 727.528 322.688C729.215 322.688 730.903 322.073 732.59 320.843C734.313 319.612 736.141 317.819 738.075 315.464V284.192C738.075 283.841 738.163 283.542 738.338 283.296C738.549 283.014 738.901 282.786 739.393 282.61C739.92 282.434 740.606 282.311 741.45 282.241C742.293 282.135 743.366 282.083 744.667 282.083C745.967 282.083 747.04 282.135 747.883 282.241C748.727 282.311 749.395 282.434 749.887 282.61C750.379 282.786 750.731 283.014 750.942 283.296C751.153 283.542 751.258 283.841 751.258 284.192V331.231Z" fill="#8DC63F"/>
<path d="M697.047 326.591C697.047 328.137 696.942 329.333 696.731 330.177C696.555 330.985 696.309 331.565 695.993 331.917C695.676 332.233 695.202 332.532 694.569 332.813C693.971 333.059 693.25 333.27 692.407 333.446C691.598 333.657 690.702 333.815 689.717 333.921C688.768 334.026 687.801 334.079 686.817 334.079C684.18 334.079 681.895 333.745 679.961 333.077C678.028 332.409 676.428 331.389 675.163 330.018C673.897 328.612 672.965 326.854 672.368 324.745C671.77 322.635 671.471 320.139 671.471 317.257V293.157H665.829C665.161 293.157 664.651 292.753 664.299 291.944C663.948 291.1 663.772 289.712 663.772 287.778C663.772 286.759 663.807 285.897 663.877 285.194C663.983 284.491 664.124 283.946 664.299 283.559C664.475 283.137 664.686 282.839 664.932 282.663C665.213 282.487 665.53 282.399 665.881 282.399H671.471V271.905C671.471 271.553 671.559 271.237 671.735 270.956C671.946 270.675 672.297 270.446 672.79 270.27C673.317 270.059 674.002 269.919 674.846 269.848C675.725 269.743 676.797 269.69 678.063 269.69C679.364 269.69 680.436 269.743 681.28 269.848C682.159 269.919 682.844 270.059 683.336 270.27C683.829 270.446 684.18 270.675 684.391 270.956C684.602 271.237 684.708 271.553 684.708 271.905V282.399H694.938C695.29 282.399 695.588 282.487 695.834 282.663C696.116 282.839 696.344 283.137 696.52 283.559C696.696 283.946 696.819 284.491 696.889 285.194C696.995 285.897 697.047 286.759 697.047 287.778C697.047 289.712 696.872 291.1 696.52 291.944C696.168 292.753 695.659 293.157 694.991 293.157H684.708V315.253C684.708 317.819 685.112 319.753 685.92 321.053C686.729 322.319 688.17 322.952 690.245 322.952C690.948 322.952 691.581 322.899 692.143 322.794C692.706 322.653 693.198 322.512 693.62 322.372C694.077 322.196 694.446 322.055 694.727 321.95C695.043 321.809 695.325 321.739 695.571 321.739C695.782 321.739 695.975 321.809 696.151 321.95C696.362 322.055 696.52 322.302 696.625 322.688C696.731 323.04 696.819 323.532 696.889 324.165C696.995 324.798 697.047 325.606 697.047 326.591Z" fill="#8DC63F"/>
<path d="M651.854 282.399C653.331 282.399 654.35 282.716 654.913 283.348C655.51 283.981 655.809 284.895 655.809 286.091V331.231C655.809 331.583 655.704 331.899 655.493 332.18C655.282 332.427 654.93 332.637 654.438 332.813C653.946 332.989 653.26 333.112 652.381 333.182C651.538 333.288 650.483 333.341 649.217 333.341C647.917 333.341 646.827 333.288 645.948 333.182C645.104 333.112 644.436 332.989 643.944 332.813C643.452 332.637 643.1 332.427 642.889 332.18C642.678 331.899 642.573 331.583 642.573 331.231V293.157H621.426V315.253C621.426 317.819 621.831 319.753 622.639 321.053C623.448 322.319 624.889 322.952 626.963 322.952C627.667 322.952 628.299 322.899 628.862 322.794C629.424 322.653 629.917 322.512 630.338 322.372C630.795 322.196 631.165 322.055 631.446 321.95C631.762 321.809 632.043 321.739 632.29 321.739C632.5 321.739 632.694 321.809 632.87 321.95C633.081 322.055 633.239 322.302 633.344 322.688C633.45 323.04 633.538 323.532 633.608 324.165C633.713 324.798 633.766 325.606 633.766 326.591C633.766 328.137 633.678 329.315 633.502 330.124C633.327 330.897 633.081 331.477 632.764 331.864C632.448 332.216 631.973 332.532 631.34 332.813C630.708 333.059 629.969 333.27 629.125 333.446C628.317 333.657 627.42 333.815 626.436 333.921C625.487 334.026 624.52 334.079 623.536 334.079C620.899 334.079 618.614 333.745 616.68 333.077C614.747 332.409 613.147 331.389 611.881 330.018C610.616 328.612 609.684 326.854 609.086 324.745C608.489 322.635 608.19 320.139 608.19 317.257V293.157H602.547C601.879 293.157 601.37 292.753 601.018 291.944C600.667 291.1 600.491 289.712 600.491 287.778C600.491 286.759 600.526 285.897 600.596 285.194C600.702 284.491 600.842 283.946 601.018 283.559C601.194 283.137 601.405 282.839 601.651 282.663C601.932 282.487 602.249 282.399 602.6 282.399H608.19V271.905C608.19 271.553 608.278 271.237 608.454 270.956C608.665 270.675 609.016 270.446 609.508 270.27C610.036 270.059 610.721 269.919 611.565 269.848C612.444 269.743 613.516 269.69 614.782 269.69C616.083 269.69 617.155 269.743 617.999 269.848C618.877 269.919 619.563 270.059 620.055 270.27C620.547 270.446 620.899 270.675 621.11 270.956C621.321 271.237 621.426 271.553 621.426 271.905V282.399H651.854ZM656.864 268.266C656.864 270.938 656.319 272.784 655.229 273.803C654.139 274.823 652.118 275.333 649.165 275.333C646.176 275.333 644.155 274.841 643.1 273.856C642.081 272.872 641.571 271.096 641.571 268.53C641.571 265.858 642.098 264.012 643.153 262.993C644.243 261.938 646.282 261.411 649.27 261.411C652.223 261.411 654.227 261.921 655.282 262.94C656.336 263.925 656.864 265.7 656.864 268.266Z" fill="#8DC63F"/>
<path d="M597.168 317.942C597.168 320.614 596.659 322.969 595.639 325.009C594.655 327.048 593.249 328.753 591.42 330.124C589.592 331.495 587.43 332.514 584.934 333.182C582.438 333.885 579.731 334.237 576.813 334.237C575.055 334.237 573.368 334.096 571.75 333.815C570.168 333.569 568.745 333.253 567.479 332.866C566.213 332.444 565.159 332.022 564.315 331.6C563.471 331.178 562.856 330.792 562.469 330.44C562.083 330.053 561.784 329.473 561.573 328.7C561.362 327.891 561.256 326.714 561.256 325.167C561.256 324.147 561.292 323.339 561.362 322.741C561.432 322.108 561.538 321.616 561.678 321.264C561.819 320.878 561.995 320.632 562.206 320.526C562.417 320.385 562.68 320.315 562.997 320.315C563.383 320.315 563.946 320.544 564.684 321.001C565.458 321.423 566.407 321.897 567.532 322.425C568.657 322.952 569.958 323.444 571.434 323.901C572.946 324.358 574.651 324.587 576.549 324.587C577.745 324.587 578.799 324.464 579.713 324.218C580.663 323.971 581.471 323.62 582.139 323.163C582.842 322.706 583.37 322.126 583.721 321.423C584.073 320.719 584.249 319.911 584.249 318.997C584.249 317.942 583.915 317.046 583.247 316.307C582.614 315.534 581.752 314.866 580.663 314.303C579.608 313.741 578.395 313.214 577.024 312.721C575.688 312.229 574.299 311.684 572.858 311.087C571.452 310.489 570.063 309.803 568.692 309.03C567.356 308.257 566.143 307.307 565.053 306.182C563.999 305.057 563.137 303.704 562.469 302.122C561.836 300.54 561.52 298.641 561.52 296.427C561.52 294.177 561.959 292.12 562.838 290.257C563.717 288.358 564.983 286.741 566.635 285.405C568.288 284.069 570.292 283.032 572.647 282.294C575.038 281.555 577.709 281.186 580.663 281.186C582.139 281.186 583.563 281.292 584.934 281.503C586.34 281.714 587.606 281.977 588.731 282.294C589.856 282.61 590.805 282.962 591.579 283.348C592.352 283.7 592.897 284.016 593.213 284.298C593.565 284.544 593.811 284.807 593.952 285.089C594.092 285.335 594.198 285.651 594.268 286.038C594.338 286.389 594.391 286.846 594.426 287.409C594.497 287.936 594.532 288.604 594.532 289.413C594.532 290.362 594.497 291.135 594.426 291.733C594.391 292.331 594.303 292.805 594.163 293.157C594.057 293.509 593.899 293.755 593.688 293.895C593.477 294.001 593.231 294.053 592.95 294.053C592.633 294.053 592.141 293.878 591.473 293.526C590.805 293.139 589.961 292.735 588.942 292.313C587.958 291.891 586.797 291.505 585.461 291.153C584.161 290.766 582.667 290.573 580.979 290.573C579.784 290.573 578.747 290.696 577.868 290.942C576.989 291.188 576.268 291.54 575.706 291.997C575.143 292.454 574.721 292.999 574.44 293.632C574.159 294.229 574.018 294.88 574.018 295.583C574.018 296.673 574.352 297.587 575.02 298.325C575.688 299.063 576.567 299.714 577.657 300.276C578.747 300.839 579.977 301.366 581.348 301.858C582.754 302.35 584.161 302.895 585.567 303.493C587.008 304.055 588.415 304.723 589.786 305.497C591.192 306.27 592.44 307.219 593.53 308.344C594.62 309.469 595.499 310.823 596.167 312.405C596.834 313.952 597.168 315.798 597.168 317.942Z" fill="#8DC63F"/>
<path d="M550.973 331.231C550.973 331.583 550.868 331.899 550.657 332.18C550.446 332.427 550.094 332.637 549.602 332.813C549.11 332.989 548.424 333.112 547.545 333.182C546.702 333.288 545.647 333.341 544.381 333.341C543.081 333.341 541.991 333.288 541.112 333.182C540.268 333.112 539.6 332.989 539.108 332.813C538.616 332.637 538.264 332.427 538.053 332.18C537.842 331.899 537.737 331.583 537.737 331.231V304.389C537.737 302.104 537.561 300.311 537.209 299.01C536.893 297.71 536.418 296.602 535.786 295.688C535.153 294.739 534.327 294.018 533.307 293.526C532.323 292.999 531.163 292.735 529.827 292.735C528.139 292.735 526.434 293.35 524.711 294.581C522.989 295.811 521.196 297.604 519.333 299.96V331.231C519.333 331.583 519.227 331.899 519.016 332.18C518.805 332.427 518.436 332.637 517.909 332.813C517.417 332.989 516.749 333.112 515.905 333.182C515.061 333.288 513.989 333.341 512.688 333.341C511.387 333.341 510.315 333.288 509.471 333.182C508.627 333.112 507.942 332.989 507.415 332.813C506.922 332.637 506.571 332.427 506.36 332.18C506.149 331.899 506.043 331.583 506.043 331.231V284.192C506.043 283.841 506.131 283.542 506.307 283.296C506.483 283.014 506.799 282.786 507.256 282.61C507.713 282.434 508.293 282.311 508.997 282.241C509.735 282.135 510.649 282.083 511.739 282.083C512.864 282.083 513.795 282.135 514.534 282.241C515.272 282.311 515.834 282.434 516.221 282.61C516.643 282.786 516.942 283.014 517.118 283.296C517.293 283.542 517.381 283.841 517.381 284.192V289.624C519.983 286.811 522.62 284.702 525.292 283.296C527.999 281.889 530.811 281.186 533.729 281.186C536.928 281.186 539.618 281.714 541.797 282.768C544.012 283.823 545.788 285.264 547.124 287.093C548.495 288.885 549.479 290.995 550.077 293.421C550.674 295.846 550.973 298.764 550.973 302.175V331.231Z" fill="#8DC63F"/>
<path d="M491.963 331.126C491.963 331.477 491.84 331.794 491.594 332.075C491.383 332.356 491.014 332.585 490.487 332.76C489.959 332.936 489.256 333.077 488.377 333.182C487.499 333.288 486.374 333.341 485.002 333.341C483.667 333.341 482.542 333.288 481.627 333.182C480.749 333.077 480.045 332.936 479.518 332.76C478.991 332.585 478.604 332.356 478.358 332.075C478.147 331.794 478.042 331.477 478.042 331.126V266.684C478.042 266.333 478.147 266.016 478.358 265.735C478.604 265.454 478.991 265.225 479.518 265.05C480.081 264.874 480.801 264.733 481.68 264.628C482.559 264.522 483.667 264.469 485.002 264.469C486.374 264.469 487.499 264.522 488.377 264.628C489.256 264.733 489.959 264.874 490.487 265.05C491.014 265.225 491.383 265.454 491.594 265.735C491.84 266.016 491.963 266.333 491.963 266.684V331.126Z" fill="#8DC63F"/>
<path d="M820.081 334.882C819.993 334.882 819.914 334.851 819.843 334.79C819.773 334.737 819.716 334.645 819.672 334.513C819.628 334.381 819.593 334.205 819.566 333.986C819.54 333.766 819.527 333.489 819.527 333.155C819.527 332.812 819.54 332.527 819.566 332.298C819.593 332.078 819.628 331.903 819.672 331.771C819.716 331.648 819.773 331.555 819.843 331.494C819.914 331.441 819.993 331.415 820.081 331.415L826.976 331.415L826.976 325.034L820.081 325.034C819.993 325.034 819.914 325.008 819.843 324.955C819.773 324.902 819.716 324.81 819.672 324.678C819.628 324.546 819.593 324.37 819.566 324.151C819.54 323.931 819.527 323.65 819.527 323.307C819.527 322.973 819.54 322.692 819.566 322.463C819.593 322.243 819.628 322.068 819.672 321.936C819.716 321.804 819.773 321.707 819.843 321.646C819.914 321.593 819.993 321.567 820.081 321.567L836.191 321.567C836.279 321.567 836.358 321.593 836.428 321.646C836.499 321.707 836.556 321.804 836.6 321.936C836.644 322.068 836.679 322.243 836.705 322.463C836.731 322.692 836.745 322.973 836.745 323.307C836.745 323.65 836.731 323.931 836.705 324.151C836.679 324.37 836.644 324.546 836.6 324.678C836.556 324.81 836.499 324.902 836.428 324.955C836.358 325.008 836.279 325.034 836.191 325.034L829.929 325.034L829.929 331.415L836.191 331.415C836.279 331.415 836.358 331.441 836.428 331.494C836.499 331.555 836.556 331.648 836.6 331.771C836.644 331.903 836.679 332.078 836.705 332.298C836.731 332.527 836.745 332.812 836.745 333.155C836.745 333.489 836.731 333.766 836.705 333.986C836.679 334.205 836.644 334.381 836.6 334.513C836.556 334.645 836.499 334.737 836.428 334.79C836.358 334.851 836.279 334.882 836.191 334.882L820.081 334.882Z" fill="#8DC63F"/>
<path d="M826.092 318.706C825.046 318.706 824.106 318.592 823.271 318.363C822.436 318.135 821.724 317.805 821.135 317.374C820.546 316.944 820.094 316.412 819.777 315.779C819.461 315.155 819.303 314.443 819.303 313.643C819.303 313.248 819.342 312.879 819.421 312.536C819.492 312.193 819.61 311.864 819.777 311.547C819.944 311.24 820.155 310.932 820.41 310.624C820.665 310.325 820.973 310.018 821.333 309.701L820.054 309.701C819.958 309.701 819.874 309.675 819.804 309.622C819.742 309.578 819.689 309.499 819.646 309.385C819.602 309.28 819.571 309.135 819.553 308.95C819.536 308.765 819.527 308.541 819.527 308.278C819.527 308.005 819.536 307.777 819.553 307.592C819.571 307.416 819.602 307.271 819.646 307.157C819.689 307.052 819.742 306.977 819.804 306.933C819.874 306.889 819.958 306.867 820.054 306.867L837.391 306.867C837.479 306.867 837.558 306.893 837.628 306.946C837.698 306.999 837.755 307.087 837.799 307.21C837.852 307.342 837.892 307.513 837.918 307.724C837.944 307.935 837.958 308.203 837.958 308.528C837.958 308.853 837.944 309.121 837.918 309.332C837.892 309.543 837.852 309.71 837.799 309.833C837.755 309.965 837.698 310.057 837.628 310.11C837.558 310.163 837.479 310.189 837.391 310.189L830.891 310.189C831.19 310.488 831.445 310.787 831.656 311.086C831.867 311.385 832.038 311.683 832.17 311.982C832.311 312.281 832.412 312.589 832.473 312.905C832.535 313.221 832.565 313.555 832.565 313.907C832.565 314.777 832.39 315.515 832.038 316.122C831.695 316.728 831.229 317.22 830.641 317.598C830.052 317.985 829.362 318.266 828.571 318.442C827.789 318.618 826.962 318.706 826.092 318.706ZM825.855 315.265C826.356 315.265 826.839 315.225 827.305 315.146C827.771 315.076 828.184 314.948 828.544 314.764C828.905 314.579 829.19 314.338 829.401 314.039C829.621 313.749 829.731 313.38 829.731 312.931C829.731 312.712 829.7 312.496 829.639 312.285C829.577 312.074 829.472 311.855 829.322 311.626C829.173 311.406 828.979 311.178 828.742 310.941C828.505 310.703 828.21 310.453 827.859 310.189L823.957 310.189C823.359 310.655 822.902 311.099 822.585 311.521C822.278 311.951 822.124 312.4 822.124 312.865C822.124 313.296 822.234 313.661 822.454 313.96C822.673 314.259 822.959 314.505 823.311 314.698C823.662 314.9 824.062 315.045 824.51 315.133C824.958 315.221 825.407 315.265 825.855 315.265Z" fill="#8DC63F"/>
<path d="M820.054 303.611C819.966 303.611 819.887 303.584 819.817 303.531C819.755 303.479 819.703 303.391 819.659 303.268C819.615 303.145 819.584 302.978 819.566 302.767C819.54 302.556 819.527 302.288 819.527 301.963C819.527 301.629 819.54 301.356 819.566 301.145C819.584 300.934 819.615 300.763 819.659 300.631C819.703 300.508 819.755 300.42 819.817 300.367C819.887 300.323 819.966 300.302 820.054 300.302L827.028 300.302C827.424 300.302 827.784 300.262 828.109 300.183C828.435 300.113 828.711 299.998 828.94 299.84C829.177 299.691 829.357 299.497 829.48 299.26C829.612 299.031 829.678 298.755 829.678 298.429C829.678 298.034 829.524 297.634 829.217 297.23C828.909 296.825 828.461 296.386 827.872 295.911L820.054 295.911C819.966 295.911 819.887 295.885 819.817 295.832C819.755 295.78 819.703 295.687 819.659 295.555C819.615 295.432 819.584 295.265 819.566 295.054C819.54 294.844 819.527 294.58 819.527 294.263C819.527 293.938 819.54 293.67 819.566 293.459C819.584 293.248 819.615 293.077 819.659 292.945C819.703 292.822 819.755 292.734 819.817 292.681C819.887 292.629 819.966 292.602 820.054 292.602L827.028 292.602C827.424 292.602 827.784 292.563 828.109 292.484C828.435 292.413 828.711 292.303 828.94 292.154C829.177 292.005 829.357 291.811 829.48 291.574C829.612 291.337 829.678 291.06 829.678 290.743C829.678 290.339 829.524 289.935 829.217 289.531C828.909 289.126 828.461 288.691 827.872 288.225L820.054 288.225C819.966 288.225 819.887 288.199 819.817 288.146C819.755 288.094 819.703 288.001 819.659 287.869C819.615 287.746 819.584 287.579 819.566 287.368C819.54 287.157 819.527 286.889 819.527 286.564C819.527 286.239 819.54 285.971 819.566 285.76C819.584 285.549 819.615 285.378 819.659 285.246C819.703 285.123 819.755 285.035 819.817 284.982C819.887 284.929 819.966 284.903 820.054 284.903L831.814 284.903C831.902 284.903 831.977 284.925 832.038 284.969C832.108 285.013 832.166 285.092 832.209 285.206C832.253 285.321 832.284 285.466 832.302 285.641C832.328 285.826 832.341 286.054 832.341 286.327C832.341 286.608 832.328 286.841 832.302 287.026C832.284 287.21 832.253 287.351 832.209 287.448C832.166 287.553 832.108 287.628 832.038 287.672C831.977 287.716 831.902 287.738 831.814 287.738L830.456 287.738C831.159 288.388 831.687 289.034 832.038 289.676C832.39 290.326 832.565 291.003 832.565 291.706C832.565 292.189 832.513 292.624 832.407 293.011C832.311 293.398 832.166 293.74 831.972 294.039C831.788 294.347 831.563 294.611 831.3 294.83C831.036 295.05 830.742 295.235 830.417 295.384C830.794 295.736 831.12 296.078 831.392 296.412C831.665 296.755 831.884 297.089 832.051 297.414C832.227 297.748 832.354 298.078 832.434 298.403C832.521 298.737 832.565 299.075 832.565 299.418C832.565 300.2 832.434 300.86 832.17 301.396C831.906 301.932 831.546 302.363 831.089 302.688C830.641 303.022 830.113 303.259 829.507 303.4C828.9 303.54 828.259 303.611 827.582 303.611L820.054 303.611Z" fill="#8DC63F"/>
<path d="M834.016 281.568C833.761 281.568 833.541 281.554 833.356 281.528C833.172 281.51 833.022 281.48 832.908 281.436C832.803 281.401 832.728 281.352 832.684 281.291C832.64 281.238 832.618 281.172 832.618 281.093C832.618 280.979 832.697 280.794 832.855 280.539C833.014 280.284 833.185 279.946 833.37 279.524C833.554 279.102 833.726 278.597 833.884 278.008C834.042 277.428 834.121 276.751 834.121 275.978C834.121 275.152 833.976 274.405 833.686 273.737C833.405 273.069 833 272.497 832.473 272.023C831.955 271.548 831.326 271.183 830.588 270.928C829.858 270.674 829.05 270.546 828.162 270.546C827.187 270.546 826.325 270.674 825.578 270.928C824.84 271.192 824.22 271.557 823.719 272.023C823.218 272.489 822.84 273.047 822.585 273.697C822.331 274.356 822.203 275.081 822.203 275.872C822.203 276.259 822.247 276.641 822.335 277.019C822.423 277.397 822.555 277.749 822.73 278.074L826.686 278.074L826.686 274.844C826.686 274.686 826.782 274.563 826.976 274.475C827.178 274.387 827.516 274.343 827.991 274.343C828.237 274.343 828.443 274.352 828.61 274.369C828.777 274.396 828.909 274.431 829.006 274.475C829.111 274.519 829.186 274.572 829.23 274.633C829.283 274.695 829.309 274.765 829.309 274.844L829.309 280.605C829.309 280.746 829.283 280.869 829.23 280.974C829.186 281.089 829.116 281.185 829.019 281.264C828.922 281.352 828.804 281.418 828.663 281.462C828.531 281.506 828.377 281.528 828.202 281.528L821.412 281.528C821.148 281.528 820.916 281.48 820.713 281.383C820.52 281.295 820.366 281.106 820.252 280.816C820.138 280.535 820.019 280.183 819.896 279.761C819.773 279.34 819.667 278.9 819.58 278.443C819.492 277.995 819.426 277.538 819.382 277.072C819.338 276.615 819.316 276.154 819.316 275.688C819.316 274.325 819.509 273.104 819.896 272.023C820.292 270.95 820.858 270.041 821.597 269.294C822.344 268.547 823.249 267.975 824.312 267.58C825.385 267.184 826.598 266.987 827.951 266.987C829.349 266.987 830.601 267.198 831.708 267.619C832.825 268.041 833.77 268.639 834.543 269.412C835.325 270.186 835.923 271.117 836.336 272.207C836.749 273.306 836.956 274.528 836.956 275.872C836.956 276.611 836.903 277.283 836.797 277.889C836.701 278.496 836.578 279.023 836.428 279.471C836.288 279.928 836.134 280.306 835.967 280.605C835.8 280.904 835.655 281.111 835.532 281.225C835.409 281.348 835.233 281.436 835.004 281.489C834.785 281.541 834.455 281.568 834.016 281.568Z" fill="#8DC63F"/>
<path d="M4.2322 182.983C18.6177 109.481 68.4098 47.8438 137.245 18.3285C206.079 -11.1867 285.054 -4.76273 348.215 35.4892C350.121 36.7051 352.012 37.9494 353.883 39.2219C446.033 101.91 478.881 222.326 431.323 323.124C383.767 423.924 269.944 475.139 162.966 443.874C55.9881 412.611 -12.3433 308.161 1.8628 197.616C2.49274 192.714 3.28303 187.834 4.2322 182.983ZM388.733 122.055C345.704 56.3553 267.28 23.1153 190.146 37.8818C113.01 52.6484 52.4094 112.502 36.6862 189.45C20.963 266.396 53.2261 345.226 118.385 389.07C194.925 440.57 297.156 430.99 362.793 366.163C428.43 301.335 439.278 199.229 388.733 122.055Z" fill="#105388"/>
<path d="M149.806 161.574C149.762 153.77 149.233 89.1987 150.288 87.5397C151.04 86.3581 152.513 85.2827 153.66 84.4738C159.523 80.3379 165.904 76.7073 171.981 72.8792C178.049 69.0572 201.683 53.3206 206.666 52.1193C207.596 51.895 207.838 51.9967 208.69 52.3421C213.683 54.3643 218.556 57.6693 223.27 60.3399C232.447 65.5371 241.695 70.6921 250.746 76.0983C254.896 78.3742 258.967 80.7653 263.102 83.065C265.888 84.5128 268.03 85.4402 269.791 88.1687C269.882 90.68 269.993 92.8607 269.812 95.3794C269.9 101.199 269.923 107.02 269.888 112.841C269.885 114.711 269.996 120.123 269.806 121.792C270.181 139.746 269.721 157.83 269.894 175.8C269.92 178.557 269.932 181.437 269.826 184.188C275.822 187.073 281.801 189.99 287.767 192.939C292.017 194.888 296.234 196.91 300.414 199.004C301.488 199.437 303.035 200.254 304.009 200.606C318.631 205.888 315.077 208.456 315.32 221.931C334.021 220.347 354.361 215.641 371.019 206.749C375.492 204.363 388.103 195.337 391.065 194.622C392.3 194.324 393.389 194.641 394.322 195.49C399.455 200.152 400.899 227.322 400.987 234.702C401.125 245.942 400.172 257.488 397.515 268.442C395.194 279.738 390.61 294.684 385.007 304.801C362.147 354.513 311.816 385.479 260.426 398.3C243.612 402.494 223.279 406.483 206.013 407C203.482 406.982 201.307 406.815 198.833 406.165C196.509 405.433 192.119 404.796 189.129 403.996C180.627 401.739 172.244 399.052 164.012 395.948C132.751 384.194 104.072 364.183 84.4573 336.848C81.0998 332.169 79.6287 329.851 78.1348 323.152C77.6047 320.775 77.0127 318.623 77.1379 311.082C76.975 307.752 77.0267 304.149 77.0126 300.798L77.0135 220.587L77.0003 199.917C76.9991 195.933 76.6669 188.057 77.8315 184.58C78.3747 182.958 89.4176 176.909 91.7737 175.551L111.964 163.836C117.958 160.433 124.079 156.407 130.228 153.415C132.978 152.077 138.253 155.517 140.774 156.85C143.709 158.401 146.789 160.028 149.806 161.574Z" fill="#105388"/>
<path d="M386.902 207.988C387.092 207.747 388.888 208.676 389.198 208.473C388.914 212.995 390.321 221.575 390.262 227.679C390.476 233.892 390.861 238.77 390.482 244.969C389.87 261.082 385.04 277.728 379.371 292.716C367.17 319.797 353.364 338.521 329.298 356.329C325.236 359.296 321.061 362.099 316.779 364.733C315.536 365.507 310.583 368.427 309.8 369.078C288.64 380.343 273.365 385.562 249.783 391.293C233.798 394.678 223.197 396.526 206.782 398.019C208.042 391.652 208.588 387.685 211.232 381.68C211.532 380.156 212.301 376.816 213.212 375.633C219.303 359.123 231.174 340.976 243.956 328.875L245.455 327.329C247.821 324.863 252.838 320.412 255.53 318.437C256.727 317.204 258.123 316.065 259.474 315.011C276.761 301.573 296.194 291.462 315.68 281.69C319.084 279.983 322.474 278.255 325.943 276.677C326.526 276.203 331.685 273.666 332.808 273.098C338.646 270.128 344.455 267.099 350.232 264.011C352.299 262.913 356.443 260.573 357.947 259.257L359.214 258.397L358.648 257.821C359.097 256.181 363.719 253.947 364.871 252.822C366.822 251.1 371.581 246.731 372.935 244.887C370.905 246.026 366.049 252.128 364.586 252.51C362.217 251.601 361.413 244.81 362.343 244.183C366.533 241.36 383.066 229.913 383.752 224.809C383.858 224.497 384.142 224.297 384.23 224.023C384.858 222.038 384.356 217.362 383.729 215.655L383.887 215.503C383.946 214.426 383.799 214.049 383.55 213.021C384.793 210.641 385.881 211.164 386.902 207.988Z" fill="url(#paint0_linear_176_639)"/>
<path d="M370.397 222.164C375.531 219.391 378.792 218.088 384.328 214.729C384.956 216.442 385.458 221.132 384.83 223.123C384.742 223.398 384.457 223.599 384.351 223.912C383.665 229.032 367.115 240.515 362.921 243.347C361.99 243.976 362.981 250.8 365.353 251.712C367.974 249.149 370.17 246.569 373.729 243.801C373.729 244.585 366.427 251.063 364.616 252.837C363.462 253.965 359.779 256.39 359.508 256.757C359.344 256.978 359.389 257.185 359.508 257.371C359.626 257.557 359.462 257.76 359.127 258.056C358.792 258.352 343.365 264.705 335.675 266.792L335.796 266.385C337.129 266.018 336.092 266.222 337.251 265.875C335.693 264.272 335.237 264.079 333.626 262.735C332.422 261.731 331.46 259.759 329.966 258.914C328.803 259.068 323.229 261.451 321.685 262.032L321.189 261.772C287.65 274.275 259.999 286.718 234.142 312.729C233.478 307.317 247.415 276.176 249.79 269.255C250.706 266.577 252.823 261.923 253.228 259.011C252.544 258.943 251.979 258.812 251.362 258.508C269.162 249.603 288.897 242.166 308.341 237.997C319.178 235.596 330.356 233.898 341.161 231.27C348.027 229.525 354.834 227.547 361.564 225.335C364.277 224.422 367.872 222.878 370.397 222.164Z" fill="url(#paint1_linear_176_639)"/>
<path d="M383.816 224.63C383.816 228.262 382.793 229.821 382.124 230.824C381.095 232.368 381.591 231.799 379.745 234.16C377.798 237.175 371.173 245.343 373.199 244.197C372.26 246.178 365.622 251.844 364.422 253.027C363.221 254.209 359.046 256.636 358.932 257.058C358.817 257.48 359.281 257.62 359.38 257.939C359.499 258.318 359.046 258.502 359.046 258.502C351.988 260.317 343.119 264.907 335.449 267L335.589 266.485C336.567 265.833 336.072 265.94 337.065 265.899C335.51 264.291 335.012 264.279 333.405 262.932C332.205 261.925 331.075 260.358 329.585 259.511C328.425 259.665 323.151 261.938 321.611 262.522L319.587 262.377C321.6 261.559 330.975 257.868 333.162 256.873C342.976 252.414 354.897 246.788 364.334 241.52C372.711 236.845 377.934 232.006 383.816 224.63Z" fill="#105388"/>
<path d="M370.397 222.761C376.148 219.764 379.514 218.403 385.189 215C385.833 216.735 386.348 221.486 385.704 223.503C385.614 223.781 385.322 223.985 385.213 224.302C379.168 231.753 372.556 237.502 365 242C369.198 238.728 370.351 238.311 372.111 236.861C375.017 234.586 383.005 227.661 383.814 224.634C380.724 224.771 381.99 222.098 383.195 219.945C385.271 216.235 375.758 221.123 370.397 222.761Z" fill="#79B851"/>
<path d="M252.422 258C253.038 258.301 253.316 258.331 254 258.398C253.595 261.283 250.876 266.81 249.961 269.464C247.588 276.322 233.66 307.178 234.323 312.541C223.497 324.221 213.847 335.17 205.949 349.179C204.921 351.002 202.005 356.008 201.336 357.86C198.177 364.215 196.012 368.65 193.746 375.494C193.534 375.239 192.744 374.134 192.744 373.523C187.312 357.202 191.892 336.056 197.062 320.561C205.745 294.541 227.544 269.464 252.422 258Z" fill="#C2E467"/>
<path d="M382.975 211.163C384.533 210.074 388.212 206.371 389.014 205.99C389.014 206.733 389.214 211.558 389.262 212.207C388.762 212.707 386.992 213.981 386.029 214.614L384.773 215.413C379.215 218.751 373.252 221.572 370.477 222.77C367.574 224.022 364.644 225.045 361.921 225.952C355.165 228.15 348.331 230.116 341.439 231.85C330.592 234.462 319.371 236.149 308.492 238.534C288.973 242.678 270.056 249.25 252.187 258.1C227.494 269.866 205.929 294.641 197.207 320.735C192.013 336.275 187.414 357.451 192.87 373.818C193.162 374.42 193.535 375.181 193.748 375.436C192.847 378.314 191.984 381.202 191.159 384.101C187.695 378.84 185.261 370.753 184.401 364.573C184.101 362.417 183.689 358.226 182.945 356.366C182.996 336.909 187.556 317.728 196.271 300.316C208.702 275.999 229.238 256.742 254.359 245.847C259.81 243.423 266.272 241.281 271.95 239.441C305.507 230.183 340.867 232.569 372.792 216.914C378.945 214.101 380.888 212.623 382.975 211.163Z" fill="#F2FCE3"/>
<path d="M359.065 258.501C357.564 259.822 352.569 262.988 350.507 264.09C344.743 267.19 339.183 269.956 333.358 272.938C332.238 273.508 326.415 276.43 325.833 276.906C322.372 278.49 318.375 280.573 314.978 282.287C295.536 292.099 277.77 301.042 260.523 314.532C259.174 315.59 255.605 318.539 254.411 319.777C251.456 322.842 248.152 325.568 245.791 328.044L233.753 341.791C221.379 358.449 220.724 358.687 213.837 374.987C212.825 377.382 211.262 381.438 210.551 383.614C208.471 389.979 208.048 391.627 206.791 398.019C204.063 398.019 204.089 398.019 200.286 397.861C201.672 370.747 211.483 355.646 227.855 334.546C252.97 302.178 286.646 284.612 324.137 270.664C326.533 269.772 333.204 267.339 335.475 266.482C343.636 263.401 352.01 260.312 359.065 258.501Z" fill="#F2FCE3"/>
<path d="M182.917 355.434C183.581 358.478 184.176 361.435 184.776 364.235C185.487 367.552 187.809 378.549 191 383.828C190.68 385.854 190.076 388.456 189.855 390.314C189.527 391.606 189.319 392.681 189.08 394C187.41 393.37 184.345 392.303 182.985 391.343C182.985 389.589 182.727 384.663 182.721 382.764V367.196C182.714 364.075 182.637 358.947 182.917 355.434Z" fill="#8AD067"/>
<path d="M125.552 155.854C124.275 156.666 116.314 161.692 115.94 161.913C113.084 163.595 108.308 166.497 106.758 167.385C102.019 170.101 79.2941 182.161 78.5746 184.391C77.4798 186.892 77.8991 201.537 77.8991 204.917C77.8991 209.52 77.8139 211.196 77.7982 215.738L77.8027 259.981C77.8572 271.67 77.8286 284.252 77.8286 295.144C77.7024 297.021 77.4046 302.592 77.0256 303.991C77.0255 302.512 77.0256 302.231 77.0256 300.764L77.0595 220.166L77.0459 199.404C77.0447 195.401 76.7037 187.491 77.8991 183.999C78.4568 182.369 89.7926 176.293 92.2112 174.929L125.552 155.854Z" fill="#0A4D4C"/>
<path d="M199.292 406.331C198.167 404.819 198.608 395.531 198.917 393.529C204.44 357.687 230.19 324.3 258.878 303.225C275.608 290.933 293.921 281.95 313.177 274.369C315.371 273.504 321.793 271.134 327.273 269.52C289.643 283.357 257.194 300.001 227.871 335.336C217.151 348.253 200.683 379.434 199.292 406.331Z" fill="#042F2E"/>
<path d="M182.99 391.387C182.99 391.387 182.24 375.185 182.112 372.102C181.239 351.073 184.193 316.509 201.814 289.151C215.872 267.757 232.049 254.398 253.993 244.73C258.208 243.169 275.282 237.768 281.291 237.165L276.378 238.311L271.525 239.597C265.849 241.43 259.865 243.361 254.416 245.776C229.308 256.629 208.781 275.813 196.356 300.037C187.385 318.412 184.772 336.776 182.934 356.365C182.715 359.918 182.69 363.643 182.698 366.742L182.75 382.564C182.913 385.507 182.99 391.387 182.99 391.387Z" fill="#042F2E"/>
<path d="M201.798 356.791C201.482 357.63 200.521 359.79 200.417 360.031C197.471 366.753 193.7 376.905 192.952 379.479C192.631 380.581 191.049 387.408 190.29 390.214L189.077 394.025C189.316 392.195 190.555 385.912 191.011 383.939C191.864 380.243 192.952 376.849 193.778 374.896C196.042 368.113 198.642 363.09 201.798 356.791Z" fill="#042F2E"/>
<path d="M266.318 84.7826C264.488 84.6152 245.782 74.7486 243.295 73.3324C226.043 63.5092 223.495 62.2199 205.568 52.4578L206.919 51.9973L207.901 51.9973C212.751 53.3479 249.144 75.0076 266.318 84.7826Z" fill="#042F2E"/>
<path fill-rule="evenodd" clip-rule="evenodd" d="M269.887 88.251C269.981 109.393 270.006 130.538 269.968 151.682C269.965 158.462 270.082 178.058 269.881 184.162C274.027 186.126 278.257 188.261 282.354 190.24C280.908 190.773 270.892 185.596 269.507 184.449L269.415 183.94C269.417 183.941 269.418 183.942 269.419 183.942C268.839 179.698 268.738 91.9209 269.887 88.251Z" fill="#042F2E"/>
<path d="M85.3991 189.493C85.7025 188.747 85.8081 188.619 86.6486 188.129C95.7797 182.809 104.965 177.436 114.067 172.08L124.922 165.676C126.889 164.507 128.983 163.271 130.99 162.177C131.999 161.627 134.19 162.487 135.175 162.976C138.114 164.433 141.045 166.019 143.992 167.504L163.087 177.03L177.844 184.514C180.73 185.96 188.86 189.993 191 191.672L190.904 192.249C190.561 200.177 190.824 209.841 190.832 217.875L190.818 263L190.859 278.576C190.874 280.454 191.044 286.151 190.751 287.761C190.078 291.454 186.867 296.424 185.238 300.253C179.48 313.79 175.927 327.606 174.355 342.223C174.209 343.58 173.776 348.217 173.871 349.303C174.579 351.481 174.698 385.664 173.992 387.315C173.886 387.942 173.771 388.369 173.605 388.984C172.426 389.169 168.807 387.701 167.516 387.177C156.054 382.551 143.028 376.336 132.758 369.464C129.841 367.831 125.061 364.285 122.18 362.249C106.968 351.746 101.352 343.783 89.8764 329.966L88.6172 328.792C87.2727 328.592 84.6043 325.796 84.555 324.501C84.0392 310.947 84.0027 297.487 84 283.917L84.2321 201.703C84.2448 200.096 84.1203 199.892 85.0216 198.996C85.2316 196.902 85.1044 193.175 85.2469 190.756L85.3991 189.493Z" fill="url(#paint2_linear_176_639)"/>
<path d="M146.085 226.568C147.589 226.491 154.909 229.152 155.244 230.219C151.586 228.767 149.485 227.907 146.085 226.568Z" fill="#105388"/>
<path d="M85.3991 189.312C85.4618 188.791 85.8081 188.44 86.6486 187.951C95.7797 182.643 104.965 177.282 114.067 171.938L124.922 165.548C126.889 164.381 128.983 163.149 130.99 162.057C131.999 161.509 134.19 162.366 135.175 162.854C138.114 164.308 141.045 165.89 143.992 167.372L163.087 176.877L177.844 184.344C180.73 185.786 188.86 189.811 191 191.486L190.904 192.062L190.712 191.866C190.553 193.112 190.556 195.496 190.523 196.847C187.422 194.786 179.647 191.061 176.048 189.301C169.859 186.273 162.887 182.474 156.659 179.702L153.429 177.871C146.771 174.678 140.178 171.355 133.651 167.905L133.593 224.689C133.561 235.436 133.364 246.517 133.502 257.228L133.392 288.875C133.654 292.228 133.517 296.846 133.499 300.282L133.433 318.627L133.396 343.664C133.384 347.889 133.495 353.545 133.243 357.688C133.312 359.382 133.809 368.102 132.758 368.88C129.841 367.251 125.283 364.851 122.402 362.819C107.19 352.34 101.574 344.394 90.0985 330.609L88.1538 328.621C86.8769 326.873 85.1496 325.389 85.1004 324.097C84.5845 310.573 84.0027 297.064 84 283.525L84.2321 201.494C84.2448 199.891 84.1203 199.688 85.0216 198.793C85.2316 196.704 85.2144 193.017 85.2144 191.125L85.3991 189.312Z" fill="url(#paint3_linear_176_639)"/>
<path d="M128.351 169.971C129.548 172.903 128.731 191.308 128.687 195.309L128.556 217.784C127.725 220.485 128.319 236.407 128.297 240.278C126.319 243.35 122.092 246.695 122.092 249.209C122.092 250.742 122.092 252.476 121.995 253.979C121.378 254.289 120.236 254.748 119.076 255.251C116.172 256.51 112.855 257.72 110.347 258.841C109.92 259.357 110.347 259.818 110.347 260.714C109.729 262.415 110.045 274.64 110.025 277.476C108.084 278.593 103.629 281.522 100.268 284.829C97.7596 287.297 89.3346 298.765 87.3481 301.636C86.5797 302.746 85.6455 304.212 85.6435 305.301C85.6435 305.301 84.9049 323.181 85.4335 324.966C85.962 326.751 109.303 351.613 110.269 352.692C108.92 352.491 84.6814 327.938 84.5569 324.673C84.0393 311.094 84.0027 297.609 84 284.015L84.2329 201.65C84.2456 200.041 84.2329 197.936 84.2327 196.203C84.2329 193.976 84.2329 193.292 84.2329 190.866C85.7434 190.034 85.1965 190.339 85.7434 190.034C95.131 184.79 104.204 184.286 113.572 178.918C116.435 177.278 126.421 171.64 128.351 169.971Z" fill="#C2E467"/>
<path d="M121.719 224.219C121.719 226.683 121.796 240.359 121.794 242.558C117.998 244.128 113.631 245.982 111.332 246.938C111.332 244.553 111.033 230.168 111.026 227.933C113.924 226.957 118.491 225.343 121.719 224.219Z" fill="#FEFEFD"/>
<path d="M119.854 226C119.854 228.071 119.962 239.285 119.962 241.343C117.36 242.196 114.608 243.113 112.047 244.085C112.048 241.474 112.047 231.473 112.047 229.003C114.537 228.087 117.413 227.023 119.854 226Z" fill="#9FD524"/>
<path d="M119.312 227.171C119.437 236.161 119.437 240.97 119.437 240.97C117.102 241.749 114.966 242.458 113.03 243.117C113.03 242.18 113.021 231.521 113 229.593L119.312 227.171Z" fill="#FEFEFD"/>
<path d="M110.898 200.592C114.766 199.177 118.216 197.662 122 196C122 201.872 121.902 208.562 121.811 214.166C119.208 215.701 114.107 217.781 111.188 219L110.571 218.949L110.235 218.792C109.95 216.643 110.868 200.952 110.868 200.952L110.898 200.592Z" fill="#FEFEFD"/>
<path d="M110.904 218.983L110.607 218.956L110.239 218.843C109.949 216.692 110.147 201.597 110.892 200.608C110.876 202.159 110.856 202.495 110.876 203.921V210.894C110.904 214.975 110.904 215.075 110.904 218.983Z" fill="#9FD524"/>
<path d="M121.704 224.228C122.113 224.088 122.149 224.076 122.34 224.011C122.34 228.831 122.532 240.339 122.532 241.831C122.532 243.324 122.532 242.271 122.532 242.271L121.809 242.553C121.809 240.264 121.704 227.909 121.704 224.228Z" fill="#9FD524"/>
<path d="M84.2436 190.187C85.64 189.473 85.439 189.274 87.626 187.995C96.6935 182.693 95.5885 183.003 104.628 177.664C104.628 177.664 128.888 163.218 130.88 162.128C131.883 161.58 134.684 162.71 135.662 163.197C138.58 164.649 141.491 166.23 144.418 167.71L163.379 177.205L178.034 184.665C180.9 186.106 188.755 189.853 190.88 191.527L190.812 192.179C190.655 193.424 190.658 195.805 190.625 197.155C187.545 195.097 179.824 191.375 176.25 189.616C170.105 186.592 163.181 182.796 156.996 180.028L153.788 178.198C147.178 175.009 140.63 171.689 134.149 168.242L134.091 224.969C134.059 235.704 133.864 246.774 134.001 257.475L133.891 289.089C132.777 281.782 133.82 269.691 133.502 261.995C133.364 258.671 133.812 255.87 133.206 252.339L133.253 253.887C132.634 251.171 133.252 245.68 132.384 244.504L131.86 244.642C129.478 247.15 130.218 252.456 130.235 255.861L130.3 272.762C130.302 274.657 130.456 277.69 129.818 279.386L129.681 280.028C129.148 281.04 129.371 287.519 129.353 289.203C128.486 286.757 129.838 283.222 129.184 280.547C128.241 276.687 129.043 264.083 129.169 259.498C129.411 250.725 129.024 241.835 128.957 233.047C128.918 228.014 129.368 222.845 128.938 217.849L129.068 195.488C129.111 191.507 129.92 173.195 128.735 170.279C126.825 171.939 116.942 177.548 114.109 179.18C104.838 184.521 93.534 191.29 84.2436 196.508C84.2085 195.004 84.2436 190.187 84.2436 190.187Z" fill="#F2FCE3"/>
<path d="M84.21 190.286C84.21 189.331 84.2651 188.635 85.5902 187.865C94.8139 182.509 104.092 177.1 113.287 171.707L124.251 165.26C126.239 164.083 128.354 162.839 130.381 161.738C131.924 160.899 133.678 162.032 134.674 162.524C137.619 163.98 140.425 165.461 143.104 166.876L162.803 176.691L177.71 184.226C180.625 185.681 188.874 189.825 191.036 191.516L190.996 192.115L190.726 191.948C181.817 186.969 169.716 180.814 160.457 176.331C154.305 173.179 148.13 170.07 141.933 167.005C139.391 165.734 132.964 162.323 132.267 162.111C131.91 162.002 131.473 162.079 131.282 162.111C130.11 162.305 122.294 167.256 118.174 169.679L95.4319 183.35C93.6076 184.418 86.36 188.79 84.21 190.286Z" fill="#042F2E"/>
<path d="M157.854 175C168.015 179.833 181.259 186.305 191.036 191.672C190.86 193.028 190.771 195.873 190.771 197.315C186.214 194.499 178.784 190.816 174.797 188.902C167.937 185.609 158.36 180.649 157.241 180.111L153.661 178.119C156.647 179.277 176.202 188.95 179.591 190.429L177.651 188.595C177.312 188.109 177.651 187.534 178.203 187.312C179.087 186.957 181.267 187.737 183.131 188.109C179.953 186.637 159.12 176.727 157.854 175Z" fill="#779F52"/>
<path d="M128.159 170.674L129.275 169.71C129.275 171.995 129.147 269.399 129.3 279.183L129.151 279.825C128.567 280.837 129.171 278.143 129.151 279.825C128.203 277.381 129.866 282.499 129.151 279.825C128.12 275.968 128.452 263.891 128.591 259.31C128.855 250.542 128.432 241.658 128.359 232.876C128.316 227.846 128.808 222.681 128.338 217.689L128.48 195.342C128.527 191.364 128.159 174.719 128.159 170.674Z" fill="#8AD067"/>
<path d="M128.672 274.877C128.641 271.837 128.676 272.231 128.672 270.469L129.05 254.194C129.05 250.253 129.72 244.252 131.244 243.875L131.872 243.875C133.413 244.361 134.11 247.636 134.11 251.908L134.169 258.304C134.169 262.401 134.11 266.444 134.11 270.26C134.11 277.633 134.11 278.505 134.11 284.742C134.11 288.207 133.958 292.6 133.935 295.791L133.853 312.829L133.806 336.082C133.791 340.006 133.447 349.171 133.447 350.646C133.447 352.122 133.334 356.884 133.334 359.792C130.962 358.376 130.053 357.865 129.031 357.186C129.031 353.213 128.766 342.529 128.71 338.122L128.641 296.634C128.633 290.702 128.672 285.197 128.641 279.558L128.672 274.877Z" fill="#779F52"/>
<path d="M119.386 255.058L122 254C121.709 260.037 121.865 266.965 121.872 273.07C120.254 273.701 114.882 275.245 110.901 277L110.444 276.817C109.703 273.851 110.861 262.847 110 259.642C110.222 259.062 110.446 258.897 110.86 258.381C113.288 257.26 116.574 256.317 119.386 255.058Z" fill="#FEFEFD"/>
<path d="M109.969 259.659C109.969 258.669 110.297 258.53 111.059 258.266C111.059 261.355 111.059 274.212 111.059 277.016L110.026 277.477C110.026 274.076 109.969 262.488 109.969 259.659Z" fill="#8AD067"/>
<path d="M119.854 256.837C119.854 258.909 119.962 270.123 119.962 272.18C117.36 273.034 114.608 273.95 112.047 274.922C112.048 272.311 112.047 262.31 112.047 259.84C114.537 258.924 117.413 257.86 119.854 256.837Z" fill="#6AC31C"/>
<path d="M119.312 258.008C119.437 266.999 119.437 271.807 119.437 271.807C117.102 272.587 114.966 273.295 113.03 273.954C113.03 273.017 113.021 262.358 113 260.43L119.312 258.008Z" fill="#FEFEFD"/>
<path d="M134.099 168C140.472 171.438 146.91 174.748 153.411 177.93L156.565 179.754C159.333 181.02 160.602 182.259 161.706 184.395L159.516 183.143L158.502 183.09C158.771 184.611 159.575 186.019 159.83 187.734C160.584 192.801 159.222 195.528 155.154 198.286C152.417 197.699 148.396 195.183 146.389 195.166L145.845 196.291C145.105 197.528 145.292 211.502 145.249 213.98C146.686 216.239 149.745 215.016 149.606 219.31C149.528 221.732 145.837 224.371 145.756 225.743C145.558 229.073 145.987 233.829 145.808 237.264L145.669 237.206L145.325 232.25L145.168 232.13C144.743 234.175 145.029 236.082 144.375 237.726C143.075 238.548 143.035 237.355 142.356 238.39C141.221 240.117 138.953 243.797 136.264 243.434L135.469 242.662C133.63 244.201 134.776 254.17 134.012 257.022C133.877 246.35 134.01 235.286 134.042 224.579L134.099 168Z" fill="#60CF93"/>
<path d="M146.149 195C148.172 195.017 152.225 197.557 154.983 198.15C155.912 198.654 157.395 199.233 157.867 199.98V205.699C157.867 209.825 157.741 214.594 157.867 218.801C155.24 217.83 148.368 214.84 146.242 214.477L146.013 214.571L145 213.994C145.044 211.493 144.855 197.384 145.601 196.136L146.149 195Z" fill="#FEFEFD"/>
<path d="M145.484 196.311C145.815 199.502 146 211.29 146 214.592L145.815 214.686L145 214.11C145.035 211.617 144.884 197.555 145.484 196.311Z" fill="#034D87"/>
<path d="M146.151 226.576C146.421 229.753 146.37 241.467 146.303 244.747L146.115 244.836L145.303 244.248C145.389 241.772 145.52 227.8 146.151 226.576Z" fill="#034D87"/>
<path d="M146.144 256.503C146.415 259.626 146.368 271.144 146.303 274.369L146.114 274.457L145.368 274.261C145.453 271.826 145.514 257.706 146.144 256.503Z" fill="#8DC63F"/>
<path d="M146.191 195C148.208 195.017 152.55 197.058 154.994 198.147C155.92 198.65 157.398 199.228 157.868 199.974C155.845 199.451 147.657 196.443 146.191 195Z" fill="#034D87"/>
<path d="M147.003 198C150.358 198.992 153.74 200.401 157 201.678L156.998 217C154.367 216.395 149.831 214.38 147.067 213.32C146.957 208.291 147.02 203.047 147.003 198Z" fill="#034D87"/>
<path d="M148 199L155.976 201.939C156.028 206.599 155.979 211.333 155.978 216C153.119 214.639 151.134 213.806 148.138 212.743C148.186 208.161 148.14 203.58 148 199Z" fill="#FEFEFD"/>
<path d="M173.841 349C174.546 351.177 175.153 385.233 173.669 389.331C172.687 386.622 173.626 353.789 173.841 349Z" fill="#0A4D4C"/>
<path d="M167.167 202.342C167.167 202.342 171.186 203.842 172.926 204.611C174.666 205.38 178.263 206.85 180 207.386C179.85 213.59 179.794 219.795 179.832 226C175.785 224.277 171.336 222.748 167.159 221.244C167.159 216.522 167.159 206.66 167.167 202.342Z" fill="#FEFEFD"/>
<path d="M167.138 202.387L167.423 202.147C168.976 202.252 171.996 203.813 172.999 204.661C170.909 203.841 169.268 203.171 167.138 202.387Z" fill="#105388"/>
<path d="M169.076 204C170.358 204.531 176.519 207.232 177.998 207.929C178.008 213.286 177.983 218.643 177.925 224C174.919 222.812 171.944 221.55 169 220.215L169.076 204Z" fill="#105388"/>
<path d="M170 205.562C172.319 206.563 174.644 207.552 176.974 208.526C177.031 213.222 176.977 218.028 176.977 222.734C174.676 221.727 172.361 220.752 170.032 219.811L170 205.562Z" fill="#FEFEFD"/>
<path d="M146.085 226.577C148.627 227.615 150.999 228.462 153.18 229.352C153.909 229.649 157.297 231.076 158 231.379C158 236.637 158 244.072 158 249.536C153.561 247.715 150.156 246.466 146.085 244.834C146.085 239.243 146.146 232.234 146.085 226.577Z" fill="#FEFEFD"/>
<path d="M147.066 229C149.815 230.21 153.991 231.571 156.997 232.774C156.97 237.851 156.971 242.927 157 248C153.793 246.95 150.179 245.471 147 244.252L147.066 229Z" fill="#105388"/>
<path d="M148 230.072L156 232.943V246.804L148 243.821C148 240.047 148.028 233.889 148 230.072Z" fill="#FEFEFD"/>
<path d="M146.044 256.412C149.748 257.708 154.006 259.195 158 260.8C157.821 264.67 157.811 274.971 157.821 279C154.847 277.848 149.356 275.669 146 274.435C146.085 268.291 146.099 262.559 146.044 256.412Z" fill="#FEFEFD"/>
<path d="M147.036 258C150.429 259.168 153.69 260.257 157 261.641L156.906 277C153.605 275.721 150.351 274.442 147 273.284L147.036 258Z" fill="#8DC63F"/>
<path d="M147.991 259.29C149.539 259.772 154.083 261.449 155.988 262.136V275L147.991 272.008C147.991 268.037 148.004 263.252 147.991 259.29Z" fill="#FEFEFD"/>
<path d="M167.007 264C170.964 265.383 174.875 267.142 178.967 268.576L179 286L167.042 281.561C167.042 281.561 167.017 269.811 167.007 264Z" fill="#FEFEFD"/>
<path d="M168.388 265.791C170.426 266.577 175.945 268.686 177.868 269.319C177.868 274.188 177.868 279.049 177.868 283.771C174.255 282.253 171.792 281.459 168.447 280.157C168.547 275.517 168.413 270.462 168.388 265.791Z" fill="#24AAB4"/>
<path d="M170.047 267.461C172.727 268.374 174.512 269.208 177 270.16V282.422L170.047 279.753C170.056 276.524 170.047 270.378 170.047 267.461Z" fill="#FEFEFD"/>
<path d="M167.029 235C170.926 236.304 175.143 238.057 179 239.577C178.93 245.384 178.922 251.193 178.977 257C175.208 255.551 170.739 253.709 167.159 252.247C166.981 246.573 167.039 240.715 167.029 235Z" fill="#FEFEFD"/>
<path d="M168.331 236.945C170.381 237.75 175.052 239.705 177.572 240.604C177.572 245.062 177.572 250.865 177.572 255.372C174.935 254.291 170.826 252.406 168.331 251.39C168.331 246.921 168.331 241.922 168.331 236.945Z" fill="#8DC63F"/>
<path d="M169.531 238.501L176.372 241.043V253.815C174 252.883 171.741 252.034 169.531 251.108C169.541 246.78 169.568 242.826 169.531 238.501Z" fill="#FEFEFD"/>
<path d="M206.579 61.7903L210.572 63.9578C223.752 70.2973 236.841 78.9201 249.932 85.6196C252.019 86.6878 259.698 90.8224 261.021 92.116L261.108 92.8809L261.079 172.269C261.082 192.184 260.887 212.443 261.126 232.333C236.984 241.134 225.292 249.667 206.958 267.051C205.068 269.526 202.62 272.03 200.501 274.79C200.816 251.031 200.582 226.781 200.596 202.984C200.368 198.595 200.76 193.924 200.461 189.509C200.176 189.252 199.91 188.029 198.735 186.932L198.347 186.575C196.444 184.796 186.356 181.045 183.239 178.785C180.336 176.679 160.157 167.44 159.145 165.692C159.392 159.468 159.229 152.369 159.223 146.068L159.186 111.577C159.182 105.621 158.985 98.2756 159.328 92.4843C160.646 91.2527 164.381 88.9929 166.12 87.8515L179.838 78.8857L196.788 67.8576C199.745 65.9478 203.522 63.3661 206.579 61.7903Z" fill="url(#paint4_linear_176_639)"/>
<path d="M206.041 62L210 64.1646C208.984 64.4443 207.906 63.6999 206.825 63.1671C206.828 64.1936 206.905 66.512 206.827 67.4317C205.546 69.5912 206.772 92.755 206.354 96.7395C206.2 98.2152 206.386 103.826 206.325 105.816C205.496 109.381 206.179 131.372 205.487 132.072C205.314 130.334 205.204 130.561 203.576 129.912C202.421 128.137 203.113 121.614 202.373 120.753C202.247 125.015 202.352 129.217 202.259 133.432L202.276 174.93C202.143 177.482 202.566 191.351 201.641 192.328L200.937 192.293C200.193 192.948 200.295 192.952 200.198 194.271C200.198 197.553 200.226 199.52 200.107 203.2C200.194 198.999 200.273 193.952 199.976 189.544C199.694 189.287 199.43 188.066 198.266 186.97L197.881 186.613C195.995 184.837 185.994 181.092 182.904 178.834C180.026 176.732 160.022 167.505 159.018 165.759C159.264 159.544 159.102 152.455 159.096 146.162L159.059 111.718C159.055 105.77 158.86 98.4353 159.2 92.652C160.507 91.4221 164.21 89.1653 165.933 88.0255L179.532 79.072L196.336 68.059C199.267 66.1518 203.011 63.5737 206.041 62Z" fill="#C2E467"/>
<path d="M201.945 119.913C202.2 118.614 202.429 117.309 202.632 116C202.94 121.875 202.71 127.633 202.983 133.466L203 174.944C202.864 177.495 203.295 191.356 202.354 192.333L201.622 192.272C200.865 192.927 201.016 192.813 200.917 194.132C200.713 196.861 200.574 199.093 200.326 201.758C200.096 197.377 200.217 192.996 200.048 190.528C199.934 188.862 200.105 188.073 198.921 186.978L198.529 186.622C196.611 184.846 186.438 181.103 183.295 178.846C180.368 176.745 160.021 167.523 159 165.777C160.412 165.926 162.062 166.904 163.361 167.594L163.433 142.277C163.663 143.131 163.863 148.625 164.051 150.239C167.988 147.917 176.528 140.483 180.644 137.162C187.665 131.497 195.149 125.754 201.945 119.913Z" fill="url(#paint5_linear_176_639)"/>
<path d="M158.989 166.015C160.378 166.165 162.011 167.137 163.289 167.834C167.145 169.985 176.049 174.717 179.091 176.327C183.433 178.624 196.334 185.246 197.365 185.826C198.449 186.436 199.892 187.042 200.018 188.366C200.018 188.621 200.095 191.265 200.095 191.728C199.472 191.4 199.541 188.366 198.731 187.625L197.853 186.983C197.365 186.583 186.191 181.055 182.892 179.194C181.32 178.307 159.993 167.776 158.989 166.015Z" fill="#042F2E"/>
<path d="M179 176.213L179.441 176C182.002 176.95 196.238 183.475 197 185C191.592 182.694 184.202 178.965 179 176.213Z" fill="#8AD067"/>
<path d="M206.041 62L210 64.1733C208.984 64.4541 207.906 63.7067 206.825 63.1718C206.828 64.2024 206.905 66.5301 206.827 67.4534C205.546 69.6217 206.772 92.8784 206.354 96.8789C206.2 98.3604 206.386 103.994 206.325 105.992C205.496 109.571 206.179 131.65 205.487 132.353C205.314 130.608 205.204 130.836 203.576 130.184C202.421 128.402 203.113 121.853 202.373 120.989C202.136 104.269 202.052 86.224 202.297 69.5062C198.744 72.1598 194.341 74.834 190.579 77.2955L172.716 89.1835C169.979 91.0273 165.855 93.695 163.329 95.7248L163.324 127.65C163.321 130.93 163.087 139.582 163.377 142.569V167.888C162.1 167.195 160.379 166.173 158.99 166.023C159.236 159.783 159.103 152.817 159.096 146.5L159.059 111.918C159.055 105.946 158.86 98.5815 159.2 92.775C160.507 91.5401 164.21 89.2743 165.933 88.1299L179.532 79.1405L196.336 68.0833C199.267 66.1685 203.011 63.58 206.041 62Z" fill="#F2FCE3"/>
<path d="M202.362 120.947C203.104 121.808 202.41 128.335 203.568 130.111C205.2 130.761 205.31 130.534 205.484 132.273C206.177 131.572 205.493 109.567 206.324 106L206.296 214.172C206.267 231.687 206.062 249.772 206.416 267.266C204.538 269.739 202.106 272.242 200 275C200.312 251.258 200.082 226.692 200.095 202.912C200.183 201.463 200.117 196.401 200.183 194.462C200.224 193.249 200.103 192.774 200.906 192.145L201.629 192.567C202.556 191.589 202.131 177.712 202.265 175.158L202.248 133.633C202.341 129.416 202.235 125.211 202.362 120.947Z" fill="url(#paint6_linear_176_639)"/>
<path d="M202.454 175.266C203.155 186.362 201.77 197.621 200.12 202.903C200.12 199.176 200.116 193.935 200.116 193.344C200.116 192.908 200.451 192.376 200.911 192.183C202.145 191.218 202.275 177.786 202.454 175.266Z" fill="#779F52"/>
<path d="M207 63C208.105 63.5335 209.207 64.279 210.246 63.9989C223.604 70.3386 236.87 78.9618 250.138 85.6616C252.271 86.7389 259.517 90.8717 261.096 91.9596V92.9987C261.096 94.6549 261.163 95.7792 261.096 97C258.626 95.2583 249.963 90.829 246.903 89.172L220.086 74.5845C216.795 72.8278 209.762 69.278 207.002 67.2706C207.082 66.3496 207.003 64.028 207 63Z" fill="#BEF4DA"/>
<path d="M219.599 129.001C221.373 128.951 226.844 131.399 228.122 132.577L228.235 132.876C229.128 133.47 230.734 134.125 231.845 134.67C231.845 138.502 231.887 148.737 232 154C226.855 151.673 223.794 150.163 219.115 148.059C219.115 142.637 219.115 133.999 219.183 129.177L219.599 129.001Z" fill="#FEFEFD"/>
<path d="M220 129.001C221.732 128.949 227.073 131.475 228.322 132.692L228.432 133C226.172 132.043 221.903 130.334 220 129.001Z" fill="#034D87"/>
<path d="M221.02 132L229.984 135.665C230.01 140.777 230.004 145.888 229.967 151L221 147.142L221.02 132Z" fill="#034D87"/>
<path d="M222 133L229 136.264L228.997 150C226.689 148.87 224.356 147.795 222 146.776V133Z" fill="#FEFEFD"/>
<path d="M240.948 109.327L241.496 109L242.894 109.473C244.466 109.018 247.196 110.143 247.921 111.482C249.838 112.498 251.93 113.221 253.978 113.996C253.978 119.974 253.837 125.739 254 132C250.974 130.848 247.834 129.599 244.777 128.554C243.348 128.805 240.276 127.671 240.229 126.276C240.123 123.106 239.485 111.631 240.948 109.327Z" fill="#FEFEFD"/>
<path d="M240.892 109.377C241.206 114.615 241.076 121.891 240.942 127.183L245 128.639C243.467 128.89 240.171 127.755 240.12 126.357C240.007 123.182 239.322 111.686 240.892 109.377Z" fill="#034D87"/>
<path d="M242.874 109.482C244.466 109.019 247.232 110.163 247.967 111.525C246.355 110.946 244.482 110.133 242.874 109.482Z" fill="#034D87"/>
<path d="M243.054 111L251.956 114.738C252.031 119.785 251.986 124.944 251.995 130C250.195 129.012 245.135 127.053 243 126.172C243.063 121.115 243.081 116.058 243.054 111Z" fill="#034D87"/>
<path d="M244 112C246.596 113.066 248.494 113.88 251 115.177L250.965 129C248.625 127.831 246.387 126.842 244.003 125.796C244.079 121.254 244.012 116.554 244 112Z" fill="#FEFEFD"/>
<path d="M219 189C222.196 190.988 228.246 193.205 232 194.905C231.477 199.768 231.777 208.858 231.813 214C227.646 212.59 223.479 210.582 219.3 209.015C219.33 204.423 219.645 193.022 219 189Z" fill="#FEFEFD"/>
<path d="M221.006 192C223.927 193.349 227.011 194.59 229.984 195.835C230.013 201.224 230.002 206.612 229.955 212C226.962 210.889 223.942 209.523 221 208.247C221.066 202.876 221.006 197.381 221.006 192Z" fill="#105388"/>
<path d="M222.022 194C224.492 195.197 226.426 196.073 228.973 197.068C229.015 201.712 229.007 206.356 228.954 211C227.482 210.499 223.749 208.685 222 207.95L222.022 194Z" fill="#FEFEFD"/>
<path d="M219.195 97.1648C219.523 97.1099 219.851 97.0549 220.18 97C223.262 98.2885 228.492 100.047 231.143 101.804L231.216 102.111C231.38 102.283 231.872 102.957 231.878 103.076C232.103 108.915 232 116.242 232 122C227.757 120.079 222.998 118.108 219 116.388C219.292 109.988 218.878 103.426 219.195 97.1648Z" fill="#FEFEFD"/>
<path d="M219.811 97.0186C220.123 96.9623 220.435 96.9059 220.747 96.8496C223.677 98.1708 228.648 99.9735 231.167 101.775L231.237 102.091C229.33 101.67 221.675 98.0803 219.811 97.0186Z" fill="#034D87"/>
<path d="M221.012 100L229.969 103.911C230.038 108.887 229.972 114.012 229.966 119C227.045 117.92 223.861 116.358 221 115.038L221.012 100Z" fill="#034D87"/>
<path d="M222 101C224.371 102.215 226.587 103.237 229 104.332L228.967 118C227.058 116.899 224.048 115.563 222 114.575C222.047 110.073 222.006 105.508 222 101Z" fill="#FEFEFD"/>
<path d="M241.035 139C244.971 140.436 250.114 142.632 253.959 144.338C253.771 149.977 253.693 158.456 254 164C249.807 162.439 245.353 160.361 241 158.702C241.144 152.237 241.041 145.488 241.035 139Z" fill="#FEFEFD"/>
<path d="M243.223 142C245.164 143.173 249.681 144.866 251.946 145.77C251.911 151.18 251.929 156.591 252 162C248.948 160.791 246.055 159.303 243 158.064C243.024 152.735 242.994 147.317 243.223 142Z" fill="#034D87"/>
<path d="M244.245 143C246.05 143.609 249.018 144.973 250.986 145.74C251.015 150.493 251 155.247 250.939 160C248.657 158.878 246.354 157.799 244.031 156.764C244.068 153.919 243.84 145.264 244.245 143Z" fill="#FEFEFD"/>
<path d="M241.044 170.489L241.356 170C243.572 170.287 247.618 172.042 249.265 173.493L249.352 173.908C250.242 174.396 252.69 175.501 253.756 175.935C253.756 179.884 253.756 189.436 253.756 194.715C250.127 193.284 244.497 190.959 241.044 189.596C241.044 183.322 241.044 176.728 241.044 170.489Z" fill="#FEFEFD"/>
<path d="M241.111 170.365L241.349 170C243.59 170.293 247.681 172.09 249.347 173.576L249.435 174C246.862 173.009 243.546 171.554 241.111 170.365Z" fill="#105388"/>
<path d="M243 173C245.638 174.292 249.092 175.549 251.993 176.92C252.013 181.947 251.99 186.974 251.93 192C249.202 190.701 245.925 189.435 243 188.068V173Z" fill="#105388"/>
<path d="M244.003 174C246.281 174.932 248.733 176.124 250.987 177.163C251.025 181.748 250.967 186.408 250.95 191C248.785 189.896 246.231 188.784 244 187.72L244.003 174Z" fill="#FEFEFD"/>
<path d="M219.57 160.44L219.784 160C221.278 160.324 226.282 162.201 227.264 163.38L227.142 163.762C228.646 164.581 230.335 165.035 231.985 165.547L232 184C227.758 182.155 223.099 180.258 219 178.223C219.464 173.431 219.204 165.699 219.165 160.676L219.57 160.44Z" fill="#FEFEFD"/>
<path d="M219.556 160.454L219.742 159.948C221.23 160.24 226.259 162.112 227.291 163.393L227.192 163.829C225.238 163.111 221.242 161.505 219.556 160.454Z" fill="#034D87"/>
<path d="M221.099 163C224.11 164.335 226.936 165.608 229.984 166.881C230.013 171.921 230.001 176.961 229.958 182C227.023 180.503 224.035 179.12 221.001 177.854C220.993 172.903 221.024 167.951 221.099 163Z" fill="#034D87"/>
<path d="M222 164C224.276 165.064 226.621 166.088 228.917 167.12C229.068 171.146 228.964 175.916 228.978 180C226.658 178.796 224.376 177.758 222.011 176.673L222 164Z" fill="#FEFEFD"/>
<path d="M241.197 200.478C242.961 201.184 245.004 202.317 246.503 202.927C246.503 202.927 249.963 204.525 253.196 205.864C253.088 211.73 253.088 218.093 253.088 224C249.04 222.383 245.035 220.664 241.074 218.846C241.074 216.145 241.197 202.104 241.197 200.478Z" fill="#FEFEFD"/>
<path d="M242.877 202.5C244.227 203.319 250.013 205.647 251.806 206.452C251.632 211.253 251.75 216.975 251.806 221.803C248.65 220.495 245.997 219.451 242.809 217.978C242.797 212.818 242.818 207.659 242.877 202.5Z" fill="#8DC63F"/>
<path d="M243.82 203.89L250.806 206.857V220.194C248.19 219.21 246.244 218.359 243.806 217.344L243.82 203.89Z" fill="#FEFEFD"/>
<path d="M271.223 193C273.342 193.396 281.382 197.826 283.804 199.044C291.027 202.68 298.824 206.061 305.915 209.848L306 210.278C305.836 214.497 305.88 218.956 305.859 223.198C294.078 224.26 282.431 226.541 271.097 230C271.147 221.585 270.927 211.165 270.928 202.999L271.07 197.842L271.1 194.073L271.223 193Z" fill="#8DC63F"/>
<path d="M271.153 193.037C273.276 193.431 281.333 197.831 283.759 199.042C290.997 202.653 298.809 206.012 305.915 209.774L306 210.202L305.915 213.131C304.313 215.243 303.059 214.102 300.482 213.131C297.608 212.049 293.376 209.852 290.514 208.475C284.372 205.494 278.723 203.101 272.512 200.272C272.059 200.75 271.792 201.37 271.265 202.473L270.941 202.991L271 197.847L271.029 194.102L271.153 193.037Z" fill="#779F52"/>
<path d="M271.174 192.997C272.063 192.855 280.744 197.243 284.024 198.983C287.845 201.011 298.344 205.859 305.914 209.576L306 210L305.243 209.826C297.982 206.332 290.445 202.896 283.313 199.392C280.162 197.844 275.757 195.573 271.174 192.997Z" fill="#042F2E"/>
<path d="M270.97 196.853C270.842 200.346 271.144 226.034 270.611 227L270.336 226.804C270.103 225.62 270.073 222.495 270.165 221.339C270.53 216.871 269.257 195.555 271.13 193.037L270.97 196.853Z" fill="#0A4D4C"/>
<path d="M389.027 205.99C389.687 210.045 391.759 236.976 391.311 245.04C391.311 245.041 391.313 245.042 391.313 245.043C391.364 249.562 390.343 256.927 389.448 261.18C387.108 272.306 384.897 279.676 380.706 290.64C380.312 291.385 378.951 294.723 378.707 294.638C383.908 280.397 389.481 261.419 390.422 245.988C390.583 231.105 388.803 210.567 389.027 205.99Z" fill="#042F2E"/>
<path d="M119.807 198.458C119.807 200.529 119.915 211.743 119.915 213.801C117.312 214.654 114.561 215.57 112 216.542C112 213.931 112 203.931 112 201.46C114.49 200.545 117.365 199.48 119.807 198.458Z" fill="#6AC31C"/>
<path d="M119.264 199.628C119.389 208.619 119.389 213.427 119.389 213.427C117.055 214.207 114.919 214.915 112.983 215.574C112.983 214.637 112.974 203.978 112.953 202.05L119.264 199.628Z" fill="#FEFEFD"/>
<path d="M94.7824 340.872C92.4393 338.289 84.4585 326.305 84.564 324.671L173.3 378.526L173.659 389.326C118.707 372.151 97.4788 343.845 94.7824 340.872Z" fill="#8DC63F"/>
<circle cx="226.793" cy="227" r="208.707" stroke="#8DC63F" stroke-width="19"/>
<defs>
<linearGradient id="paint0_linear_176_639" x1="287.588" y1="289.948" x2="338.65" y2="347.647" gradientUnits="userSpaceOnUse">
<stop stop-color="#8DC63F"/>
<stop offset="1" stop-color="#0A68B5"/>
</linearGradient>
<linearGradient id="paint1_linear_176_639" x1="271.819" y1="235.471" x2="333.511" y2="285.443" gradientUnits="userSpaceOnUse">
<stop stop-color="#BCDD5A"/>
<stop offset="1" stop-color="#8DC63F"/>
</linearGradient>
<linearGradient id="paint2_linear_176_639" x1="108.731" y1="242.648" x2="219.471" y2="327.845" gradientUnits="userSpaceOnUse">
<stop stop-color="#52CF88"/>
<stop offset="1" stop-color="#0D95EB"/>
</linearGradient>
<linearGradient id="paint3_linear_176_639" x1="101.622" y1="276.24" x2="153.035" y2="313.413" gradientUnits="userSpaceOnUse">
<stop stop-color="#99D66D"/>
<stop offset="1" stop-color="#3DC59B"/>
</linearGradient>
<linearGradient id="paint4_linear_176_639" x1="168.338" y1="147.222" x2="275.85" y2="200.532" gradientUnits="userSpaceOnUse">
<stop stop-color="#77D471"/>
<stop offset="1" stop-color="#2ABEBD"/>
</linearGradient>
<linearGradient id="paint5_linear_176_639" x1="176.568" y1="137.495" x2="215.874" y2="173.564" gradientUnits="userSpaceOnUse">
<stop stop-color="#B0D961"/>
<stop offset="1" stop-color="#76CE77"/>
</linearGradient>
<linearGradient id="paint6_linear_176_639" x1="183.074" y1="204.337" x2="221.013" y2="194.856" gradientUnits="userSpaceOnUse">
<stop stop-color="#86ECD3"/>
<stop offset="1" stop-color="#D6F8E7"/>
</linearGradient>
</defs>
</svg>
